<svg width="180" height="45" viewBox="0 0 180 45" fill="none" xmlns="http://www.w3.org/2000/svg">
<path d="M0 4.26203L40.6976 0L44.9597 40.6976L4.26203 45L0 4.26203Z" fill="#8D8D8D"/>
<path d="M38.4105 9.94608L37.8593 4.77653L37.7417 4.73619C36.6762 4.3799 35.5703 4.10428 34.4645 3.98664C33.3586 3.869 32.2931 3.869 31.2276 3.94631C29.6882 4.10428 28.4244 4.42024 27.5168 4.89417C26.4917 5.44541 25.8598 6.04034 25.5035 6.8672C25.2682 7.38147 25.1102 7.81507 25.0699 8.44698C25.0295 9.11922 25.0699 10.0268 25.1875 11.4082L25.7791 17.2097C25.9371 18.7088 26.1354 19.7373 26.3707 20.4062C26.6059 21.0784 26.8849 21.3541 27.2782 21.7473L27.3958 21.865C27.9874 22.4969 28.7773 22.9305 29.7655 23.1288C30.5554 23.3271 31.7789 23.522 33.3183 23.3641C34.5014 23.2464 35.6073 22.8128 36.6358 22.3759C37.7013 21.9423 38.6492 21.3507 39.5164 20.6381L39.5937 20.5608L38.6862 12.1141L32.2125 12.7863L32.5687 16.2988L34.8174 16.0635L35.0527 18.3928C34.7367 18.7491 33.9065 19.102 32.804 19.223C32.1318 19.3004 31.6579 19.1457 31.3049 18.7894C30.9486 18.3962 30.7537 17.8013 30.6327 16.8567L30.0008 10.7393C29.9201 9.8318 29.9604 9.19989 30.2361 8.72596C30.4713 8.29236 30.9453 8.05371 31.5772 7.97641C32.2091 7.8991 32.683 8.05708 32.999 8.36967C33.3553 8.72596 33.5502 9.23686 33.6309 10.0268L33.6712 10.3427L38.4072 9.94944L38.4105 9.94608Z" fill="#0C0C0C"/>
<path d="M18.5905 7.89621C18.6308 8.09453 18.6678 8.2525 18.7081 8.48779L21.0374 18.5546L21.0778 18.7126L23.6424 18.437L23.8407 8.01722V6.91138C23.7634 6.12149 23.4844 5.60722 22.9332 5.17363C22.4189 4.78036 21.7097 4.58205 20.9198 4.69969C20.0896 4.777 19.498 5.09296 19.0644 5.60722C18.6308 6.15846 18.4728 6.71306 18.5501 7.50295L18.5905 7.77857V7.89621V7.89621Z" fill="#0C0C0C"/>
<path d="M20.8854 20.646C20.4518 21.1602 20.2939 21.7518 20.3342 22.4207C20.4115 23.0526 20.6905 23.6038 21.2417 24.0374C21.756 24.471 22.3476 24.629 23.0165 24.5887C23.6887 24.5114 24.2399 24.2324 24.6366 23.7215C25.0702 23.2072 25.2281 22.6156 25.1508 21.9468C25.0702 21.2745 24.7945 20.7233 24.2836 20.33C23.7694 19.8964 23.1778 19.7384 22.5089 19.8158C21.877 19.8158 21.3258 20.1317 20.8922 20.646H20.8854Z" fill="#0C0C0C"/>
<path d="M33.7091 38.567L33.4334 35.962L33.5914 35.9217C33.7897 35.8814 33.9477 35.7637 33.9847 35.6461C34.062 35.4881 34.062 35.1722 34.025 34.6982L33.8267 32.9605L30.4722 27.8682C30.3142 27.6329 30.1966 27.475 30.0386 27.354C29.921 27.2766 29.8033 27.196 29.7227 27.1556L29.5647 27.1153L29.2891 24.628L33.5511 24.2347L33.7494 26.0095C33.7897 26.3658 33.8267 26.6414 33.9074 26.8767C33.988 27.1119 34.0654 27.3103 34.183 27.5086L35.0905 28.8497L35.7224 27.3506C35.7997 27.1523 35.8401 26.917 35.8804 26.6784V25.7708L35.6821 23.9961L39.8265 23.5625L40.1021 26.0498L39.9845 26.1271C39.8668 26.1674 39.7861 26.2448 39.7088 26.3624C39.5912 26.48 39.5105 26.6784 39.3929 26.9136L37.1812 32.5975L37.3795 34.3352C37.4199 34.8091 37.4972 35.0848 37.6148 35.2427C37.6921 35.3604 37.8501 35.441 38.0887 35.441H38.2467L38.5223 38.046L33.7057 38.5603L33.7091 38.567Z" fill="#0C0C0C"/>
<path d="M24.3171 36.6716C24.791 36.6312 25.0263 36.4732 25.1843 36.1573C25.3826 35.801 25.4196 35.3674 25.3423 34.6582L24.791 29.2097C24.7137 28.6181 24.6331 28.3021 24.5154 28.1038C24.3978 27.9458 24.2398 27.8282 24.0011 27.7879L23.8432 27.7475L23.6079 25.4989L28.8984 24.709L29.1741 27.156L29.0564 27.2366C28.7808 27.3543 28.6228 27.5122 28.5422 27.6299C28.4615 27.7879 28.4615 28.0231 28.5018 28.4971L29.0934 34.2212C29.2917 36.0363 29.0531 37.1825 28.3438 38.1303C27.6716 39.0379 26.4481 39.5925 24.6331 39.7874C22.818 39.9857 21.5138 39.6698 20.6466 38.9572C19.7391 38.1673 19.2652 37.1018 19.0669 35.2867L18.4753 29.5626C18.435 29.129 18.3577 28.8903 18.24 28.7324C18.1593 28.6147 17.9644 28.4971 17.6484 28.4567L17.4905 28.4164L17.2148 25.9694L22.5424 25.6535L22.7777 27.9021L22.66 27.9794C22.4247 28.0971 22.3037 28.2147 22.2264 28.413C22.1491 28.6114 22.1491 28.9643 22.1861 29.5189L22.7777 35.0044C22.855 35.6766 23.0129 36.1102 23.2516 36.4262C23.4869 36.7018 23.7255 36.8195 24.1995 36.7421L24.3171 36.6648V36.6716Z" fill="#0C0C0C"/>
<path d="M20.8854 20.646C20.4518 21.1602 20.2939 21.7518 20.3342 22.4207C20.4115 23.0526 20.6905 23.6038 21.2417 24.0374C21.756 24.471 22.3476 24.629 23.0165 24.5887C23.6887 24.5114 24.2399 24.2324 24.6366 23.7215C25.0702 23.2072 25.2281 22.6156 25.1508 21.9468C25.0702 21.2745 24.7945 20.7233 24.2836 20.33C23.7694 19.8964 23.1778 19.7384 22.5089 19.8158C21.877 19.8158 21.3258 20.1317 20.8922 20.646H20.8854Z" fill="#0C0C0C"/>
<path d="M36.8309 3.5536C36.8209 3.4494 36.8309 3.35193 36.8713 3.25781C36.9082 3.1637 36.9688 3.08639 37.0494 3.02925C37.1301 2.96875 37.2175 2.93514 37.315 2.92505C37.4124 2.91497 37.5065 2.92841 37.5973 2.97211C37.6881 3.01244 37.762 3.07631 37.8191 3.16034C37.8763 3.24437 37.9099 3.33848 37.92 3.43932C37.9301 3.54352 37.9166 3.64435 37.8763 3.73511C37.8359 3.82922 37.7788 3.90653 37.6981 3.96367C37.6208 4.02417 37.5301 4.05778 37.4326 4.06787C37.3351 4.07795 37.241 4.06115 37.1503 4.02081C37.0595 3.98048 36.9889 3.91661 36.9284 3.83258C36.8713 3.74855 36.8377 3.65444 36.8242 3.55024L36.8309 3.5536ZM36.9251 3.54352C36.9351 3.62755 36.962 3.70486 37.0057 3.77208C37.0528 3.84267 37.1133 3.89308 37.1872 3.93006C37.2612 3.96703 37.3418 3.98048 37.4259 3.97039C37.5099 3.96031 37.5839 3.93342 37.6477 3.87964C37.7116 3.82922 37.762 3.76536 37.7922 3.68805C37.8225 3.61074 37.8326 3.53007 37.8259 3.44604C37.8158 3.36201 37.7889 3.2847 37.7418 3.21748C37.6948 3.15025 37.6343 3.09648 37.5603 3.0595C37.4864 3.02253 37.4057 3.00908 37.3217 3.01917C37.241 3.02925 37.1671 3.05614 37.1032 3.10656C37.0393 3.15698 36.9889 3.22084 36.9587 3.29815C36.9251 3.37546 36.915 3.45949 36.9251 3.54688V3.54352ZM37.2713 3.56705L37.2981 3.82586L37.1839 3.8393L37.1133 3.18723L37.3284 3.1637C37.4057 3.15362 37.4696 3.1637 37.5166 3.19731C37.5637 3.22756 37.5906 3.27462 37.5973 3.33848C37.604 3.39562 37.5805 3.44268 37.5301 3.47629C37.5603 3.48974 37.5839 3.50991 37.6007 3.53679C37.6141 3.56368 37.6242 3.5973 37.6309 3.64099C37.6343 3.68133 37.641 3.71158 37.6444 3.72838C37.6477 3.74519 37.6544 3.75864 37.6578 3.77208V3.78553L37.5402 3.79897C37.5402 3.79897 37.5234 3.73175 37.5133 3.65108C37.5099 3.61074 37.4965 3.58385 37.4797 3.57041C37.4628 3.5536 37.4326 3.55024 37.3923 3.5536L37.2713 3.56705V3.56705ZM37.2612 3.46621L37.3587 3.45613C37.399 3.45276 37.4292 3.43932 37.4528 3.42251C37.4763 3.40235 37.4864 3.38218 37.4864 3.35193C37.483 3.31495 37.4696 3.29143 37.4528 3.27798C37.4326 3.26454 37.399 3.26117 37.3519 3.26454L37.2444 3.27462L37.2645 3.46285L37.2612 3.46621Z" fill="#0C0C0C"/>
<path d="M19.5024 19.5401C19.3848 18.2763 19.0285 17.3687 18.3966 16.5789C17.8823 15.9469 17.2134 15.5133 16.3429 15.2747C16.9748 14.8814 17.489 14.3672 17.805 13.6949C18.2386 12.8647 18.3562 11.9975 18.2386 10.8917C18.0403 9.11695 17.4487 8.04808 16.1849 7.22122C15.0387 6.47167 13.264 6.19605 10.9347 6.43133L3.59375 7.22122L3.95004 10.4984L4.10802 10.5387C4.42397 10.5791 4.65926 10.6967 4.81723 10.8547C4.97521 11.053 5.05252 11.4463 5.13319 12.1588L6.04072 20.9215C6.11803 21.6308 6.11803 22.0274 6.00038 22.2627C5.92307 22.461 5.68443 22.619 5.36847 22.6963L5.2105 22.7366L5.56679 26.0911L13.2236 25.3415C14.7631 25.1836 15.9093 24.7096 16.6185 24.3534C17.526 23.9198 18.1982 23.3652 18.6722 22.6156L18.7495 22.498C19.0251 22.024 19.2638 21.6677 19.3411 20.9989C19.4184 20.2493 19.5394 20.1686 19.499 19.5367L19.5024 19.5401ZM9.94981 10.5421L11.133 10.4245C11.9632 10.3472 12.5144 10.4245 12.9077 10.6597C13.264 10.895 13.422 11.2917 13.4993 11.9236C13.5396 12.5958 13.3816 12.8714 13.143 13.147C12.827 13.463 12.2758 13.6613 11.4859 13.7386L10.3027 13.8563L9.94645 10.5421H9.94981ZM14.2522 20.7669C13.9362 21.1232 13.385 21.3585 12.5548 21.4392L11.1733 21.5972L10.7397 17.6107L12.0439 17.4528C12.8741 17.3755 13.506 17.4931 13.8992 17.7687C14.3328 18.0847 14.5312 18.5183 14.6085 19.2309C14.6891 19.9401 14.5681 20.377 14.2522 20.7703V20.7669Z" fill="#0C0C0C"/>
<path d="M18.1157 36.2776C17.9981 35.3297 17.7595 34.6978 17.2855 34.1062C16.8923 33.6323 16.4183 33.3163 15.8234 33.118C16.257 32.8424 16.6133 32.4458 16.8486 31.9718C17.1645 31.3399 17.2822 30.6677 17.2049 29.8408C17.0469 28.4997 16.6133 27.6291 15.6654 27.0376C14.8352 26.4863 13.6117 26.3283 11.7193 26.5233L5.79688 27.1552L6.07249 29.6425H6.23047C6.46576 29.6828 6.62374 29.7601 6.7044 29.8778C6.82205 30.0358 6.86238 30.3114 6.93969 30.8257L7.61193 37.3397C7.65227 37.854 7.65227 38.2069 7.5716 38.3649C7.49429 38.4825 7.37329 38.6002 7.138 38.6808L6.98002 38.7212L7.25564 41.3261L13.3731 40.6942C15.1881 40.4959 16.4923 40.0219 17.2015 39.3127C17.9914 38.5228 18.267 37.6557 18.109 36.2742L18.1157 36.2776ZM10.6169 29.6459L11.8 29.5282C12.3916 29.4879 12.7882 29.5282 13.0235 29.7265C13.2588 29.8845 13.4168 30.0828 13.4571 30.6341C13.4974 31.108 13.4168 31.3063 13.2218 31.5013C13.0235 31.6996 12.6302 31.8172 12.0387 31.8945L10.8555 32.0122L10.6202 29.6425L10.6169 29.6459ZM14.052 37.1851C13.8537 37.4607 13.4201 37.6187 12.8285 37.6187L11.4471 37.7767L11.1311 34.8961L12.4353 34.7784C13.0269 34.7381 13.5008 34.8188 13.7764 35.0137C14.0924 35.249 14.2503 35.565 14.2907 36.0792C14.368 36.5935 14.2907 36.9095 14.0554 37.1851H14.052Z" fill="#0C0C0C"/>
<path d="M56.2909 11.7441H55.5312V33.2559H56.2909V11.7441Z" fill="#8D8D8D"/>
<path d="M66.832 27.464V14.0098H71.5439C73.1755 14.0098 74.4139 14.323 75.2591 14.9475C76.1022 15.572 76.5248 16.4887 76.5248 17.6955C76.5248 18.3537 76.3545 18.9361 76.016 19.4365C75.6775 19.939 75.2065 20.3069 74.6031 20.5403C75.2927 20.7127 75.8373 21.0617 76.2347 21.5853C76.6321 22.1088 76.8297 22.7501 76.8297 23.507C76.8297 24.8001 76.4176 25.7799 75.5913 26.4443C74.765 27.1087 73.5897 27.4493 72.0611 27.4598H66.832V27.464ZM69.6032 19.6467H71.6553C73.0535 19.6215 73.7537 19.0643 73.7537 17.9752C73.7537 17.3654 73.577 16.926 73.2217 16.659C72.8664 16.3899 72.3092 16.2574 71.5439 16.2574H69.6032V19.6488V19.6467ZM69.6032 21.6063V25.2374H71.977C72.6309 25.2374 73.1397 25.0818 73.5056 24.7707C73.8714 24.4595 74.0543 24.0306 74.0543 23.4818C74.0543 22.2497 73.4172 21.6252 72.141 21.6063H69.6011H69.6032Z" fill="#8D8D8D"/>
<path d="M78.7148 14.8772C78.7148 14.4777 78.8494 14.1476 79.1164 13.889C79.3835 13.6304 79.7493 13.5 80.2119 13.5C80.6744 13.5 81.0319 13.6304 81.3031 13.889C81.5743 14.1476 81.7089 14.4777 81.7089 14.8772C81.7089 15.2767 81.5722 15.6173 81.2989 15.8759C81.0256 16.1345 80.6618 16.2649 80.214 16.2649C79.7661 16.2649 79.4024 16.1345 79.129 15.8759C78.8557 15.6173 78.719 15.2851 78.719 14.8772H78.7148ZM81.5512 27.461H78.8725V17.4654H81.5512V27.4631V27.461Z" fill="#8D8D8D"/>
<path d="M83.3633 22.3905C83.3633 20.8577 83.7291 19.6214 84.4587 18.6858C85.1883 17.7501 86.1723 17.2812 87.4107 17.2812C88.5061 17.2812 89.3598 17.6576 89.9695 18.4082L90.0809 17.4663H92.501V27.1296C92.501 28.0043 92.3033 28.7654 91.906 29.4109C91.5086 30.0585 90.9493 30.5505 90.2281 30.889C89.507 31.2275 88.6638 31.3978 87.6966 31.3978C86.9629 31.3978 86.2501 31.2506 85.5541 30.9584C84.8582 30.6661 84.3305 30.2877 83.9751 29.8272L85.1568 28.2019C85.8212 28.9462 86.6285 29.3205 87.5768 29.3205C88.2854 29.3205 88.8362 29.1313 89.2315 28.7528C89.6247 28.3743 89.8223 27.8361 89.8223 27.1401V26.604C89.2063 27.2999 88.3968 27.649 87.3918 27.649C86.1912 27.649 85.2198 27.1801 84.4776 26.2402C83.7354 25.3004 83.3654 24.0557 83.3654 22.504V22.3926L83.3633 22.3905ZM86.0335 22.5902C86.0335 23.4964 86.2143 24.2071 86.5781 24.7243C86.9418 25.2394 87.4401 25.4959 88.0751 25.4959C88.8888 25.4959 89.4712 25.1911 89.8223 24.5792V20.3699C89.4649 19.7602 88.8888 19.4532 88.094 19.4532C87.4528 19.4532 86.9502 19.716 86.5823 20.2395C86.2165 20.7631 86.0335 21.5473 86.0335 22.5902V22.5902Z" fill="#8D8D8D"/>
<path d="M94.7266 27.464V14.0098H99.4384C101.07 14.0098 102.308 14.323 103.154 14.9475C103.997 15.572 104.419 16.4887 104.419 17.6955C104.419 18.3537 104.249 18.9361 103.911 19.4365C103.572 19.939 103.101 20.3069 102.498 20.5403C103.187 20.7127 103.732 21.0617 104.129 21.5853C104.527 22.1088 104.724 22.7501 104.724 23.507C104.724 24.8001 104.312 25.7799 103.486 26.4443C102.66 27.1087 101.484 27.4493 99.9556 27.4598H94.7266V27.464ZM97.4977 19.6467H99.5498C100.948 19.6215 101.648 19.0643 101.648 17.9752C101.648 17.3654 101.472 16.926 101.116 16.659C100.763 16.3899 100.204 16.2574 99.4384 16.2574H97.4977V19.6488V19.6467ZM97.4977 21.6063V25.2374H99.8715C100.525 25.2374 101.034 25.0818 101.4 24.7707C101.766 24.4595 101.949 24.0306 101.949 23.4818C101.949 22.2497 101.312 21.6252 100.036 21.6063H97.4956H97.4977Z" fill="#8D8D8D"/>
<path d="M112.612 26.445C111.954 27.2461 111.041 27.6456 109.876 27.6456C108.804 27.6456 107.986 27.3386 107.423 26.7226C106.859 26.1065 106.571 25.2045 106.559 24.0145V17.4629H109.229V23.9283C109.229 24.9711 109.704 25.4905 110.652 25.4905C111.601 25.4905 112.181 25.1751 112.519 24.5464V17.465H115.198V27.4627H112.685L112.612 26.4471V26.445Z" fill="#8D8D8D"/>
<path d="M120.95 23.6821L122.798 17.4648H125.661L121.641 29.0142L121.42 29.5398C120.823 30.8455 119.837 31.4994 118.464 31.4994C118.075 31.4994 117.682 31.4405 117.283 31.3249V29.3022L117.688 29.3107C118.193 29.3107 118.572 29.2329 118.82 29.0794C119.07 28.9259 119.265 28.6694 119.406 28.3119L119.72 27.4898L116.219 17.4648H119.093L120.95 23.6821V23.6821Z" fill="#8D8D8D"/>
<path d="M141.81 25.8635C141.416 26.4249 140.798 26.8622 139.957 27.1755C139.116 27.4887 138.176 27.6464 137.133 27.6464C136.091 27.6464 135.144 27.3941 134.324 26.8895C133.504 26.3849 132.872 25.67 132.422 24.747C131.972 23.824 131.745 22.7643 131.738 21.5679V19.867C131.738 17.9999 132.209 16.526 133.151 15.4453C134.093 14.3646 135.359 13.8242 136.948 13.8242C138.334 13.8242 139.448 14.1774 140.294 14.8818C141.137 15.5862 141.639 16.5596 141.799 17.796H140.662C140.495 16.8077 140.094 16.0592 139.457 15.5483C138.82 15.0395 137.987 14.783 136.957 14.783C135.699 14.783 134.705 15.2308 133.973 16.1244C133.24 17.018 132.874 18.2795 132.874 19.9069V21.4965C132.874 22.5204 133.048 23.4245 133.395 24.2109C133.742 24.9972 134.242 25.6049 134.892 26.0359C135.542 26.4669 136.288 26.6835 137.133 26.6835C138.113 26.6835 138.954 26.53 139.657 26.2209C140.113 26.017 140.451 25.7815 140.672 25.5102V22.0368H137.06V21.0759H141.81V25.8614V25.8635Z" fill="#8D8D8D"/>
<path d="M149.395 18.4082C149.161 18.3641 148.911 18.343 148.646 18.343C147.957 18.343 147.372 18.5365 146.895 18.9212C146.418 19.306 146.077 19.8653 145.873 20.5991V27.4639H144.773V17.4663H145.854L145.873 19.0558C146.458 17.8742 147.397 17.2812 148.69 17.2812C148.997 17.2812 149.241 17.3212 149.42 17.4011L149.393 18.4082H149.395Z" fill="#8D8D8D"/>
<path d="M150.348 22.3169C150.348 21.356 150.535 20.4898 150.907 19.7202C151.279 18.9507 151.807 18.3515 152.486 17.9225C153.167 17.4957 153.939 17.2812 154.801 17.2812C156.132 17.2812 157.208 17.748 158.035 18.6816C158.861 19.6151 159.273 20.8514 159.273 22.3905V22.6217C159.273 23.5889 159.086 24.4594 158.714 25.231C158.342 26.0048 157.816 26.5998 157.139 27.0182C156.462 27.4366 155.688 27.6469 154.82 27.6469C153.495 27.6469 152.419 27.1801 151.59 26.2466C150.762 25.313 150.348 24.0767 150.348 22.5376V22.3169V22.3169ZM151.456 22.6217C151.456 23.816 151.765 24.7979 152.385 25.5653C153.003 26.3328 153.815 26.7154 154.82 26.7154C155.825 26.7154 156.626 26.3328 157.246 25.5653C157.864 24.7979 158.175 23.7866 158.175 22.5292V22.3169C158.175 21.5536 158.035 20.8535 157.751 20.2185C157.467 19.5836 157.07 19.0937 156.559 18.7446C156.048 18.3956 155.463 18.2232 154.803 18.2232C153.817 18.2232 153.014 18.6101 152.391 19.3817C151.769 20.1554 151.458 21.1668 151.458 22.4178V22.6217H151.456Z" fill="#8D8D8D"/>
<path d="M167.987 26.1968C167.323 27.1639 166.259 27.6475 164.8 27.6475C163.734 27.6475 162.924 27.3385 162.369 26.7182C161.814 26.1 161.532 25.1833 161.52 23.9702V17.4648H162.619V23.8314C162.619 25.7342 163.389 26.6867 164.93 26.6867C166.471 26.6867 167.545 26.0244 167.97 24.6997V17.4648H169.078V27.4625H168.006L167.987 26.1968V26.1968Z" fill="#8D8D8D"/>
<path d="M179.988 22.5671C179.988 24.1251 179.643 25.3614 178.953 26.276C178.264 27.1906 177.339 27.649 176.182 27.649C174.816 27.649 173.769 27.1675 173.041 26.2066V31.3074H171.941V17.4663H172.967L173.022 18.8792C173.743 17.8132 174.786 17.2812 176.155 17.2812C177.349 17.2812 178.287 17.7333 178.968 18.6395C179.649 19.5457 179.99 20.8009 179.99 22.4094V22.5671H179.988ZM178.88 22.3736C178.88 21.0995 178.617 20.0924 178.093 19.3523C177.57 18.6122 176.84 18.2442 175.905 18.2442C175.228 18.2442 174.645 18.4082 174.158 18.7341C173.672 19.06 173.298 19.5352 173.039 20.1575V24.9535C173.304 25.5254 173.682 25.9627 174.174 26.2655C174.666 26.5682 175.249 26.7175 175.922 26.7175C176.851 26.7175 177.576 26.3475 178.098 25.6053C178.619 24.8631 178.878 23.7866 178.878 22.3757L178.88 22.3736Z" fill="#8D8D8D"/>
</svg>
