<svg width="180" height="45" viewBox="0 0 180 45" fill="none" xmlns="http://www.w3.org/2000/svg">
<path fill-rule="evenodd" clip-rule="evenodd" d="M40.6976 0L0 4.26203L4.26203 45L44.9597 40.6976L40.6976 0ZM37.858 4.77707L38.4092 9.94663L38.4059 9.94999L33.6699 10.3433L33.6296 10.0273C33.5489 9.23741 33.354 8.72651 32.9977 8.37022C32.6817 8.05762 32.2078 7.89965 31.5759 7.97695C30.944 8.05426 30.47 8.29291 30.2348 8.72651C29.9591 9.20044 29.9188 9.83235 29.9995 10.7399L30.6314 16.8573C30.7524 17.8018 30.9473 18.3967 31.3036 18.79C31.6566 19.1463 32.1305 19.3009 32.8027 19.2236C33.9052 19.1026 34.7354 18.7497 35.0514 18.3934L34.8161 16.064L32.5675 16.2993L32.2112 12.7869L38.6849 12.1146L39.5924 20.5614L39.5151 20.6387C38.6479 21.3512 37.7 21.9428 36.6345 22.3764C35.606 22.8134 34.5002 23.247 33.317 23.3646C31.7776 23.5226 30.5541 23.3276 29.7642 23.1293C28.776 22.931 27.9861 22.4974 27.3945 21.8655L27.2769 21.7479L27.268 21.7389C26.8794 21.3504 26.6029 21.0739 26.3694 20.4067C26.1341 19.7379 25.9358 18.7093 25.7778 17.2102L25.1862 11.4088C25.0686 10.0273 25.0282 9.11977 25.0686 8.44752C25.1089 7.81562 25.2669 7.38202 25.5022 6.86775C25.8585 6.04089 26.4904 5.44596 27.5155 4.89472C28.4231 4.42078 29.6869 4.10483 31.2263 3.94685C32.2918 3.86954 33.3573 3.86954 34.4632 3.98719C35.569 4.10483 36.6749 4.38045 37.7404 4.73674L37.858 4.77707ZM18.5915 7.89628C18.603 7.95267 18.6142 8.00581 18.6253 8.05838L18.6253 8.05844C18.6532 8.19073 18.6803 8.3195 18.7092 8.48785L21.0385 18.5547L21.0788 18.7127L23.6434 18.4371L23.8417 8.01728V6.91144C23.7644 6.12156 23.4855 5.60729 22.9342 5.17369C22.4199 4.78043 21.7107 4.58212 20.9208 4.69976C20.0906 4.77707 19.499 5.09302 19.0655 5.60729C18.6319 6.15853 18.4739 6.71313 18.5512 7.50302L18.5915 7.77864V7.89628ZM20.3326 22.4201C20.2923 21.7512 20.4503 21.1597 20.8839 20.6454H20.8906C21.3242 20.1311 21.8754 19.8152 22.5073 19.8152C23.1762 19.7379 23.7678 19.8958 24.2821 20.3294C24.793 20.7227 25.0686 21.2739 25.1492 21.9462C25.2266 22.6151 25.0686 23.2066 24.635 23.7209C24.2384 24.2318 23.6871 24.5108 23.0149 24.5881C22.346 24.6284 21.7544 24.4705 21.2401 24.0369C20.6889 23.6033 20.4099 23.052 20.3326 22.4201ZM33.7103 38.5674L33.7095 38.5604L38.5235 38.0464L38.2479 35.4415H38.0899C37.8513 35.4415 37.6933 35.3608 37.616 35.2432C37.4984 35.0852 37.4211 34.8096 37.3807 34.3356L37.1824 32.5979L39.3941 26.9141C39.4176 26.867 39.4397 26.8214 39.4609 26.7776L39.4611 26.7772C39.5456 26.6024 39.616 26.4569 39.71 26.3628C39.7874 26.2452 39.868 26.1679 39.9857 26.1275L40.1033 26.0502L39.8277 23.5629L35.6833 23.9965L35.8816 25.7713V26.6788C35.8413 26.9174 35.8009 27.1527 35.7236 27.351L35.0917 28.8501L34.1842 27.509C34.0666 27.3107 33.9893 27.1124 33.9086 26.8771C33.8279 26.6418 33.7909 26.3662 33.7506 26.0099L33.5523 24.2352L29.2903 24.6284L29.5659 27.1157L29.7239 27.1561C29.7904 27.1894 29.8822 27.2501 29.9783 27.3138L30.0398 27.3544C30.1978 27.4754 30.3154 27.6334 30.4734 27.8687L33.8279 32.9609L34.0262 34.6987C34.0632 35.1726 34.0632 35.4885 33.9859 35.6465C33.9489 35.7642 33.7909 35.8818 33.5926 35.9221L33.4347 35.9625L33.7095 38.5604L33.7069 38.5607L33.7103 38.5674ZM25.1829 36.1574C25.0249 36.4734 24.7896 36.6313 24.3157 36.6717V36.665L24.198 36.7423C23.7241 36.8196 23.4854 36.7019 23.2502 36.4263C23.0115 36.1104 22.8535 35.6768 22.7762 35.0045L22.1847 29.519C22.1477 28.9644 22.1477 28.6115 22.225 28.4132C22.3023 28.2149 22.4233 28.0972 22.6586 27.9796L22.7762 27.9023L22.5409 25.6536L17.2134 25.9696L17.489 28.4165L17.647 28.4569C17.963 28.4972 18.1579 28.6148 18.2386 28.7325C18.3562 28.8905 18.4335 29.1291 18.4739 29.5627L19.0654 35.2869C19.2638 37.1019 19.7377 38.1674 20.6452 38.9573C21.5124 39.6699 22.8166 39.9858 24.6316 39.7875C26.4467 39.5926 27.6702 39.038 28.3424 38.1305C29.0516 37.1826 29.2903 36.0364 29.092 34.2214L28.5004 28.4972C28.4601 28.0233 28.4601 27.788 28.5407 27.63C28.6214 27.5124 28.7794 27.3544 29.055 27.2367L29.1726 27.1561L28.897 24.7091L23.6065 25.499L23.8417 27.7476L23.9997 27.788C24.2384 27.8283 24.3963 27.946 24.514 28.1039C24.6316 28.3022 24.7123 28.6182 24.7896 29.2098L25.3408 34.6583C25.4181 35.3675 25.3812 35.8011 25.1829 36.1574ZM36.8698 3.2578C36.8295 3.35192 36.8194 3.44939 36.8295 3.55359L36.8228 3.55023C36.8362 3.65443 36.8698 3.74854 36.927 3.83257C36.9875 3.9166 37.0581 3.98047 37.1488 4.0208C37.2396 4.06114 37.3337 4.07794 37.4311 4.06786C37.5286 4.05777 37.6194 4.02416 37.6967 3.96366C37.7774 3.90652 37.8345 3.82921 37.8748 3.7351C37.9152 3.64434 37.9286 3.54351 37.9185 3.43931C37.9084 3.33847 37.8748 3.24436 37.8177 3.16033C37.7605 3.0763 37.6866 3.01243 37.5958 2.9721C37.5051 2.9284 37.411 2.91496 37.3135 2.92504C37.216 2.93513 37.1286 2.96874 37.048 3.02924C36.9673 3.08638 36.9068 3.16369 36.8698 3.2578ZM37.0043 3.77207C36.9606 3.70485 36.9337 3.62754 36.9236 3.54351V3.54687C36.9135 3.45948 36.9236 3.37545 36.9572 3.29814C36.9875 3.22083 37.0379 3.15697 37.1017 3.10655C37.1656 3.05613 37.2396 3.02924 37.3202 3.01916C37.4043 3.00907 37.4849 3.02252 37.5589 3.05949C37.6328 3.09647 37.6933 3.15024 37.7404 3.21747C37.7874 3.28469 37.8143 3.362 37.8244 3.44603C37.8311 3.53006 37.821 3.61073 37.7908 3.68804C37.7605 3.76535 37.7101 3.82921 37.6463 3.87963C37.5824 3.93341 37.5085 3.9603 37.4244 3.97038C37.3404 3.98047 37.2597 3.96702 37.1858 3.93005C37.1118 3.89307 37.0513 3.84266 37.0043 3.77207ZM37.2967 3.82585L37.2698 3.56704L37.3908 3.55359C37.4311 3.55023 37.4614 3.55359 37.4782 3.5704C37.495 3.58384 37.5085 3.61073 37.5118 3.65107C37.5219 3.73174 37.5387 3.79896 37.5387 3.79896L37.6563 3.78552V3.77207C37.6549 3.76636 37.6529 3.76066 37.6508 3.75469C37.6479 3.74661 37.6448 3.73805 37.6429 3.72837L37.6418 3.72274C37.6382 3.70521 37.6325 3.67715 37.6295 3.64098C37.6227 3.59729 37.6127 3.56367 37.5992 3.53679C37.5824 3.5099 37.5589 3.48973 37.5286 3.47628C37.579 3.44267 37.6026 3.39561 37.5958 3.33847C37.5891 3.27461 37.5622 3.22755 37.5152 3.1973C37.4681 3.16369 37.4043 3.15361 37.327 3.16369L37.1118 3.18722L37.1824 3.83929L37.2967 3.82585ZM37.3572 3.45612L37.2597 3.4662L37.2631 3.46284L37.2429 3.27461L37.3505 3.26453C37.3975 3.26117 37.4311 3.26453 37.4513 3.27797C37.4681 3.29142 37.4816 3.31494 37.4849 3.35192C37.4849 3.38217 37.4748 3.40234 37.4513 3.4225C37.4278 3.43931 37.3975 3.45275 37.3572 3.45612ZM19.5024 19.5396C19.3848 18.2757 19.0285 17.3682 18.3966 16.5783C17.8823 15.9464 17.2134 15.5128 16.3429 15.2742C16.9748 14.8809 17.489 14.3666 17.805 13.6944C18.2386 12.8642 18.3562 11.997 18.2386 10.8911C18.0403 9.11641 17.4487 8.04754 16.1849 7.22068C15.0387 6.47113 13.264 6.19551 10.9347 6.4308L3.59375 7.22068L3.95004 10.4979L4.10802 10.5382C4.42397 10.5785 4.65926 10.6962 4.81724 10.8542C4.97521 11.0525 5.05252 11.4457 5.13319 12.1583L6.04072 20.921C6.11803 21.6302 6.11803 22.0269 6.00039 22.2621C5.92308 22.4605 5.68443 22.6184 5.36848 22.6957L5.2105 22.7361L5.56679 26.0906L13.2236 25.341C14.7631 25.183 15.9093 24.7091 16.6185 24.3528C17.526 23.9192 18.1982 23.3646 18.6722 22.6151L18.7495 22.4974C18.773 22.457 18.7962 22.4175 18.819 22.3786C19.0646 21.9605 19.2703 21.6102 19.3411 20.9983C19.3714 20.704 19.4085 20.5128 19.4399 20.3509L19.4399 20.3509C19.4885 20.1004 19.5235 19.92 19.499 19.5362L19.5024 19.5396ZM9.94982 10.5416L11.133 10.4239C11.9632 10.3466 12.5144 10.4239 12.9077 10.6592C13.264 10.8945 13.422 11.2911 13.4993 11.923C13.5396 12.5953 13.3816 12.8709 13.143 13.1465C12.827 13.4625 12.2758 13.6608 11.4859 13.7381L10.3027 13.8557L9.94646 10.5416H9.94982ZM14.2522 20.7664C13.9362 21.1227 13.385 21.358 12.5548 21.4386L11.1733 21.5966L10.7397 17.6102L12.0439 17.4522C12.8741 17.3749 13.506 17.4926 13.8992 17.7682C14.3328 18.0841 14.5312 18.5177 14.6085 19.2303C14.6891 19.9395 14.5681 20.3765 14.2522 20.7698V20.7664ZM17.2874 34.1071C17.7613 34.6987 17.9999 35.3306 18.1176 36.2784L18.1109 36.2751C18.2688 37.6565 17.9932 38.5237 17.2033 39.3136C16.4941 40.0228 15.19 40.4968 13.3749 40.6951L7.25748 41.327L6.98186 38.722L7.13983 38.6817C7.37512 38.601 7.49612 38.4834 7.57343 38.3657C7.6541 38.2078 7.6541 37.8548 7.61377 37.3406L6.94152 30.8265L6.93887 30.8089C6.86328 30.3059 6.82253 30.0348 6.70624 29.8787C6.62557 29.761 6.46759 29.6837 6.23231 29.6434H6.07433L5.79871 27.1561L11.7212 26.5242C13.6135 26.3292 14.837 26.4872 15.6672 27.0384C16.6151 27.63 17.0487 28.5006 17.2067 29.8417C17.284 30.6686 17.1664 31.3408 16.8504 31.9727C16.6151 32.4466 16.2588 32.8433 15.8252 33.1189C16.4202 33.3172 16.8941 33.6331 17.2874 34.1071ZM10.6224 29.6464L10.8573 32.013L12.0405 31.8954C12.6321 31.8181 13.0253 31.7004 13.2236 31.5021C13.4186 31.3072 13.4993 31.1089 13.4589 30.6349C13.4186 30.0837 13.2606 29.8854 13.0253 29.7274C12.79 29.5291 12.3934 29.4888 11.8018 29.5291L10.6224 29.6464ZM12.8304 37.6196C13.422 37.6196 13.8556 37.4616 14.0539 37.186H14.0572C14.2925 36.9103 14.3698 36.5944 14.2925 36.0801C14.2522 35.5658 14.0942 35.2499 13.7782 35.0146C13.5026 34.8197 13.0287 34.739 12.4371 34.7793L11.133 34.897L11.4489 37.7775L12.8304 37.6196Z" fill="#A3A3A3"/>
<path d="M56.2909 11.7441H55.5312V33.2559H56.2909V11.7441Z" fill="#A3A3A3"/>
<path d="M66.832 27.464V14.0098H71.5439C73.1755 14.0098 74.4139 14.323 75.2591 14.9475C76.1022 15.572 76.5248 16.4887 76.5248 17.6955C76.5248 18.3537 76.3545 18.9361 76.016 19.4365C75.6775 19.939 75.2065 20.3069 74.6031 20.5403C75.2927 20.7127 75.8373 21.0617 76.2347 21.5853C76.6321 22.1088 76.8297 22.7501 76.8297 23.507C76.8297 24.8001 76.4176 25.7799 75.5913 26.4443C74.765 27.1087 73.5897 27.4493 72.0611 27.4598H66.832V27.464ZM69.6032 19.6467H71.6553C73.0535 19.6215 73.7537 19.0643 73.7537 17.9752C73.7537 17.3654 73.577 16.926 73.2217 16.659C72.8664 16.3899 72.3092 16.2574 71.5439 16.2574H69.6032V19.6488V19.6467ZM69.6032 21.6063V25.2374H71.977C72.6309 25.2374 73.1397 25.0818 73.5056 24.7707C73.8714 24.4595 74.0543 24.0306 74.0543 23.4818C74.0543 22.2497 73.4172 21.6252 72.141 21.6063H69.6011H69.6032Z" fill="#A3A3A3"/>
<path d="M78.7148 14.8772C78.7148 14.4777 78.8494 14.1476 79.1164 13.889C79.3835 13.6304 79.7493 13.5 80.2119 13.5C80.6744 13.5 81.0319 13.6304 81.3031 13.889C81.5743 14.1476 81.7089 14.4777 81.7089 14.8772C81.7089 15.2767 81.5722 15.6173 81.2989 15.8759C81.0256 16.1345 80.6618 16.2649 80.214 16.2649C79.7661 16.2649 79.4024 16.1345 79.129 15.8759C78.8557 15.6173 78.719 15.2851 78.719 14.8772H78.7148ZM81.5512 27.461H78.8725V17.4654H81.5512V27.4631V27.461Z" fill="#A3A3A3"/>
<path d="M83.3633 22.3905C83.3633 20.8577 83.7291 19.6214 84.4587 18.6858C85.1883 17.7501 86.1723 17.2812 87.4107 17.2812C88.5061 17.2812 89.3598 17.6576 89.9695 18.4082L90.0809 17.4663H92.501V27.1296C92.501 28.0043 92.3033 28.7654 91.906 29.4109C91.5086 30.0585 90.9493 30.5505 90.2281 30.889C89.507 31.2275 88.6638 31.3978 87.6966 31.3978C86.9629 31.3978 86.2501 31.2506 85.5541 30.9584C84.8582 30.6661 84.3305 30.2877 83.9751 29.8272L85.1568 28.2019C85.8212 28.9462 86.6285 29.3205 87.5768 29.3205C88.2854 29.3205 88.8362 29.1313 89.2315 28.7528C89.6247 28.3743 89.8223 27.8361 89.8223 27.1401V26.604C89.2063 27.2999 88.3968 27.649 87.3918 27.649C86.1912 27.649 85.2198 27.1801 84.4776 26.2402C83.7354 25.3004 83.3654 24.0557 83.3654 22.504V22.3926L83.3633 22.3905ZM86.0335 22.5902C86.0335 23.4964 86.2143 24.2071 86.5781 24.7243C86.9418 25.2394 87.4401 25.4959 88.0751 25.4959C88.8888 25.4959 89.4712 25.1911 89.8223 24.5792V20.3699C89.4649 19.7602 88.8888 19.4532 88.094 19.4532C87.4528 19.4532 86.9502 19.716 86.5823 20.2395C86.2165 20.7631 86.0335 21.5473 86.0335 22.5902V22.5902Z" fill="#A3A3A3"/>
<path d="M94.7266 27.464V14.0098H99.4384C101.07 14.0098 102.308 14.323 103.154 14.9475C103.997 15.572 104.419 16.4887 104.419 17.6955C104.419 18.3537 104.249 18.9361 103.911 19.4365C103.572 19.939 103.101 20.3069 102.498 20.5403C103.187 20.7127 103.732 21.0617 104.129 21.5853C104.527 22.1088 104.724 22.7501 104.724 23.507C104.724 24.8001 104.312 25.7799 103.486 26.4443C102.66 27.1087 101.484 27.4493 99.9556 27.4598H94.7266V27.464ZM97.4977 19.6467H99.5498C100.948 19.6215 101.648 19.0643 101.648 17.9752C101.648 17.3654 101.472 16.926 101.116 16.659C100.763 16.3899 100.204 16.2574 99.4384 16.2574H97.4977V19.6488V19.6467ZM97.4977 21.6063V25.2374H99.8715C100.525 25.2374 101.034 25.0818 101.4 24.7707C101.766 24.4595 101.949 24.0306 101.949 23.4818C101.949 22.2497 101.312 21.6252 100.036 21.6063H97.4956H97.4977Z" fill="#A3A3A3"/>
<path d="M112.612 26.445C111.954 27.2461 111.041 27.6456 109.876 27.6456C108.804 27.6456 107.986 27.3386 107.423 26.7226C106.859 26.1065 106.571 25.2045 106.559 24.0145V17.4629H109.229V23.9283C109.229 24.9711 109.704 25.4905 110.652 25.4905C111.601 25.4905 112.181 25.1751 112.519 24.5464V17.465H115.198V27.4627H112.685L112.612 26.4471V26.445Z" fill="#A3A3A3"/>
<path d="M120.95 23.6821L122.798 17.4648H125.661L121.641 29.0142L121.42 29.5398C120.823 30.8455 119.837 31.4994 118.464 31.4994C118.075 31.4994 117.682 31.4405 117.283 31.3249V29.3022L117.688 29.3107C118.193 29.3107 118.572 29.2329 118.82 29.0794C119.07 28.9259 119.265 28.6694 119.406 28.3119L119.72 27.4898L116.219 17.4648H119.093L120.95 23.6821V23.6821Z" fill="#A3A3A3"/>
<path d="M141.81 25.8635C141.416 26.4249 140.798 26.8622 139.957 27.1755C139.116 27.4887 138.176 27.6464 137.133 27.6464C136.091 27.6464 135.144 27.3941 134.324 26.8895C133.504 26.3849 132.872 25.67 132.422 24.747C131.972 23.824 131.745 22.7643 131.738 21.5679V19.867C131.738 17.9999 132.209 16.526 133.151 15.4453C134.093 14.3646 135.359 13.8242 136.948 13.8242C138.334 13.8242 139.448 14.1774 140.294 14.8818C141.137 15.5862 141.639 16.5596 141.799 17.796H140.662C140.495 16.8077 140.094 16.0592 139.457 15.5483C138.82 15.0395 137.987 14.783 136.957 14.783C135.699 14.783 134.705 15.2308 133.973 16.1244C133.24 17.018 132.874 18.2795 132.874 19.9069V21.4965C132.874 22.5204 133.048 23.4245 133.395 24.2109C133.742 24.9972 134.242 25.6049 134.892 26.0359C135.542 26.4669 136.288 26.6835 137.133 26.6835C138.113 26.6835 138.954 26.53 139.657 26.2209C140.113 26.017 140.451 25.7815 140.672 25.5102V22.0368H137.06V21.0759H141.81V25.8614V25.8635Z" fill="#A3A3A3"/>
<path d="M149.395 18.4082C149.161 18.3641 148.911 18.343 148.646 18.343C147.957 18.343 147.372 18.5365 146.895 18.9212C146.418 19.306 146.077 19.8653 145.873 20.5991V27.4639H144.773V17.4663H145.854L145.873 19.0558C146.458 17.8742 147.397 17.2812 148.69 17.2812C148.997 17.2812 149.241 17.3212 149.42 17.4011L149.393 18.4082H149.395Z" fill="#A3A3A3"/>
<path d="M150.348 22.3169C150.348 21.356 150.535 20.4898 150.907 19.7202C151.279 18.9507 151.807 18.3515 152.486 17.9225C153.167 17.4957 153.939 17.2812 154.801 17.2812C156.132 17.2812 157.208 17.748 158.035 18.6816C158.861 19.6151 159.273 20.8514 159.273 22.3905V22.6217C159.273 23.5889 159.086 24.4594 158.714 25.231C158.342 26.0048 157.816 26.5998 157.139 27.0182C156.462 27.4366 155.688 27.6469 154.82 27.6469C153.495 27.6469 152.419 27.1801 151.59 26.2466C150.762 25.313 150.348 24.0767 150.348 22.5376V22.3169V22.3169ZM151.456 22.6217C151.456 23.816 151.765 24.7979 152.385 25.5653C153.003 26.3328 153.815 26.7154 154.82 26.7154C155.825 26.7154 156.626 26.3328 157.246 25.5653C157.864 24.7979 158.175 23.7866 158.175 22.5292V22.3169C158.175 21.5536 158.035 20.8535 157.751 20.2185C157.467 19.5836 157.07 19.0937 156.559 18.7446C156.048 18.3956 155.463 18.2232 154.803 18.2232C153.817 18.2232 153.014 18.6101 152.391 19.3817C151.769 20.1554 151.458 21.1668 151.458 22.4178V22.6217H151.456Z" fill="#A3A3A3"/>
<path d="M167.987 26.1968C167.323 27.1639 166.259 27.6475 164.8 27.6475C163.734 27.6475 162.924 27.3385 162.369 26.7182C161.814 26.1 161.532 25.1833 161.52 23.9702V17.4648H162.619V23.8314C162.619 25.7342 163.389 26.6867 164.93 26.6867C166.471 26.6867 167.545 26.0244 167.97 24.6997V17.4648H169.078V27.4625H168.006L167.987 26.1968V26.1968Z" fill="#A3A3A3"/>
<path d="M179.988 22.5671C179.988 24.1251 179.643 25.3614 178.953 26.276C178.264 27.1906 177.339 27.649 176.182 27.649C174.816 27.649 173.769 27.1675 173.041 26.2066V31.3074H171.941V17.4663H172.967L173.022 18.8792C173.743 17.8132 174.786 17.2812 176.155 17.2812C177.349 17.2812 178.287 17.7333 178.968 18.6395C179.649 19.5457 179.99 20.8009 179.99 22.4094V22.5671H179.988ZM178.88 22.3736C178.88 21.0995 178.617 20.0924 178.093 19.3523C177.57 18.6122 176.84 18.2442 175.905 18.2442C175.228 18.2442 174.645 18.4082 174.158 18.7341C173.672 19.06 173.298 19.5352 173.039 20.1575V24.9535C173.304 25.5254 173.682 25.9627 174.174 26.2655C174.666 26.5682 175.249 26.7175 175.922 26.7175C176.851 26.7175 177.576 26.3475 178.098 25.6053C178.619 24.8631 178.878 23.7866 178.878 22.3757L178.88 22.3736Z" fill="#A3A3A3"/>
</svg>
