<svg width="211" height="45" viewBox="0 0 211 45" fill="none" xmlns="http://www.w3.org/2000/svg">
<path fill-rule="evenodd" clip-rule="evenodd" d="M55.6976 0L15 4.26203L19.262 45L59.9597 40.6976L55.6976 0ZM52.8593 4.77653L53.4105 9.94608L53.4072 9.94944L48.6712 10.3427L48.6309 10.0268C48.5502 9.23686 48.3553 8.72596 47.999 8.36967C47.683 8.05708 47.2091 7.8991 46.5772 7.97641C45.9453 8.05371 45.4713 8.29236 45.2361 8.72596C44.9604 9.19989 44.9201 9.8318 45.0008 10.7393L45.6327 16.8567C45.7537 17.8013 45.9486 18.3962 46.3049 18.7894C46.6579 19.1457 47.1318 19.3004 47.804 19.223C48.9065 19.102 49.7367 18.7491 50.0527 18.3928L49.8174 16.0635L47.5687 16.2988L47.2125 12.7863L53.6862 12.1141L54.5937 20.5608L54.5164 20.6381C53.6492 21.3507 52.7013 21.9423 51.6358 22.3759C50.6073 22.8128 49.5014 23.2464 48.3183 23.3641C46.7789 23.522 45.5554 23.3271 44.7655 23.1288C43.7773 22.9305 42.9874 22.4969 42.3958 21.865L42.2782 21.7473L42.2692 21.7384C41.8807 21.3498 41.6042 21.0733 41.3707 20.4062C41.1354 19.7373 40.9371 18.7088 40.7791 17.2097L40.1875 11.4082C40.0699 10.0268 40.0295 9.11922 40.0699 8.44698C40.1102 7.81507 40.2682 7.38147 40.5035 6.8672C40.8598 6.04034 41.4917 5.44541 42.5168 4.89417C43.4244 4.42024 44.6882 4.10428 46.2276 3.94631C47.2931 3.869 48.3586 3.869 49.4645 3.98664C50.5703 4.10428 51.6762 4.3799 52.7417 4.73619L52.8593 4.77653ZM33.6241 8.0579L33.6242 8.05832L33.6242 8.05837C33.6521 8.19066 33.6792 8.31943 33.7081 8.48779L36.0374 18.5546L36.0778 18.7126L38.6424 18.437L38.8407 8.01722V6.91138C38.7634 6.12149 38.4844 5.60722 37.9332 5.17363C37.4189 4.78036 36.7097 4.58205 35.9198 4.69969C35.0896 4.777 34.498 5.09296 34.0644 5.60722C33.6308 6.15846 33.4728 6.71306 33.5501 7.50295L33.5905 7.77857V7.89621C33.6018 7.95184 33.6128 8.00429 33.6238 8.05616L33.6239 8.05696L33.6241 8.0579ZM35.3342 22.4207C35.2939 21.7518 35.4518 21.1602 35.8854 20.646H35.8922C36.3258 20.1317 36.877 19.8158 37.5089 19.8158C38.1778 19.7384 38.7694 19.8964 39.2836 20.33C39.7945 20.7233 40.0702 21.2745 40.1508 21.9468C40.2281 22.6156 40.0702 23.2072 39.6366 23.7215C39.2399 24.2324 38.6887 24.5114 38.0165 24.5887C37.3476 24.629 36.756 24.471 36.2417 24.0374C35.6905 23.6038 35.4115 23.0526 35.3342 22.4207ZM48.7091 38.567L48.7083 38.56L53.5223 38.046L53.2467 35.441H53.0887C52.8501 35.441 52.6921 35.3604 52.6148 35.2427C52.4972 35.0848 52.4199 34.8091 52.3795 34.3352L52.1812 32.5975L54.3929 26.9136C54.416 26.8673 54.4378 26.8225 54.4586 26.7794L54.4593 26.778L54.4597 26.7772L54.4599 26.7768C54.5444 26.602 54.6148 26.4564 54.7088 26.3624C54.7861 26.2448 54.8668 26.1674 54.9845 26.1271L55.1021 26.0498L54.8265 23.5625L50.6821 23.9961L50.8804 25.7708V26.6784C50.8401 26.917 50.7997 27.1523 50.7224 27.3506L50.0905 28.8497L49.183 27.5086C49.0654 27.3103 48.988 27.1119 48.9074 26.8767C48.8267 26.6414 48.7897 26.3658 48.7494 26.0095L48.5511 24.2347L44.2891 24.628L44.5647 27.1153L44.7227 27.1556C44.7892 27.1889 44.881 27.2497 44.9771 27.3133L45.0386 27.354C45.1966 27.475 45.3142 27.6329 45.4722 27.8682L48.8267 32.9605L49.025 34.6982C49.062 35.1722 49.062 35.4881 48.9847 35.6461C48.9477 35.7637 48.7897 35.8814 48.5914 35.9217L48.4334 35.962L48.7083 38.56L48.7057 38.5603L48.7091 38.567ZM40.1843 36.1573C40.0263 36.4733 39.791 36.6312 39.3171 36.6716V36.6648L39.1995 36.7421C38.7255 36.8195 38.4869 36.7018 38.2516 36.4262C38.0129 36.1102 37.855 35.6766 37.7777 35.0044L37.1861 29.5189C37.1491 28.9643 37.1491 28.6114 37.2264 28.413C37.3037 28.2147 37.4247 28.0971 37.66 27.9794L37.7777 27.9021L37.5424 25.6535L32.2148 25.9694L32.4905 28.4164L32.6484 28.4567C32.9644 28.4971 33.1593 28.6147 33.24 28.7324C33.3577 28.8903 33.435 29.129 33.4753 29.5626L34.0669 35.2867C34.2652 37.1018 34.7391 38.1673 35.6466 38.9572C36.5138 39.6698 37.818 39.9857 39.6331 39.7874C41.4481 39.5925 42.6716 39.0379 43.3438 38.1303C44.0531 37.1825 44.2917 36.0363 44.0934 34.2212L43.5018 28.4971C43.4615 28.0231 43.4615 27.7879 43.5422 27.6299C43.6228 27.5122 43.7808 27.3543 44.0564 27.2366L44.1741 27.156L43.8984 24.709L38.6079 25.4989L38.8432 27.7475L39.0011 27.7879C39.2398 27.8282 39.3978 27.9458 39.5154 28.1038C39.6331 28.3021 39.7137 28.6181 39.791 29.2097L40.3423 34.6582C40.4196 35.3674 40.3826 35.801 40.1843 36.1573ZM51.8713 3.25781C51.8309 3.35193 51.8209 3.4494 51.8309 3.5536L51.8242 3.55024C51.8377 3.65444 51.8713 3.74855 51.9284 3.83258C51.9889 3.91661 52.0595 3.98048 52.1503 4.02081C52.241 4.06114 52.3351 4.07795 52.4326 4.06787C52.5301 4.05778 52.6208 4.02417 52.6981 3.96367C52.7788 3.90653 52.8359 3.82922 52.8763 3.73511C52.9166 3.64435 52.9301 3.54352 52.92 3.43932C52.9099 3.33848 52.8763 3.24437 52.8191 3.16034C52.762 3.07631 52.688 3.01244 52.5973 2.97211C52.5065 2.92841 52.4124 2.91497 52.315 2.92505C52.2175 2.93514 52.1301 2.96875 52.0494 3.02925C51.9688 3.08639 51.9082 3.1637 51.8713 3.25781ZM52.0057 3.77208C51.962 3.70486 51.9351 3.62755 51.9251 3.54352V3.54688C51.915 3.45949 51.9251 3.37546 51.9587 3.29815C51.9889 3.22084 52.0393 3.15698 52.1032 3.10656C52.1671 3.05614 52.241 3.02925 52.3217 3.01917C52.4057 3.00908 52.4864 3.02253 52.5603 3.0595C52.6343 3.09648 52.6948 3.15025 52.7418 3.21748C52.7889 3.2847 52.8158 3.36201 52.8259 3.44604C52.8326 3.53007 52.8225 3.61074 52.7922 3.68805C52.762 3.76536 52.7116 3.82922 52.6477 3.87964C52.5839 3.93342 52.5099 3.96031 52.4259 3.97039C52.3418 3.98048 52.2612 3.96703 52.1872 3.93006C52.1133 3.89308 52.0528 3.84267 52.0057 3.77208ZM52.2981 3.82586L52.2713 3.56705L52.3923 3.5536C52.4326 3.55024 52.4628 3.5536 52.4797 3.57041C52.4965 3.58385 52.5099 3.61074 52.5133 3.65108C52.5233 3.73175 52.5402 3.79897 52.5402 3.79897L52.6578 3.78553V3.77208C52.6564 3.76641 52.6544 3.76074 52.6523 3.75481L52.6522 3.7547C52.6493 3.74662 52.6463 3.73806 52.6444 3.72838L52.6432 3.72275C52.6396 3.70522 52.6339 3.67716 52.6309 3.64099C52.6242 3.5973 52.6141 3.56368 52.6007 3.53679C52.5839 3.50991 52.5603 3.48974 52.5301 3.47629C52.5805 3.44268 52.604 3.39562 52.5973 3.33848C52.5906 3.27462 52.5637 3.22756 52.5166 3.19731C52.4696 3.1637 52.4057 3.15362 52.3284 3.1637L52.1133 3.18723L52.1839 3.8393L52.2981 3.82586ZM52.3587 3.45613L52.2612 3.46621L52.2645 3.46285L52.2444 3.27462L52.3519 3.26454C52.399 3.26117 52.4326 3.26454 52.4528 3.27798C52.4696 3.29143 52.483 3.31495 52.4864 3.35193C52.4864 3.38218 52.4763 3.40235 52.4528 3.42251C52.4292 3.43932 52.399 3.45276 52.3587 3.45613ZM34.5024 19.5401C34.3848 18.2763 34.0285 17.3687 33.3966 16.5789C32.8823 15.9469 32.2134 15.5133 31.3429 15.2747C31.9748 14.8814 32.489 14.3672 32.805 13.6949C33.2386 12.8647 33.3562 11.9975 33.2386 10.8917C33.0403 9.11695 32.4487 8.04808 31.1849 7.22122C30.0387 6.47167 28.264 6.19605 25.9347 6.43133L18.5938 7.22122L18.95 10.4984L19.108 10.5387C19.424 10.5791 19.6593 10.6967 19.8172 10.8547C19.9752 11.053 20.0525 11.4463 20.1332 12.1588L21.0407 20.9215C21.118 21.6308 21.118 22.0274 21.0004 22.2627C20.9231 22.461 20.6844 22.619 20.3685 22.6963L20.2105 22.7366L20.5668 26.0911L28.2236 25.3416C29.7631 25.1836 30.9093 24.7096 31.6185 24.3534C32.526 23.9198 33.1982 23.3652 33.6722 22.6156L33.7495 22.498C33.773 22.4576 33.7962 22.4181 33.819 22.3791C34.0646 21.9611 34.2703 21.6108 34.3411 20.9989C34.3714 20.7045 34.4085 20.5133 34.4399 20.3514C34.4885 20.1009 34.5235 19.9205 34.499 19.5367L34.5024 19.5401ZM24.9498 10.5421L26.133 10.4245C26.9632 10.3472 27.5144 10.4245 27.9077 10.6597C28.264 10.895 28.422 11.2917 28.4993 11.9236C28.5396 12.5958 28.3816 12.8714 28.143 13.147C27.827 13.463 27.2758 13.6613 26.4859 13.7386L25.3027 13.8563L24.9465 10.5421H24.9498ZM29.2522 20.7669C28.9362 21.1232 28.385 21.3585 27.5548 21.4392L26.1733 21.5972L25.7397 17.6107L27.0439 17.4528C27.8741 17.3755 28.506 17.4931 28.8992 17.7687C29.3328 18.0847 29.5312 18.5183 29.6085 19.2309C29.6891 19.9401 29.5681 20.377 29.2522 20.7703V20.7669ZM32.2855 34.1062C32.7595 34.6978 32.9981 35.3297 33.1157 36.2775L33.109 36.2742C33.267 37.6557 32.9914 38.5228 32.2015 39.3127C31.4923 40.0219 30.1881 40.4959 28.3731 40.6942L22.2556 41.3261L21.98 38.7212L22.138 38.6808C22.3733 38.6002 22.4943 38.4825 22.5716 38.3649C22.6523 38.2069 22.6523 37.854 22.6119 37.3397L21.9397 30.8257L21.937 30.808C21.8614 30.3051 21.8207 30.034 21.7044 29.8778C21.6237 29.7601 21.4658 29.6828 21.2305 29.6425H21.0725L20.7969 27.1552L26.7193 26.5233C28.6117 26.3283 29.8352 26.4863 30.6654 27.0376C31.6133 27.6291 32.0469 28.4997 32.2049 29.8408C32.2822 30.6677 32.1645 31.3399 31.8486 31.9718C31.6133 32.4458 31.257 32.8424 30.8234 33.118C31.4183 33.3163 31.8923 33.6323 32.2855 34.1062ZM25.6205 29.6455L25.8555 32.0122L27.0387 31.8945C27.6302 31.8172 28.0235 31.6996 28.2218 31.5013C28.4168 31.3063 28.4974 31.108 28.4571 30.6341C28.4168 30.0828 28.2588 29.8845 28.0235 29.7265C27.7882 29.5282 27.3916 29.4879 26.8 29.5282L25.6205 29.6455ZM27.8285 37.6187C28.4201 37.6187 28.8537 37.4607 29.052 37.1851H29.0554C29.2907 36.9095 29.368 36.5935 29.2907 36.0792C29.2503 35.565 29.0924 35.249 28.7764 35.0137C28.5008 34.8188 28.0269 34.7381 27.4353 34.7784L26.1311 34.8961L26.4471 37.7767L27.8285 37.6187Z" fill="#A3A3A3"/>
<path d="M71.2909 11.7441H70.5312V33.2559H71.2909V11.7441Z" fill="#A3A3A3"/>
<path d="M81.832 27.464V14.0098H86.5439C88.1755 14.0098 89.4139 14.323 90.2591 14.9475C91.1022 15.572 91.5248 16.4887 91.5248 17.6955C91.5248 18.3537 91.3545 18.9361 91.016 19.4365C90.6775 19.939 90.2065 20.3069 89.6031 20.5403C90.2927 20.7127 90.8373 21.0617 91.2347 21.5853C91.6321 22.1088 91.8297 22.7501 91.8297 23.507C91.8297 24.8001 91.4176 25.7799 90.5913 26.4443C89.765 27.1087 88.5897 27.4493 87.0611 27.4598H81.832V27.464ZM84.6032 19.6467H86.6553C88.0535 19.6215 88.7537 19.0643 88.7537 17.9752C88.7537 17.3654 88.577 16.926 88.2217 16.659C87.8664 16.3899 87.3092 16.2574 86.5439 16.2574H84.6032V19.6488V19.6467ZM84.6032 21.6063V25.2374H86.977C87.6309 25.2374 88.1397 25.0818 88.5056 24.7707C88.8714 24.4595 89.0543 24.0306 89.0543 23.4818C89.0543 22.2497 88.4172 21.6252 87.141 21.6063H84.6011H84.6032Z" fill="#A3A3A3"/>
<path d="M93.7148 14.8772C93.7148 14.4777 93.8494 14.1476 94.1164 13.889C94.3835 13.6304 94.7493 13.5 95.2119 13.5C95.6744 13.5 96.0319 13.6304 96.3031 13.889C96.5743 14.1476 96.7089 14.4777 96.7089 14.8772C96.7089 15.2767 96.5722 15.6173 96.2989 15.8759C96.0256 16.1345 95.6618 16.2649 95.214 16.2649C94.7661 16.2649 94.4024 16.1345 94.129 15.8759C93.8557 15.6173 93.719 15.2851 93.719 14.8772H93.7148ZM96.5512 27.461H93.8725V17.4654H96.5512V27.4631V27.461Z" fill="#A3A3A3"/>
<path d="M98.3633 22.3905C98.3633 20.8577 98.7291 19.6214 99.4587 18.6858C100.188 17.7501 101.172 17.2812 102.411 17.2812C103.506 17.2812 104.36 17.6576 104.97 18.4082L105.081 17.4663H107.501V27.1296C107.501 28.0043 107.303 28.7654 106.906 29.4109C106.509 30.0585 105.949 30.5505 105.228 30.889C104.507 31.2275 103.664 31.3978 102.697 31.3978C101.963 31.3978 101.25 31.2506 100.554 30.9584C99.8582 30.6661 99.3305 30.2877 98.9751 29.8272L100.157 28.2019C100.821 28.9462 101.629 29.3205 102.577 29.3205C103.285 29.3205 103.836 29.1313 104.232 28.7528C104.625 28.3743 104.822 27.8361 104.822 27.1401V26.604C104.206 27.2999 103.397 27.649 102.392 27.649C101.191 27.649 100.22 27.1801 99.4776 26.2402C98.7354 25.3004 98.3654 24.0557 98.3654 22.504V22.3926L98.3633 22.3905ZM101.034 22.5902C101.034 23.4964 101.214 24.2071 101.578 24.7243C101.942 25.2394 102.44 25.4959 103.075 25.4959C103.889 25.4959 104.471 25.1911 104.822 24.5792V20.3699C104.465 19.7602 103.889 19.4532 103.094 19.4532C102.453 19.4532 101.95 19.716 101.582 20.2395C101.216 20.7631 101.034 21.5473 101.034 22.5902V22.5902Z" fill="#A3A3A3"/>
<path d="M109.727 27.464V14.0098H114.438C116.07 14.0098 117.308 14.323 118.154 14.9475C118.997 15.572 119.419 16.4887 119.419 17.6955C119.419 18.3537 119.249 18.9361 118.911 19.4365C118.572 19.939 118.101 20.3069 117.498 20.5403C118.187 20.7127 118.732 21.0617 119.129 21.5853C119.527 22.1088 119.724 22.7501 119.724 23.507C119.724 24.8001 119.312 25.7799 118.486 26.4443C117.66 27.1087 116.484 27.4493 114.956 27.4598H109.727V27.464ZM112.498 19.6467H114.55C115.948 19.6215 116.648 19.0643 116.648 17.9752C116.648 17.3654 116.472 16.926 116.116 16.659C115.763 16.3899 115.204 16.2574 114.438 16.2574H112.498V19.6488V19.6467ZM112.498 21.6063V25.2374H114.872C115.525 25.2374 116.034 25.0818 116.4 24.7707C116.766 24.4595 116.949 24.0306 116.949 23.4818C116.949 22.2497 116.312 21.6252 115.036 21.6063H112.496H112.498Z" fill="#A3A3A3"/>
<path d="M127.612 26.445C126.954 27.2461 126.041 27.6456 124.876 27.6456C123.804 27.6456 122.986 27.3386 122.423 26.7226C121.859 26.1065 121.571 25.2045 121.559 24.0145V17.4629H124.229V23.9283C124.229 24.9711 124.704 25.4905 125.652 25.4905C126.601 25.4905 127.181 25.1751 127.519 24.5464V17.465H130.198V27.4627H127.685L127.612 26.4471V26.445Z" fill="#A3A3A3"/>
<path d="M135.95 23.6821L137.798 17.4648H140.661L136.641 29.0142L136.42 29.5398C135.823 30.8455 134.837 31.4994 133.464 31.4994C133.075 31.4994 132.682 31.4405 132.283 31.3249V29.3022L132.688 29.3107C133.193 29.3107 133.572 29.2329 133.82 29.0794C134.07 28.9259 134.265 28.6694 134.406 28.3119L134.72 27.4898L131.219 17.4648H134.093L135.95 23.6821V23.6821Z" fill="#A3A3A3"/>
<path d="M156.81 25.8635C156.416 26.4249 155.798 26.8622 154.957 27.1755C154.116 27.4887 153.176 27.6464 152.133 27.6464C151.091 27.6464 150.144 27.3941 149.324 26.8895C148.504 26.3849 147.872 25.67 147.422 24.747C146.972 23.824 146.745 22.7643 146.738 21.5679V19.867C146.738 17.9999 147.209 16.526 148.151 15.4453C149.093 14.3646 150.359 13.8242 151.948 13.8242C153.334 13.8242 154.448 14.1774 155.294 14.8818C156.137 15.5862 156.639 16.5596 156.799 17.796H155.662C155.495 16.8077 155.094 16.0592 154.457 15.5483C153.82 15.0395 152.987 14.783 151.957 14.783C150.699 14.783 149.705 15.2308 148.973 16.1244C148.24 17.018 147.874 18.2795 147.874 19.9069V21.4965C147.874 22.5204 148.048 23.4245 148.395 24.2109C148.742 24.9972 149.242 25.6049 149.892 26.0359C150.542 26.4669 151.288 26.6835 152.133 26.6835C153.113 26.6835 153.954 26.53 154.657 26.2209C155.113 26.017 155.451 25.7815 155.672 25.5102V22.0368H152.06V21.0759H156.81V25.8614V25.8635Z" fill="#A3A3A3"/>
<path d="M164.395 18.4082C164.161 18.3641 163.911 18.343 163.646 18.343C162.957 18.343 162.372 18.5365 161.895 18.9212C161.418 19.306 161.077 19.8653 160.873 20.5991V27.4639H159.773V17.4663H160.854L160.873 19.0558C161.458 17.8742 162.397 17.2812 163.69 17.2812C163.997 17.2812 164.241 17.3212 164.42 17.4011L164.393 18.4082H164.395Z" fill="#A3A3A3"/>
<path d="M165.348 22.3169C165.348 21.356 165.535 20.4898 165.907 19.7202C166.279 18.9507 166.807 18.3515 167.486 17.9225C168.167 17.4957 168.939 17.2812 169.801 17.2812C171.132 17.2812 172.208 17.748 173.035 18.6816C173.861 19.6151 174.273 20.8514 174.273 22.3905V22.6217C174.273 23.5889 174.086 24.4594 173.714 25.231C173.342 26.0048 172.816 26.5998 172.139 27.0182C171.462 27.4366 170.688 27.6469 169.82 27.6469C168.495 27.6469 167.419 27.1801 166.59 26.2466C165.762 25.313 165.348 24.0767 165.348 22.5376V22.3169V22.3169ZM166.456 22.6217C166.456 23.816 166.765 24.7979 167.385 25.5653C168.003 26.3328 168.815 26.7154 169.82 26.7154C170.825 26.7154 171.626 26.3328 172.246 25.5653C172.864 24.7979 173.175 23.7866 173.175 22.5292V22.3169C173.175 21.5536 173.035 20.8535 172.751 20.2185C172.467 19.5836 172.07 19.0937 171.559 18.7446C171.048 18.3956 170.463 18.2232 169.803 18.2232C168.817 18.2232 168.014 18.6101 167.391 19.3817C166.769 20.1554 166.458 21.1668 166.458 22.4178V22.6217H166.456Z" fill="#A3A3A3"/>
<path d="M182.987 26.1968C182.323 27.1639 181.259 27.6475 179.8 27.6475C178.734 27.6475 177.924 27.3385 177.369 26.7182C176.814 26.1 176.532 25.1833 176.52 23.9702V17.4648H177.619V23.8314C177.619 25.7342 178.389 26.6867 179.93 26.6867C181.471 26.6867 182.545 26.0244 182.97 24.6997V17.4648H184.078V27.4625H183.006L182.987 26.1968V26.1968Z" fill="#A3A3A3"/>
<path d="M194.988 22.5671C194.988 24.1251 194.643 25.3614 193.953 26.276C193.264 27.1906 192.339 27.649 191.182 27.649C189.816 27.649 188.769 27.1675 188.041 26.2066V31.3074H186.941V17.4663H187.967L188.022 18.8792C188.743 17.8132 189.786 17.2812 191.155 17.2812C192.349 17.2812 193.287 17.7333 193.968 18.6395C194.649 19.5457 194.99 20.8009 194.99 22.4094V22.5671H194.988ZM193.88 22.3736C193.88 21.0995 193.617 20.0924 193.093 19.3523C192.57 18.6122 191.84 18.2442 190.905 18.2442C190.228 18.2442 189.645 18.4082 189.158 18.7341C188.672 19.06 188.298 19.5352 188.039 20.1575V24.9535C188.304 25.5254 188.682 25.9627 189.174 26.2655C189.666 26.5682 190.249 26.7175 190.922 26.7175C191.851 26.7175 192.576 26.3475 193.098 25.6053C193.619 24.8631 193.878 23.7866 193.878 22.3757L193.88 22.3736Z" fill="#A3A3A3"/>
</svg>
