<svg width="155" height="31" viewBox="0 0 155 31" fill="none" xmlns="http://www.w3.org/2000/svg">
<path d="M21.4163 17.3487L21.3398 17.5655C20.1918 20.9456 17.2709 23.0374 13.7377 23.0374C11.6204 23.0374 9.61783 22.1573 8.11272 20.5885C6.59487 18.9941 5.75303 16.9277 5.75303 14.7466C5.75303 12.489 6.5566 10.4482 8.11272 8.82826C9.61783 7.24662 11.6204 6.37928 13.7377 6.37928C17.2836 6.37928 19.9877 8.26703 21.1484 11.5578L21.225 11.7619H25.2683L25.1663 11.3793C24.4775 8.67519 23.049 6.40479 21.0336 4.79764C19.0183 3.1905 16.4928 2.36142 13.7505 2.36142C10.6 2.34866 7.51323 3.68795 5.28109 5.99662C3.01068 8.36907 1.77344 11.4813 1.77344 14.7339C1.77344 17.9354 3.01068 21.0349 5.26834 23.4328C7.50048 25.7798 10.5234 27.0681 13.7377 27.0681C19.35 27.0681 23.8908 23.4073 25.3066 17.7441L25.4086 17.3614C25.4086 17.3487 21.4163 17.3487 21.4163 17.3487Z" fill="#A3A3A3"/>
<path d="M32.8974 23.3825V16.9029H43.6882V13.1657H32.8974V6.72437H43.9306V3.02539H29.1602V27.0815H43.9688V23.3825H32.8974Z" fill="#A3A3A3"/>
<path d="M52.0018 2.94727H48.2773V27.0799H52.0018V2.94727Z" fill="#A3A3A3"/>
<path d="M60.614 24.8359C60.6523 26.0859 59.7339 27.0808 58.2926 27.0808C57.0043 27.0808 56.0859 26.0859 56.0859 24.8359C56.0859 23.5476 57.0426 22.5527 58.3691 22.5527C59.7467 22.5527 60.614 23.5604 60.614 24.8359Z" fill="#A3A3A3"/>
<path d="M77.8186 8.58526C77.3976 8.58526 77.0022 8.52148 76.6451 8.38118C76.2879 8.24087 75.9691 8.03679 75.7012 7.78169C75.4334 7.52659 75.2293 7.22046 75.0762 6.87608C74.9232 6.53169 74.8594 6.14904 74.8594 5.74087C74.8594 5.33271 74.9359 4.95006 75.0762 4.60567C75.2165 4.26128 75.4334 3.95516 75.7012 3.70006C75.9691 3.44495 76.2879 3.24087 76.6451 3.10057C77.0022 2.96026 77.3976 2.89648 77.8313 2.89648C78.2905 2.89648 78.6987 2.97302 79.0813 3.12608C79.4512 3.27914 79.7701 3.50873 80.0379 3.81485L79.3747 4.43985C79.1706 4.22302 78.9538 4.0572 78.6987 3.95516C78.4563 3.84036 78.1757 3.78934 77.8951 3.78934C77.6017 3.78934 77.3339 3.84036 77.1043 3.92965C76.8619 4.01893 76.6578 4.15924 76.4793 4.33781C76.3007 4.51638 76.1604 4.72046 76.0711 4.95006C75.9691 5.1924 75.9308 5.4475 75.9308 5.74087C75.9308 6.02148 75.9818 6.28934 76.0711 6.53169C76.1732 6.77404 76.3007 6.97812 76.4793 7.14393C76.6578 7.3225 76.8619 7.45006 77.1043 7.5521C77.3466 7.64138 77.6145 7.6924 77.8951 7.6924C78.1885 7.6924 78.4563 7.64138 78.6987 7.52659C78.941 7.41179 79.1706 7.25873 79.3747 7.02914L80.0379 7.66689C79.7828 7.97302 79.464 8.20261 79.0813 8.35567C78.6987 8.50873 78.2777 8.58526 77.8186 8.58526Z" fill="#A3A3A3"/>
<path d="M84.4624 5.25582C84.2838 4.92419 84.0287 4.66908 83.6971 4.49051C83.3782 4.31194 83.0083 4.22266 82.6001 4.22266C82.1792 4.22266 81.7966 4.31194 81.4649 4.50327C81.1333 4.68184 80.8782 4.93694 80.6869 5.26857C80.4955 5.58745 80.4062 5.97011 80.4062 6.39102C80.4062 6.81194 80.5083 7.18184 80.6996 7.51347C80.8909 7.84511 81.1588 8.10021 81.5159 8.29153C81.8731 8.48286 82.2813 8.57215 82.7532 8.57215C83.1231 8.57215 83.4547 8.50837 83.7353 8.39357C84.0287 8.27878 84.2583 8.10021 84.4496 7.88337L83.9139 7.27113C83.7608 7.42419 83.595 7.55174 83.4037 7.61551C83.2124 7.69204 82.9955 7.73031 82.7659 7.73031C82.4853 7.73031 82.243 7.67929 82.0389 7.57725C81.8221 7.47521 81.669 7.32215 81.5415 7.13082C81.4649 7.00327 81.4267 6.87572 81.3884 6.72266H84.7047C84.7047 6.67164 84.7175 6.62062 84.7175 6.56959C84.7175 6.51857 84.7175 6.46755 84.7175 6.42929C84.743 5.97011 84.6409 5.58745 84.4624 5.25582ZM81.5287 5.61296C81.6307 5.42164 81.771 5.28133 81.9624 5.17929C82.1409 5.07725 82.3578 5.02623 82.6001 5.02623C82.8425 5.02623 83.0466 5.07725 83.2251 5.17929C83.4037 5.28133 83.5568 5.43439 83.6588 5.61296C83.7353 5.74051 83.7736 5.89357 83.7991 6.04664H81.4011C81.4139 5.89357 81.4649 5.74051 81.5287 5.61296Z" fill="#A3A3A3"/>
<path d="M89.6288 5.02726C89.4758 4.75941 89.2717 4.55533 89.0038 4.41502C88.736 4.28747 88.4298 4.21094 88.0982 4.21094C87.7283 4.21094 87.3967 4.28747 87.1161 4.42777C86.9247 4.52981 86.7717 4.65737 86.6314 4.81043V4.26196H85.6875V8.49665H86.6824V6.36655C86.6824 6.08594 86.7334 5.84359 86.8227 5.65226C86.9247 5.46094 87.0523 5.32063 87.2436 5.23135C87.4222 5.14206 87.6263 5.09104 87.8559 5.09104C88.1747 5.09104 88.4171 5.18033 88.5957 5.37165C88.7742 5.55022 88.8635 5.83084 88.8635 6.21349V8.50941H89.8584V6.08594C89.8584 5.65226 89.7819 5.30788 89.6288 5.02726Z" fill="#A3A3A3"/>
<path d="M93.3785 7.56569C93.2254 7.68048 93.0469 7.74426 92.83 7.74426C92.6515 7.74426 92.4984 7.69324 92.3964 7.57844C92.2943 7.46365 92.2433 7.31059 92.2433 7.10651V5.10395H93.3785V4.31314H92.2433V3.34375H91.2484V4.31314H90.5469V5.10395H91.2484V7.14477C91.2484 7.61671 91.376 7.97385 91.6311 8.2162C91.8862 8.45855 92.2433 8.57334 92.7025 8.57334C92.8811 8.57334 93.0596 8.54783 93.2254 8.49681C93.3913 8.44579 93.5316 8.38202 93.6591 8.27997L93.3785 7.56569Z" fill="#A3A3A3"/>
<path d="M95.9051 4.45225C95.7011 4.56704 95.5352 4.70735 95.4204 4.89868V4.27368H94.4766V8.50837H95.4715V6.4548C95.4715 6.02113 95.5863 5.70225 95.8031 5.47266C96.0199 5.25582 96.3261 5.14102 96.696 5.14102C96.7342 5.14102 96.7725 5.14102 96.8107 5.14102C96.849 5.14102 96.8873 5.15378 96.9255 5.16653V4.22266C96.5174 4.22266 96.1857 4.29919 95.9051 4.45225Z" fill="#A3A3A3"/>
<path d="M99.6287 8.56043C99.1951 8.56043 98.8124 8.47114 98.468 8.27981C98.1236 8.08849 97.8685 7.83339 97.6645 7.50175C97.4604 7.17012 97.3711 6.80022 97.3711 6.3793C97.3711 5.95839 97.4731 5.58849 97.6645 5.25686C97.8558 4.93798 98.1236 4.68288 98.468 4.49155C98.8124 4.31298 99.1951 4.21094 99.6287 4.21094C100.062 4.21094 100.458 4.30022 100.802 4.49155C101.147 4.67012 101.414 4.92522 101.606 5.25686C101.797 5.57573 101.899 5.95839 101.899 6.3793C101.899 6.80022 101.797 7.17012 101.606 7.50175C101.414 7.83339 101.147 8.08849 100.802 8.27981C100.458 8.47114 100.062 8.56043 99.6287 8.56043ZM99.6287 7.71859C99.8711 7.71859 100.088 7.66757 100.279 7.56553C100.471 7.46349 100.624 7.31043 100.726 7.10635C100.84 6.90226 100.891 6.67267 100.891 6.40481C100.891 6.1242 100.84 5.89461 100.726 5.69053C100.611 5.48645 100.471 5.34614 100.279 5.23135C100.088 5.1293 99.8711 5.07828 99.6415 5.07828C99.3992 5.07828 99.1823 5.1293 98.991 5.23135C98.7997 5.33339 98.6594 5.48645 98.5446 5.69053C98.4298 5.89461 98.3787 6.1242 98.3787 6.40481C98.3787 6.67267 98.4298 6.91502 98.5446 7.10635C98.6594 7.31043 98.7997 7.46349 98.991 7.56553C99.1823 7.65482 99.3864 7.71859 99.6287 7.71859Z" fill="#A3A3A3"/>
<path d="M108.176 2.62891V4.79727C108.061 4.65697 107.921 4.55493 107.767 4.46564C107.487 4.31258 107.168 4.23605 106.811 4.23605C106.403 4.23605 106.033 4.32533 105.714 4.50391C105.395 4.68248 105.14 4.93758 104.949 5.25646C104.77 5.57533 104.668 5.95799 104.668 6.39166C104.668 6.82533 104.757 7.20799 104.949 7.52687C105.127 7.84574 105.382 8.10084 105.714 8.27942C106.033 8.45799 106.403 8.54727 106.811 8.54727C107.181 8.54727 107.5 8.47074 107.78 8.30493C107.946 8.21564 108.086 8.08809 108.214 7.93503V8.4835H109.158V2.62891H108.176ZM108.023 7.09319C107.908 7.29727 107.755 7.45033 107.576 7.55238C107.385 7.65442 107.181 7.70544 106.938 7.70544C106.696 7.70544 106.492 7.65442 106.301 7.55238C106.109 7.45033 105.956 7.29727 105.854 7.09319C105.739 6.88911 105.688 6.65952 105.688 6.39166C105.688 6.11105 105.739 5.88146 105.854 5.67738C105.969 5.47329 106.122 5.33299 106.301 5.21819C106.492 5.11615 106.696 5.06513 106.938 5.06513C107.181 5.06513 107.385 5.11615 107.576 5.21819C107.767 5.32023 107.921 5.47329 108.023 5.67738C108.125 5.88146 108.188 6.11105 108.188 6.39166C108.201 6.65952 108.137 6.90187 108.023 7.09319Z" fill="#A3A3A3"/>
<path d="M114.169 5.25582C113.991 4.92419 113.736 4.66908 113.404 4.49051C113.085 4.31194 112.715 4.22266 112.307 4.22266C111.886 4.22266 111.504 4.31194 111.172 4.50327C110.84 4.69459 110.585 4.93694 110.394 5.26857C110.203 5.58745 110.113 5.97011 110.113 6.39102C110.113 6.81194 110.215 7.18184 110.407 7.51347C110.598 7.84511 110.866 8.10021 111.223 8.29153C111.58 8.48286 111.988 8.57215 112.46 8.57215C112.83 8.57215 113.162 8.50837 113.442 8.39357C113.736 8.27878 113.965 8.10021 114.157 7.88337L113.621 7.27113C113.468 7.42419 113.302 7.55174 113.111 7.61551C112.919 7.69204 112.703 7.73031 112.473 7.73031C112.192 7.73031 111.95 7.67929 111.746 7.57725C111.529 7.47521 111.376 7.32215 111.248 7.13082C111.172 7.00327 111.134 6.87572 111.095 6.72266H114.412C114.412 6.67164 114.425 6.62062 114.425 6.56959C114.425 6.51857 114.425 6.46755 114.425 6.42929C114.45 5.97011 114.348 5.58745 114.169 5.25582ZM111.236 5.61296C111.338 5.42164 111.478 5.28133 111.669 5.17929C111.848 5.07725 112.065 5.02623 112.307 5.02623C112.549 5.02623 112.754 5.07725 112.932 5.17929C113.111 5.28133 113.264 5.43439 113.366 5.61296C113.442 5.74051 113.481 5.89357 113.506 6.04664H111.108C111.121 5.89357 111.172 5.74051 111.236 5.61296Z" fill="#A3A3A3"/>
<path d="M118.713 7.64206V6.11145H121.391V5.26961H118.713V3.82828H121.736V2.96094H117.68V8.50941H121.838V7.64206H118.713Z" fill="#A3A3A3"/>
<path d="M124.158 8.56043C123.801 8.56043 123.469 8.50941 123.137 8.42012C122.819 8.33084 122.551 8.21604 122.359 8.08849L122.742 7.33594C122.933 7.45073 123.163 7.55277 123.418 7.64206C123.686 7.71859 123.941 7.75686 124.209 7.75686C124.515 7.75686 124.745 7.71859 124.885 7.6293C125.025 7.54002 125.089 7.42522 125.089 7.28492C125.089 7.17012 125.038 7.08084 124.949 7.01706C124.859 6.95328 124.732 6.91502 124.579 6.87675C124.426 6.85124 124.26 6.81298 124.069 6.78747C123.877 6.76196 123.699 6.72369 123.507 6.68543C123.316 6.64716 123.15 6.57063 122.997 6.48135C122.844 6.39206 122.717 6.27726 122.627 6.1242C122.538 5.97114 122.487 5.77981 122.487 5.53747C122.487 5.26961 122.563 5.04002 122.717 4.83594C122.87 4.63186 123.086 4.47879 123.367 4.37675C123.648 4.26196 123.979 4.21094 124.349 4.21094C124.63 4.21094 124.923 4.23645 125.217 4.30022C125.51 4.364 125.752 4.45328 125.944 4.56808L125.561 5.32063C125.357 5.20584 125.153 5.11655 124.949 5.06553C124.745 5.01451 124.54 5.00175 124.336 5.00175C124.03 5.00175 123.813 5.05277 123.673 5.14206C123.533 5.23135 123.456 5.34614 123.456 5.48645C123.456 5.614 123.507 5.70328 123.597 5.76706C123.686 5.83084 123.813 5.88186 123.967 5.92012C124.12 5.95839 124.285 5.9839 124.477 6.00941C124.668 6.03492 124.847 6.07318 125.038 6.11145C125.217 6.16247 125.395 6.22624 125.548 6.30277C125.701 6.3793 125.829 6.4941 125.931 6.64716C126.02 6.80022 126.071 6.99155 126.071 7.22114C126.071 7.489 125.995 7.71859 125.842 7.90992C125.688 8.10124 125.459 8.2543 125.178 8.3691C124.898 8.50941 124.553 8.56043 124.158 8.56043Z" fill="#A3A3A3"/>
<path d="M129.195 7.56569C129.042 7.68048 128.863 7.74426 128.646 7.74426C128.468 7.74426 128.315 7.69324 128.213 7.57844C128.111 7.46365 128.06 7.31059 128.06 7.10651V5.10395H129.195V4.31314H128.06V3.34375H127.065V4.31314H126.363V5.10395H127.065V7.14477C127.065 7.61671 127.192 7.97385 127.447 8.2162C127.703 8.45855 128.06 8.57334 128.519 8.57334C128.697 8.57334 128.876 8.54783 129.042 8.49681C129.208 8.44579 129.348 8.38202 129.476 8.27997L129.195 7.56569Z" fill="#A3A3A3"/>
<path d="M133.403 4.27539V6.41825C133.403 6.69886 133.352 6.92845 133.263 7.11978C133.161 7.31111 133.033 7.45141 132.855 7.55345C132.689 7.64274 132.485 7.69376 132.243 7.69376C131.924 7.69376 131.681 7.60447 131.516 7.41315C131.35 7.22182 131.261 6.94121 131.261 6.55855V4.27539H130.266V6.6861C130.266 7.10702 130.342 7.46417 130.495 7.73202C130.648 8.01264 130.865 8.21672 131.133 8.34427C131.414 8.48457 131.72 8.54835 132.09 8.54835C132.421 8.54835 132.715 8.47182 132.995 8.33151C133.174 8.22947 133.327 8.11468 133.454 7.96162V8.49733H134.398V4.27539H133.403Z" fill="#A3A3A3"/>
<path d="M138.84 2.62891V4.79727C138.725 4.65697 138.585 4.55493 138.432 4.46564C138.151 4.31258 137.832 4.23605 137.475 4.23605C137.067 4.23605 136.697 4.32533 136.378 4.50391C136.059 4.68248 135.804 4.93758 135.613 5.25646C135.434 5.57533 135.332 5.95799 135.332 6.39166C135.332 6.82533 135.421 7.20799 135.613 7.52687C135.791 7.84574 136.046 8.10084 136.378 8.27942C136.697 8.45799 137.067 8.54727 137.475 8.54727C137.845 8.54727 138.164 8.47074 138.444 8.30493C138.61 8.21564 138.75 8.08809 138.878 7.93503V8.4835H139.822V2.62891H138.84ZM138.687 7.09319C138.572 7.29727 138.419 7.45033 138.24 7.55238C138.049 7.65442 137.845 7.70544 137.602 7.70544C137.36 7.70544 137.156 7.65442 136.965 7.55238C136.773 7.45033 136.62 7.29727 136.518 7.09319C136.403 6.88911 136.352 6.65952 136.352 6.39166C136.352 6.11105 136.403 5.88146 136.518 5.67738C136.633 5.47329 136.786 5.33299 136.965 5.21819C137.156 5.11615 137.36 5.06513 137.602 5.06513C137.845 5.06513 138.049 5.11615 138.24 5.21819C138.432 5.32023 138.585 5.47329 138.687 5.67738C138.789 5.88146 138.852 6.11105 138.852 6.39166C138.865 6.65952 138.801 6.90187 138.687 7.09319Z" fill="#A3A3A3"/>
<path d="M141.634 3.57294C141.455 3.57294 141.302 3.50917 141.175 3.39437C141.06 3.27958 140.996 3.13927 140.996 2.97345C140.996 2.80764 141.06 2.66733 141.175 2.55254C141.289 2.43774 141.443 2.38672 141.634 2.38672C141.812 2.38672 141.965 2.43774 142.093 2.55254C142.221 2.66733 142.272 2.79488 142.272 2.9607C142.272 3.13927 142.208 3.27958 142.093 3.39437C141.978 3.52192 141.825 3.57294 141.634 3.57294ZM141.136 8.50917V4.27447H142.131V8.50917H141.136Z" fill="#A3A3A3"/>
<path d="M145.332 8.56043C144.898 8.56043 144.516 8.47114 144.171 8.27981C143.827 8.08849 143.572 7.83339 143.368 7.50175C143.176 7.17012 143.074 6.80022 143.074 6.3793C143.074 5.95839 143.176 5.58849 143.368 5.25686C143.559 4.93798 143.827 4.68288 144.171 4.49155C144.516 4.31298 144.898 4.21094 145.332 4.21094C145.766 4.21094 146.161 4.30022 146.505 4.49155C146.85 4.67012 147.118 4.92522 147.309 5.25686C147.5 5.57573 147.602 5.95839 147.602 6.3793C147.602 6.80022 147.5 7.17012 147.309 7.50175C147.118 7.83339 146.85 8.08849 146.505 8.27981C146.148 8.47114 145.766 8.56043 145.332 8.56043ZM145.332 7.71859C145.574 7.71859 145.791 7.66757 145.982 7.56553C146.174 7.46349 146.327 7.31043 146.429 7.10635C146.544 6.90226 146.595 6.67267 146.595 6.40481C146.595 6.1242 146.544 5.89461 146.429 5.69053C146.314 5.48645 146.174 5.34614 145.982 5.23135C145.791 5.1293 145.574 5.07828 145.345 5.07828C145.102 5.07828 144.885 5.1293 144.694 5.23135C144.503 5.33339 144.362 5.48645 144.248 5.69053C144.133 5.89461 144.082 6.1242 144.082 6.40481C144.082 6.67267 144.133 6.91502 144.248 7.10635C144.362 7.31043 144.503 7.46349 144.694 7.56553C144.873 7.65482 145.09 7.71859 145.332 7.71859Z" fill="#A3A3A3"/>
<path d="M149.845 8.56043C149.488 8.56043 149.157 8.50941 148.825 8.42012C148.506 8.33084 148.238 8.21604 148.047 8.08849L148.43 7.33594C148.621 7.45073 148.85 7.55277 149.106 7.64206C149.373 7.71859 149.629 7.75686 149.896 7.75686C150.202 7.75686 150.432 7.71859 150.572 7.6293C150.713 7.54002 150.776 7.42522 150.776 7.28492C150.776 7.17012 150.725 7.08084 150.636 7.01706C150.547 6.95328 150.419 6.91502 150.266 6.87675C150.113 6.83849 149.947 6.81298 149.756 6.78747C149.565 6.76196 149.386 6.72369 149.195 6.68543C149.004 6.63441 148.838 6.57063 148.685 6.48135C148.532 6.39206 148.404 6.27726 148.315 6.1242C148.225 5.97114 148.174 5.77981 148.174 5.53747C148.174 5.26961 148.251 5.04002 148.404 4.83594C148.557 4.63186 148.774 4.47879 149.055 4.37675C149.335 4.26196 149.667 4.21094 150.037 4.21094C150.317 4.21094 150.611 4.23645 150.904 4.30022C151.197 4.364 151.44 4.45328 151.631 4.56808L151.248 5.32063C151.044 5.20584 150.84 5.11655 150.636 5.06553C150.432 5.01451 150.228 5.00175 150.024 5.00175C149.718 5.00175 149.501 5.05277 149.361 5.14206C149.22 5.23135 149.144 5.34614 149.144 5.48645C149.144 5.614 149.195 5.70328 149.284 5.76706C149.373 5.83084 149.501 5.88186 149.654 5.92012C149.807 5.95839 149.973 5.9839 150.164 6.00941C150.356 6.03492 150.534 6.07318 150.725 6.11145C150.904 6.16247 151.083 6.22624 151.236 6.30277C151.389 6.3793 151.516 6.4941 151.618 6.64716C151.708 6.80022 151.759 6.99155 151.759 7.22114C151.759 7.489 151.682 7.71859 151.529 7.90992C151.376 8.10124 151.146 8.2543 150.866 8.3691C150.572 8.50941 150.241 8.56043 149.845 8.56043Z" fill="#A3A3A3"/>
<path d="M78.7616 11.8887V14.057C78.6468 13.9167 78.5065 13.8147 78.3534 13.7254C78.0728 13.5723 77.7539 13.4958 77.3968 13.4958C76.9886 13.4958 76.6187 13.5851 76.2998 13.7637C75.9809 13.9422 75.7258 14.1973 75.5345 14.5162C75.3559 14.8351 75.2539 15.2178 75.2539 15.6514C75.2539 16.0851 75.3432 16.4678 75.5345 16.7866C75.7131 17.1055 75.9682 17.3606 76.2998 17.5392C76.6187 17.7178 76.9886 17.807 77.3968 17.807C77.7667 17.807 78.0855 17.7305 78.3662 17.5647C78.532 17.4754 78.6723 17.3479 78.7998 17.1948V17.7433H79.7437V11.8887H78.7616ZM78.6085 16.353C78.4937 16.557 78.3406 16.7101 78.1621 16.8121C77.9707 16.9142 77.7667 16.9652 77.5243 16.9652C77.282 16.9652 77.0779 16.9142 76.8866 16.8121C76.6952 16.7101 76.5422 16.557 76.4401 16.353C76.3253 16.1489 76.2743 15.9193 76.2743 15.6514C76.2743 15.3708 76.3253 15.1412 76.4401 14.9371C76.5549 14.7331 76.708 14.5928 76.8866 14.478C77.0779 14.3759 77.282 14.3249 77.5243 14.3249C77.7667 14.3249 77.9707 14.3759 78.1621 14.478C78.3534 14.58 78.5065 14.7331 78.6085 14.9371C78.7233 15.1412 78.7743 15.3708 78.7743 15.6514C78.7743 15.9193 78.7233 16.1616 78.6085 16.353Z" fill="#A3A3A3"/>
<path d="M84.7436 14.5156C84.565 14.184 84.3099 13.9289 83.9783 13.7503C83.6594 13.5717 83.2895 13.4824 82.8814 13.4824C82.4605 13.4824 82.0778 13.5717 81.7462 13.763C81.4145 13.9416 81.1594 14.1967 80.9681 14.5283C80.7768 14.8472 80.6875 15.2299 80.6875 15.6508C80.6875 16.0717 80.7895 16.4416 80.9809 16.7732C81.1722 17.1049 81.4401 17.36 81.7972 17.5513C82.1543 17.7426 82.5625 17.8319 83.0344 17.8319C83.4043 17.8319 83.736 17.7681 84.0166 17.6533C84.3099 17.5385 84.5395 17.36 84.7309 17.1431L84.1952 16.5309C84.0421 16.684 83.8763 16.8115 83.6849 16.8753C83.4936 16.9518 83.2768 16.9901 83.0472 16.9901C82.7666 16.9901 82.5242 16.9391 82.3202 16.837C82.1033 16.735 81.9503 16.5819 81.8227 16.3906C81.7462 16.263 81.7079 16.1355 81.6696 15.9824H84.986C84.986 15.9314 84.9987 15.8804 84.9987 15.8294C84.9987 15.7783 84.9987 15.7273 84.9987 15.6891C85.0242 15.2299 84.9349 14.8472 84.7436 14.5156ZM81.8227 14.8727C81.9247 14.6814 82.065 14.5411 82.2564 14.4391C82.4349 14.337 82.6518 14.286 82.8941 14.286C83.1365 14.286 83.3406 14.337 83.5191 14.4391C83.6977 14.5411 83.8508 14.6942 83.9528 14.8727C84.0293 15.0003 84.0676 15.1533 84.0931 15.3064H81.6824C81.7079 15.1533 81.7462 15.0003 81.8227 14.8727Z" fill="#A3A3A3"/>
<path d="M88.2656 17.7692V12.2207H89.2988V17.7692C89.286 17.7692 88.2656 17.7692 88.2656 17.7692Z" fill="#A3A3A3"/>
<path d="M94.6288 14.287C94.4758 14.0192 94.2717 13.8151 94.0038 13.6748C93.736 13.5472 93.4299 13.4707 93.0982 13.4707C92.7283 13.4707 92.3967 13.5472 92.1161 13.6875C91.9247 13.7896 91.7717 13.9171 91.6314 14.0702V13.5217H90.6875V17.7564H91.6824V15.6136C91.6824 15.3329 91.7334 15.0906 91.8227 14.8993C91.9247 14.7079 92.0523 14.5676 92.2436 14.4784C92.4222 14.3891 92.6263 14.3381 92.8559 14.3381C93.1747 14.3381 93.4171 14.4273 93.5957 14.6187C93.7742 14.7972 93.8635 15.0778 93.8635 15.4605V17.7564H94.8584V15.3329C94.8584 14.912 94.7819 14.5676 94.6288 14.287Z" fill="#A3A3A3"/>
<path d="M100.062 14.287C99.9094 14.0192 99.7053 13.8151 99.4374 13.6748C99.1696 13.5472 98.8634 13.4707 98.5318 13.4707C98.1619 13.4707 97.8303 13.5472 97.5497 13.6875C97.3583 13.7896 97.2053 13.9171 97.065 14.0702V13.5217H96.1211V17.7564H97.116V15.6136C97.116 15.3329 97.167 15.0906 97.2563 14.8993C97.3583 14.7079 97.4859 14.5676 97.6772 14.4784C97.8558 14.3891 98.0599 14.3381 98.2895 14.3381C98.6083 14.3381 98.8507 14.4273 99.0293 14.6187C99.2078 14.7972 99.2971 15.0778 99.2971 15.4605V17.7564H100.292V15.3329C100.292 14.912 100.215 14.5676 100.062 14.287Z" fill="#A3A3A3"/>
<path d="M103.457 17.8202C103.023 17.8202 102.641 17.7309 102.296 17.5396C101.952 17.3483 101.697 17.0932 101.493 16.7615C101.301 16.4299 101.199 16.06 101.199 15.6391C101.199 15.2182 101.301 14.8483 101.493 14.5166C101.684 14.1977 101.952 13.9426 102.296 13.7513C102.641 13.5727 103.023 13.4707 103.457 13.4707C103.891 13.4707 104.286 13.56 104.63 13.7513C104.975 13.9299 105.243 14.185 105.434 14.5166C105.625 14.8355 105.727 15.2182 105.727 15.6391C105.727 16.06 105.625 16.4299 105.434 16.7615C105.243 17.0932 104.975 17.3483 104.63 17.5396C104.286 17.7309 103.903 17.8202 103.457 17.8202ZM103.457 16.9784C103.699 16.9784 103.916 16.9273 104.107 16.8253C104.299 16.7233 104.452 16.5702 104.554 16.3661C104.669 16.162 104.72 15.9324 104.72 15.6646C104.72 15.384 104.669 15.1544 104.554 14.9503C104.439 14.7462 104.299 14.6059 104.107 14.4911C103.916 14.3891 103.699 14.3381 103.47 14.3381C103.227 14.3381 103.01 14.3891 102.819 14.4911C102.628 14.5932 102.487 14.7462 102.373 14.9503C102.258 15.1544 102.207 15.384 102.207 15.6646C102.207 15.9324 102.258 16.1748 102.373 16.3661C102.487 16.5702 102.628 16.7233 102.819 16.8253C103.01 16.9273 103.215 16.9784 103.457 16.9784Z" fill="#A3A3A3"/>
<path d="M109.551 13.5352L108.199 16.6729L106.885 13.5352H105.852L107.676 17.7698H108.696L110.507 13.5352H109.551Z" fill="#A3A3A3"/>
<path d="M114.03 13.9298C113.699 13.6364 113.214 13.4961 112.602 13.4961C112.257 13.4961 111.939 13.5344 111.62 13.6236C111.301 13.7129 111.033 13.8405 110.803 14.0191L111.186 14.7461C111.339 14.6185 111.543 14.5165 111.773 14.44C112.002 14.3634 112.232 14.3252 112.474 14.3252C112.831 14.3252 113.086 14.4017 113.265 14.5675C113.444 14.7333 113.533 14.9502 113.533 15.2435V15.3073H112.436C112.002 15.3073 111.671 15.3583 111.403 15.4731C111.148 15.5879 110.956 15.741 110.842 15.9196C110.727 16.1109 110.676 16.3277 110.676 16.5573C110.676 16.7997 110.74 17.0165 110.867 17.2078C110.995 17.3992 111.186 17.5522 111.416 17.6543C111.658 17.7691 111.926 17.8201 112.245 17.8201C112.615 17.8201 112.933 17.7563 113.176 17.616C113.342 17.5267 113.482 17.3992 113.571 17.2461V17.7563H114.502V15.2691C114.541 14.6696 114.362 14.2231 114.03 13.9298ZM113.125 16.94C112.933 17.0548 112.717 17.1058 112.474 17.1058C112.219 17.1058 112.028 17.0548 111.875 16.9527C111.734 16.8507 111.658 16.7104 111.658 16.5191C111.658 16.366 111.722 16.2257 111.837 16.1236C111.951 16.0088 112.181 15.9578 112.513 15.9578H113.533V16.4553C113.456 16.6594 113.316 16.8252 113.125 16.94Z" fill="#A3A3A3"/>
<path d="M117.753 17.8202C117.307 17.8202 116.911 17.7309 116.567 17.5396C116.222 17.3483 115.954 17.0932 115.75 16.7615C115.559 16.4299 115.457 16.06 115.457 15.6391C115.457 15.2182 115.559 14.8483 115.75 14.5166C115.942 14.1977 116.222 13.9426 116.567 13.7513C116.911 13.5727 117.307 13.4707 117.753 13.4707C118.161 13.4707 118.531 13.56 118.837 13.7258C119.156 13.8916 119.386 14.134 119.551 14.4528L118.786 14.8993C118.659 14.6952 118.506 14.5549 118.327 14.4528C118.148 14.3508 117.944 14.3125 117.74 14.3125C117.498 14.3125 117.281 14.3636 117.077 14.4656C116.886 14.5676 116.733 14.7207 116.618 14.9248C116.503 15.1289 116.452 15.3585 116.452 15.6391C116.452 15.9197 116.503 16.1493 116.618 16.3534C116.733 16.5574 116.886 16.6977 117.077 16.8125C117.268 16.9146 117.485 16.9656 117.74 16.9656C117.957 16.9656 118.148 16.9146 118.327 16.8253C118.506 16.736 118.659 16.5829 118.786 16.3789L119.551 16.8253C119.386 17.1442 119.143 17.3865 118.837 17.5523C118.531 17.7309 118.161 17.8202 117.753 17.8202Z" fill="#A3A3A3"/>
<path d="M120.88 12.8327C120.701 12.8327 120.548 12.7689 120.421 12.6541C120.306 12.5393 120.242 12.399 120.242 12.2332C120.242 12.0674 120.306 11.9271 120.421 11.8123C120.536 11.6975 120.689 11.6465 120.88 11.6465C121.071 11.6465 121.212 11.6975 121.339 11.8123C121.467 11.9271 121.518 12.0546 121.518 12.2205C121.518 12.399 121.454 12.5393 121.339 12.6541C121.212 12.7817 121.071 12.8327 120.88 12.8327ZM120.37 17.7689V13.5342H121.365V17.7689H120.37Z" fill="#A3A3A3"/>
<path d="M124.566 17.8208C124.133 17.8208 123.75 17.7315 123.406 17.5402C123.061 17.3489 122.806 17.0938 122.602 16.7622C122.411 16.4305 122.309 16.0606 122.309 15.6397C122.309 15.2188 122.411 14.8489 122.602 14.5173C122.793 14.1984 123.061 13.9433 123.406 13.752C123.75 13.5734 124.133 13.4713 124.566 13.4713C125 13.4713 125.395 13.5606 125.74 13.752C126.084 13.9305 126.352 14.1856 126.543 14.5173C126.735 14.8361 126.837 15.2188 126.837 15.6397C126.837 16.0606 126.735 16.4305 126.543 16.7622C126.352 17.0938 126.084 17.3489 125.74 17.5402C125.395 17.7315 125 17.8208 124.566 17.8208ZM124.566 16.979C124.809 16.979 125.025 16.928 125.217 16.8259C125.408 16.7239 125.561 16.5708 125.663 16.3667C125.778 16.1627 125.829 15.9331 125.829 15.6652C125.829 15.3846 125.778 15.155 125.663 14.9509C125.548 14.7469 125.408 14.6065 125.217 14.4917C125.025 14.3897 124.809 14.3387 124.579 14.3387C124.337 14.3387 124.12 14.3897 123.928 14.4917C123.737 14.5938 123.597 14.7469 123.482 14.9509C123.367 15.155 123.316 15.3846 123.316 15.6652C123.316 15.9331 123.367 16.1754 123.482 16.3667C123.597 16.5708 123.737 16.7239 123.928 16.8259C124.12 16.928 124.324 16.979 124.566 16.979ZM123.89 12.9611L124.962 11.877H126.122L124.745 12.9611H123.89Z" fill="#A3A3A3"/>
<path d="M131.707 14.287C131.554 14.0192 131.35 13.8151 131.082 13.6748C130.814 13.5472 130.508 13.4707 130.176 13.4707C129.806 13.4707 129.475 13.5472 129.194 13.6875C129.003 13.7896 128.85 13.9171 128.71 14.0702V13.5217H127.766V17.7564H128.761V15.6136C128.761 15.3329 128.812 15.0906 128.901 14.8993C129.003 14.7079 129.13 14.5676 129.322 14.4784C129.513 14.3891 129.704 14.3381 129.934 14.3381C130.253 14.3381 130.495 14.4273 130.674 14.6187C130.852 14.7972 130.942 15.0778 130.942 15.4605V17.7564H131.937V15.3329C131.937 14.912 131.86 14.5676 131.707 14.287Z" fill="#A3A3A3"/>
<path d="M75.2539 27.0426V21.4941H77.6774C78.2769 21.4941 78.8126 21.6089 79.259 21.8385C79.7182 22.0681 80.0626 22.387 80.3177 22.8079C80.5728 23.2161 80.7003 23.7008 80.7003 24.262C80.7003 24.8105 80.5728 25.3079 80.3177 25.7161C80.0626 26.1242 79.7054 26.4559 79.259 26.6855C78.7998 26.9151 78.2769 27.0299 77.6774 27.0299L75.2539 27.0426ZM76.2871 26.1753H77.6391C78.06 26.1753 78.4172 26.0987 78.7233 25.9329C79.0294 25.7799 79.259 25.5503 79.4248 25.2696C79.5906 24.989 79.6799 24.6574 79.6799 24.2748C79.6799 23.8921 79.5906 23.5605 79.4248 23.2671C79.259 22.9737 79.0167 22.7697 78.7233 22.6038C78.4172 22.4508 78.06 22.3615 77.6391 22.3615H76.2871V26.1753Z" fill="#A3A3A3"/>
<path d="M82.2042 22.1198C82.0256 22.1198 81.8725 22.056 81.745 21.9412C81.6302 21.8265 81.5664 21.6861 81.5664 21.5203C81.5664 21.3545 81.6302 21.2142 81.745 21.0994C81.8598 20.9846 82.0128 20.9336 82.2042 20.9336C82.3827 20.9336 82.5358 20.9846 82.6633 21.0994C82.7781 21.2142 82.8419 21.3418 82.8419 21.5076C82.8419 21.6861 82.7781 21.8265 82.6633 21.9412C82.5486 22.056 82.3955 22.1198 82.2042 22.1198ZM81.7067 27.0433V22.8086H82.7016V27.0433H81.7067Z" fill="#A3A3A3"/>
<path d="M85.3063 27.1073C84.9491 27.1073 84.6175 27.0563 84.2859 26.967C83.967 26.8777 83.6991 26.7629 83.5078 26.6354L83.8905 25.8828C84.0818 25.9976 84.3114 26.0996 84.5665 26.1889C84.8343 26.2655 85.0894 26.3037 85.3573 26.3037C85.6634 26.3037 85.893 26.2655 86.0333 26.1762C86.1736 26.0869 86.2374 25.9721 86.2374 25.8318C86.2374 25.717 86.1864 25.6277 86.0971 25.5639C86.0078 25.5002 85.8803 25.4619 85.7272 25.4236C85.5741 25.3981 85.4083 25.3599 85.217 25.3343C85.0257 25.3088 84.8471 25.2706 84.6558 25.2323C84.4644 25.1813 84.2986 25.1175 84.1456 25.0282C83.9925 24.9389 83.865 24.8241 83.7757 24.6711C83.6864 24.518 83.6354 24.3267 83.6354 24.0843C83.6354 23.8165 83.7119 23.5869 83.865 23.3828C84.018 23.1787 84.2349 23.0257 84.5155 22.9236C84.7961 22.8088 85.1277 22.7578 85.4976 22.7578C85.7782 22.7578 86.0716 22.7833 86.365 22.8471C86.6583 22.9109 86.9007 23.0002 87.092 23.115L86.7093 23.8675C86.5053 23.7527 86.3012 23.6634 86.0971 23.6124C85.893 23.5614 85.6889 23.5486 85.4849 23.5486C85.1787 23.5486 84.9619 23.5996 84.8216 23.6889C84.6813 23.7782 84.6048 23.893 84.6048 24.0333C84.6048 24.1609 84.6558 24.2502 84.7451 24.3139C84.8343 24.3777 84.9619 24.4287 85.115 24.467C85.268 24.5053 85.4338 24.5308 85.6252 24.5563C85.8165 24.5818 85.9951 24.6201 86.1864 24.6583C86.365 24.7093 86.5435 24.7731 86.6966 24.8496C86.8496 24.9262 86.9772 25.041 87.0792 25.194C87.1685 25.3471 87.2196 25.5384 87.2196 25.768C87.2196 26.0359 87.143 26.2655 86.99 26.4568C86.8369 26.6481 86.6073 26.8012 86.3267 26.916C86.0461 27.0435 85.7017 27.1073 85.3063 27.1073Z" fill="#A3A3A3"/>
<path d="M91.771 23.8027C91.5924 23.4711 91.3373 23.216 91.0057 23.0374C90.6868 22.8588 90.3169 22.7695 89.9087 22.7695C89.4878 22.7695 89.1051 22.8588 88.7735 23.0501C88.4419 23.2287 88.1868 23.4838 87.9955 23.8154C87.8041 24.1343 87.7148 24.517 87.7148 24.9379C87.7148 25.3588 87.8169 25.7287 88.0082 26.0603C88.1995 26.392 88.4674 26.6471 88.8245 26.8384C89.1817 27.0297 89.5898 27.119 90.0618 27.119C90.4317 27.119 90.7633 27.0552 91.0439 26.9404C91.3245 26.8257 91.5669 26.6471 91.7582 26.4302L91.2225 25.818C91.0694 25.9711 90.9036 26.0986 90.7123 26.1624C90.521 26.2389 90.3041 26.2772 90.0745 26.2772C89.7939 26.2772 89.5516 26.2262 89.3475 26.1241C89.1307 26.0221 88.9776 25.869 88.8501 25.6777C88.7735 25.5501 88.7353 25.4226 88.697 25.2695H92.0133C92.0133 25.2185 92.0261 25.1675 92.0261 25.1165C92.0261 25.0654 92.0261 25.0144 92.0261 24.9762C92.0516 24.5042 91.9623 24.1216 91.771 23.8027ZM88.8501 24.1598C88.9521 23.9685 89.0924 23.8282 89.2837 23.7262C89.4623 23.6241 89.6791 23.5731 89.9215 23.5731C90.1638 23.5731 90.3679 23.6241 90.5465 23.7262C90.725 23.8282 90.8781 23.9813 90.9802 24.1598C91.0567 24.2874 91.0949 24.4404 91.1205 24.5935H88.7225C88.7353 24.4277 88.7735 24.2874 88.8501 24.1598Z" fill="#A3A3A3"/>
<path d="M94.3107 21.8393C94.3744 21.75 94.4637 21.7117 94.5785 21.7117C94.655 21.7117 94.7316 21.7372 94.7954 21.7883C94.8591 21.8393 94.9484 21.9031 95.0249 21.9796C95.1015 22.0561 95.2035 22.1071 95.3056 22.1582C95.4076 22.2092 95.5224 22.2347 95.6499 22.2347C95.9051 22.2347 96.1091 22.1327 96.2622 21.9413C96.4153 21.75 96.4918 21.4949 96.5045 21.1888H95.9688C95.9688 21.3291 95.9306 21.4439 95.854 21.5204C95.7775 21.5969 95.6882 21.6352 95.5862 21.6352C95.5224 21.6352 95.4459 21.6097 95.3693 21.5587C95.2928 21.5077 95.2163 21.4439 95.1397 21.3801C95.0632 21.3163 94.9612 21.2526 94.8591 21.2015C94.7571 21.1505 94.6423 21.125 94.5147 21.125C94.2596 21.125 94.0556 21.2143 93.9025 21.4056C93.7494 21.5969 93.6729 21.852 93.6602 22.1837H94.1959C94.2086 22.0434 94.2469 21.9286 94.3107 21.8393Z" fill="#A3A3A3"/>
<path d="M96.9374 23.5741C96.7844 23.3063 96.5803 23.1022 96.3124 22.9619C96.0446 22.8343 95.7384 22.7578 95.4068 22.7578C95.0369 22.7578 94.7053 22.8343 94.4247 22.9746C94.2333 23.0767 94.0803 23.2042 93.94 23.3573V22.8088H92.9961V27.0435H93.991V24.9007C93.991 24.6201 94.042 24.3777 94.1313 24.1864C94.2333 23.9951 94.3609 23.8548 94.5522 23.7655C94.7435 23.6762 94.9349 23.6252 95.1645 23.6252C95.4833 23.6252 95.7257 23.7144 95.9043 23.9058C96.0828 24.0843 96.1721 24.365 96.1721 24.7476V27.0435H97.167V24.6201C97.167 24.1991 97.0905 23.842 96.9374 23.5741Z" fill="#A3A3A3"/>
<path d="M100.344 27.1073C99.9099 27.1073 99.5273 27.018 99.1829 26.8267C98.8385 26.6354 98.5834 26.3803 98.3793 26.0486C98.188 25.717 98.0859 25.3471 98.0859 24.9262C98.0859 24.5053 98.188 24.1354 98.3793 23.8037C98.5706 23.4849 98.8385 23.2298 99.1829 23.0384C99.5273 22.8599 99.9099 22.7578 100.344 22.7578C100.777 22.7578 101.173 22.8471 101.517 23.0384C101.861 23.217 102.129 23.4721 102.321 23.8037C102.512 24.1226 102.614 24.5053 102.614 24.9262C102.614 25.3471 102.512 25.717 102.321 26.0486C102.129 26.3803 101.861 26.6354 101.517 26.8267C101.173 27.0053 100.777 27.1073 100.344 27.1073ZM100.344 26.2527C100.586 26.2527 100.803 26.2017 100.994 26.0996C101.185 25.9976 101.338 25.8445 101.441 25.6405C101.543 25.4364 101.606 25.2068 101.606 24.9389C101.606 24.6583 101.555 24.4287 101.441 24.2246C101.326 24.0206 101.185 23.8803 100.994 23.7655C100.803 23.6634 100.586 23.6124 100.356 23.6124C100.114 23.6124 99.8972 23.6634 99.7058 23.7655C99.5145 23.8675 99.3742 24.0206 99.2594 24.2246C99.1446 24.4287 99.0936 24.6583 99.0936 24.9389C99.0936 25.2068 99.1446 25.4491 99.2594 25.6405C99.3742 25.8445 99.5145 25.9976 99.7058 26.0996C99.8972 26.2017 100.101 26.2527 100.344 26.2527Z" fill="#A3A3A3"/>
<path d="M108.749 22.8086L107.41 25.9336L106.083 22.8086H105.05L106.9 27.056L106.823 27.2219C106.734 27.4387 106.619 27.579 106.517 27.6683C106.402 27.7576 106.262 27.8086 106.083 27.8086C105.956 27.8086 105.816 27.7831 105.701 27.7321C105.573 27.681 105.458 27.6045 105.356 27.5152L104.961 28.2423C105.101 28.3571 105.267 28.4591 105.471 28.5229C105.675 28.5867 105.879 28.6249 106.083 28.6249C106.326 28.6249 106.543 28.5867 106.734 28.5101C106.938 28.4336 107.117 28.306 107.27 28.1275C107.435 27.9489 107.576 27.6938 107.703 27.3749L109.68 22.8086H108.749Z" fill="#A3A3A3"/>
<path d="M112.602 27.0426V21.4941H113.443L115.867 25.5375H115.42L117.806 21.4941H118.647L118.66 27.0426H117.691L117.678 23.0248H117.882L115.867 26.4049H115.408L113.341 23.0248H113.584V27.0426H112.602Z" fill="#A3A3A3"/>
<path d="M123.112 23.2032C122.781 22.9098 122.296 22.7695 121.684 22.7695C121.339 22.7695 121.021 22.8078 120.702 22.8971C120.383 22.9864 120.115 23.1139 119.885 23.2925L120.268 24.0195C120.421 23.892 120.625 23.7899 120.855 23.7134C121.084 23.6369 121.314 23.5986 121.556 23.5986C121.913 23.5986 122.169 23.6751 122.347 23.841C122.526 24.0068 122.615 24.2236 122.615 24.517V24.5808H121.518C121.084 24.5808 120.753 24.6318 120.485 24.7466C120.23 24.8614 120.038 25.0144 119.924 25.193C119.809 25.3843 119.758 25.6012 119.758 25.8308C119.758 26.0731 119.822 26.2899 119.949 26.4813C120.077 26.6726 120.268 26.8257 120.498 26.9277C120.74 27.0425 121.008 27.0935 121.327 27.0935C121.697 27.0935 122.015 27.0297 122.258 26.8894C122.424 26.8001 122.564 26.6726 122.653 26.5195V27.0297H123.584V24.5552C123.61 23.9558 123.444 23.4966 123.112 23.2032ZM122.207 26.2134C122.015 26.3282 121.799 26.3792 121.556 26.3792C121.301 26.3792 121.11 26.3282 120.957 26.2262C120.816 26.1241 120.74 25.9838 120.74 25.7925C120.74 25.6394 120.804 25.4991 120.919 25.3971C121.033 25.2823 121.263 25.2313 121.595 25.2313H122.615V25.7287C122.538 25.9328 122.398 26.0986 122.207 26.2134Z" fill="#A3A3A3"/>
<path d="M126.311 22.9874C126.107 23.1022 125.941 23.2425 125.827 23.4338V22.8088H124.883V27.0435H125.878V24.99C125.878 24.5563 125.993 24.2374 126.209 24.0078C126.426 23.791 126.732 23.6762 127.102 23.6762C127.14 23.6762 127.179 23.6762 127.217 23.6762C127.255 23.6762 127.294 23.6889 127.332 23.7017V22.7578C126.924 22.7706 126.579 22.8471 126.311 22.9874Z" fill="#A3A3A3"/>
<path d="M131.365 27.0442H132.564L130.638 24.5824L132.398 22.8095H131.211L129.158 24.71V21.1641H128.176V27.0442H129.158V25.9345L129.898 25.2329L131.365 27.0442Z" fill="#A3A3A3"/>
<path d="M136.732 23.8027C136.553 23.4711 136.298 23.216 135.967 23.0374C135.648 22.8588 135.278 22.7695 134.87 22.7695C134.449 22.7695 134.066 22.8588 133.734 23.0501C133.403 23.2287 133.148 23.4838 132.956 23.8154C132.765 24.1343 132.676 24.517 132.676 24.9379C132.676 25.3588 132.778 25.7287 132.969 26.0603C133.16 26.392 133.428 26.6471 133.785 26.8384C134.143 27.0297 134.551 27.119 135.023 27.119C135.393 27.119 135.724 27.0552 136.005 26.9404C136.285 26.8257 136.528 26.6471 136.719 26.4302L136.183 25.818C136.03 25.9711 135.865 26.0986 135.673 26.1624C135.482 26.2389 135.265 26.2772 135.035 26.2772C134.755 26.2772 134.513 26.2262 134.308 26.1241C134.092 26.0221 133.939 25.869 133.811 25.6777C133.734 25.5501 133.696 25.4226 133.658 25.2695H136.974C136.974 25.2185 136.987 25.1675 136.987 25.1165C136.987 25.0654 136.987 25.0144 136.987 24.9762C137.013 24.5042 136.923 24.1216 136.732 23.8027ZM133.811 24.1598C133.913 23.9685 134.053 23.8282 134.245 23.7262C134.423 23.6241 134.64 23.5731 134.882 23.5731C135.125 23.5731 135.329 23.6241 135.507 23.7262C135.686 23.8282 135.839 23.9813 135.941 24.1598C136.018 24.2874 136.056 24.4404 136.081 24.5935H133.683C133.696 24.4277 133.734 24.2874 133.811 24.1598Z" fill="#A3A3A3"/>
<path d="M140.23 26.1116C140.077 26.2264 139.898 26.2902 139.682 26.2902C139.503 26.2902 139.35 26.2392 139.248 26.1244C139.146 26.0096 139.095 25.8565 139.095 25.6525V23.6372H140.23V22.8463H139.095V21.877H138.1V22.8463H137.398V23.6372H138.1V25.678C138.1 26.1499 138.228 26.5071 138.483 26.7494C138.738 26.9917 139.095 27.1065 139.554 27.1065C139.733 27.1065 139.911 27.081 140.077 27.03C140.243 26.979 140.383 26.9152 140.511 26.8132L140.23 26.1116Z" fill="#A3A3A3"/>
<path d="M141.821 22.1198C141.643 22.1198 141.49 22.056 141.362 21.9412C141.247 21.8265 141.184 21.6861 141.184 21.5203C141.184 21.3545 141.247 21.2142 141.362 21.0994C141.477 20.9846 141.63 20.9336 141.821 20.9336C142 20.9336 142.153 20.9846 142.281 21.0994C142.395 21.2142 142.459 21.3418 142.459 21.5076C142.459 21.6861 142.395 21.8265 142.281 21.9412C142.166 22.056 142.013 22.1198 141.821 22.1198ZM141.324 27.0433V22.8086H142.319V27.0433H141.324Z" fill="#A3A3A3"/>
<path d="M147.551 23.5741C147.398 23.3063 147.194 23.1022 146.926 22.9619C146.658 22.8343 146.352 22.7578 146.02 22.7578C145.65 22.7578 145.319 22.8343 145.038 22.9746C144.847 23.0767 144.694 23.2042 144.553 23.3573V22.8088H143.609V27.0435H144.604V24.9007C144.604 24.6201 144.655 24.3777 144.745 24.1864C144.847 23.9951 144.974 23.8548 145.165 23.7655C145.344 23.6762 145.548 23.6252 145.778 23.6252C146.097 23.6252 146.339 23.7144 146.518 23.9058C146.696 24.0843 146.785 24.365 146.785 24.7476V27.0435H147.78V24.6201C147.78 24.1991 147.704 23.842 147.551 23.5741Z" fill="#A3A3A3"/>
<path d="M152.308 22.8088V23.3701C152.168 23.2042 152.002 23.0639 151.81 22.9746C151.53 22.8343 151.198 22.7578 150.841 22.7578C150.433 22.7578 150.076 22.8471 149.757 23.0129C149.438 23.1787 149.17 23.4211 148.992 23.7272C148.8 24.0333 148.711 24.3905 148.711 24.7986C148.711 25.2068 148.8 25.5639 148.992 25.8701C149.183 26.1762 149.438 26.4185 149.757 26.5843C150.076 26.7502 150.446 26.8394 150.841 26.8394C151.198 26.8394 151.517 26.7629 151.81 26.6226C151.976 26.5333 152.129 26.4185 152.257 26.2782V26.5078C152.257 26.9415 152.142 27.2604 151.938 27.4644C151.721 27.6813 151.377 27.7833 150.918 27.7833C150.624 27.7833 150.344 27.7323 150.063 27.643C149.782 27.5537 149.54 27.4262 149.361 27.2731L148.915 28.0129C149.157 28.2042 149.463 28.3573 149.833 28.4593C150.203 28.5614 150.586 28.6124 150.981 28.6124C151.721 28.6124 152.282 28.4338 152.678 28.0639C153.073 27.7068 153.265 27.1328 153.265 26.3675V22.7833L152.308 22.8088ZM152.117 25.4364C152.002 25.615 151.861 25.7553 151.657 25.8701C151.466 25.9721 151.236 26.0231 150.994 26.0231C150.752 26.0231 150.522 25.9721 150.331 25.8701C150.127 25.768 149.974 25.6277 149.872 25.4364C149.757 25.2578 149.706 25.041 149.706 24.8114C149.706 24.569 149.757 24.365 149.872 24.1864C149.986 24.0078 150.14 23.8675 150.331 23.7655C150.535 23.6634 150.752 23.6252 150.994 23.6252C151.236 23.6252 151.466 23.6762 151.657 23.7655C151.849 23.8675 152.002 24.0078 152.117 24.1864C152.231 24.365 152.282 24.5818 152.282 24.8114C152.27 25.041 152.219 25.2578 152.117 25.4364Z" fill="#A3A3A3"/>
</svg>
