<svg width="211" height="45" viewBox="0 0 211 45" fill="none" xmlns="http://www.w3.org/2000/svg">
<path d="M48.6429 24.9873L48.5663 25.2042C47.4184 28.5843 44.4975 30.6761 40.9643 30.6761C38.8469 30.6761 36.8444 29.796 35.3393 28.2271C33.8214 26.6327 32.9796 24.5664 32.9796 22.3853C32.9796 20.1276 33.7832 18.0868 35.3393 16.4669C36.8444 14.8853 38.8469 14.0179 40.9643 14.0179C44.5102 14.0179 47.2143 15.9057 48.375 19.1965L48.4515 19.4006H52.4949L52.3929 19.0179C51.7041 16.3139 50.2755 14.0435 48.2602 12.4363C46.2449 10.8292 43.7194 10.0001 40.977 10.0001C37.8265 9.98734 34.7398 11.3266 32.5077 13.6353C30.2372 16.0077 29 19.12 29 22.3725C29 25.5741 30.2372 28.6736 32.4949 31.0715C34.727 33.4185 37.75 34.7067 40.9643 34.7067C46.5765 34.7067 51.1173 31.046 52.5332 25.3827L52.6352 25.0001C52.6352 24.9873 48.6429 24.9873 48.6429 24.9873Z" fill="#A3A3A3"/>
<path d="M60.124 31.0212V24.5416H70.9148V20.8044H60.124V14.363H71.1571V10.6641H56.3867V34.7202H71.1954V31.0212H60.124Z" fill="#A3A3A3"/>
<path d="M79.2284 10.5859H75.5039V34.7186H79.2284V10.5859Z" fill="#A3A3A3"/>
<path d="M87.8406 32.4746C87.8788 33.7246 86.9605 34.7195 85.5191 34.7195C84.2309 34.7195 83.3125 33.7246 83.3125 32.4746C83.3125 31.1863 84.2691 30.1914 85.5957 30.1914C86.9732 30.1914 87.8406 31.1991 87.8406 32.4746Z" fill="#A3A3A3"/>
<path d="M105.045 16.2239C104.624 16.2239 104.229 16.1602 103.872 16.0199C103.515 15.8795 103.196 15.6755 102.928 15.4204C102.66 15.1653 102.456 14.8591 102.303 14.5147C102.15 14.1704 102.086 13.7877 102.086 13.3795C102.086 12.9714 102.162 12.5887 102.303 12.2443C102.443 11.9 102.66 11.5938 102.928 11.3387C103.196 11.0836 103.515 10.8795 103.872 10.7392C104.229 10.5989 104.624 10.5352 105.058 10.5352C105.517 10.5352 105.925 10.6117 106.308 10.7647C106.678 10.9178 106.997 11.1474 107.265 11.4535L106.601 12.0785C106.397 11.8617 106.18 11.6959 105.925 11.5938C105.683 11.479 105.402 11.428 105.122 11.428C104.828 11.428 104.56 11.479 104.331 11.5683C104.088 11.6576 103.884 11.7979 103.706 11.9765C103.527 12.1551 103.387 12.3591 103.298 12.5887C103.196 12.8311 103.157 13.0862 103.157 13.3795C103.157 13.6602 103.208 13.928 103.298 14.1704C103.4 14.4127 103.527 14.6168 103.706 14.7826C103.884 14.9612 104.088 15.0887 104.331 15.1908C104.573 15.2801 104.841 15.3311 105.122 15.3311C105.415 15.3311 105.683 15.2801 105.925 15.1653C106.168 15.0505 106.397 14.8974 106.601 14.6678L107.265 15.3056C107.009 15.6117 106.691 15.8413 106.308 15.9943C105.925 16.1474 105.504 16.2239 105.045 16.2239Z" fill="#A3A3A3"/>
<path d="M111.689 12.8945C111.51 12.5629 111.255 12.3078 110.924 12.1292C110.605 11.9506 110.235 11.8613 109.827 11.8613C109.406 11.8613 109.023 11.9506 108.691 12.1419C108.36 12.3205 108.105 12.5756 107.913 12.9072C107.722 13.2261 107.633 13.6088 107.633 14.0297C107.633 14.4506 107.735 14.8205 107.926 15.1521C108.118 15.4838 108.385 15.7389 108.743 15.9302C109.1 16.1215 109.508 16.2108 109.98 16.2108C110.35 16.2108 110.681 16.147 110.962 16.0322C111.255 15.9175 111.485 15.7389 111.676 15.522L111.14 14.9098C110.987 15.0629 110.822 15.1904 110.63 15.2542C110.439 15.3307 110.222 15.369 109.993 15.369C109.712 15.369 109.47 15.318 109.265 15.2159C109.049 15.1139 108.896 14.9608 108.768 14.7695C108.691 14.6419 108.653 14.5144 108.615 14.3613H111.931C111.931 14.3103 111.944 14.2593 111.944 14.2083C111.944 14.1572 111.944 14.1062 111.944 14.068C111.97 13.6088 111.868 13.2261 111.689 12.8945ZM108.755 13.2516C108.857 13.0603 108.998 12.92 109.189 12.818C109.368 12.7159 109.584 12.6649 109.827 12.6649C110.069 12.6649 110.273 12.7159 110.452 12.818C110.63 12.92 110.783 13.0731 110.885 13.2516C110.962 13.3792 111 13.5322 111.026 13.6853H108.628C108.64 13.5322 108.691 13.3792 108.755 13.2516Z" fill="#A3A3A3"/>
<path d="M116.855 12.6659C116.702 12.3981 116.498 12.194 116.23 12.0537C115.963 11.9261 115.656 11.8496 115.325 11.8496C114.955 11.8496 114.623 11.9261 114.343 12.0664C114.151 12.1685 113.998 12.296 113.858 12.4491V11.9006H112.914V16.1353H113.909V14.0052C113.909 13.7246 113.96 13.4823 114.049 13.2909C114.151 13.0996 114.279 12.9593 114.47 12.87C114.649 12.7807 114.853 12.7297 115.082 12.7297C115.401 12.7297 115.644 12.819 115.822 13.0103C116.001 13.1889 116.09 13.4695 116.09 13.8522V16.1481H117.085V13.7246C117.085 13.2909 117.008 12.9465 116.855 12.6659Z" fill="#A3A3A3"/>
<path d="M120.605 15.2044C120.452 15.3192 120.273 15.3829 120.057 15.3829C119.878 15.3829 119.725 15.3319 119.623 15.2171C119.521 15.1023 119.47 14.9493 119.47 14.7452V12.7426H120.605V11.9518H119.47V10.9824H118.475V11.9518H117.773V12.7426H118.475V14.7834C118.475 15.2554 118.603 15.6125 118.858 15.8549C119.113 16.0972 119.47 16.212 119.929 16.212C120.108 16.212 120.286 16.1865 120.452 16.1355C120.618 16.0845 120.758 16.0207 120.886 15.9186L120.605 15.2044Z" fill="#A3A3A3"/>
<path d="M123.132 12.0909C122.928 12.2057 122.762 12.346 122.647 12.5373V11.9123H121.703V16.147H122.698V14.0935C122.698 13.6598 122.813 13.3409 123.03 13.1113C123.246 12.8945 123.553 12.7797 123.923 12.7797C123.961 12.7797 123.999 12.7797 124.037 12.7797C124.076 12.7797 124.114 12.7925 124.152 12.8052V11.8613C123.744 11.8613 123.412 11.9379 123.132 12.0909Z" fill="#A3A3A3"/>
<path d="M126.855 16.1991C126.422 16.1991 126.039 16.1098 125.695 15.9185C125.35 15.7272 125.095 15.4721 124.891 15.1404C124.687 14.8088 124.598 14.4389 124.598 14.018C124.598 13.5971 124.7 13.2272 124.891 12.8955C125.082 12.5767 125.35 12.3215 125.695 12.1302C126.039 11.9517 126.422 11.8496 126.855 11.8496C127.289 11.8496 127.684 11.9389 128.029 12.1302C128.373 12.3088 128.641 12.5639 128.832 12.8955C129.024 13.2144 129.126 13.5971 129.126 14.018C129.126 14.4389 129.024 14.8088 128.832 15.1404C128.641 15.4721 128.373 15.7272 128.029 15.9185C127.684 16.1098 127.289 16.1991 126.855 16.1991ZM126.855 15.3573C127.098 15.3573 127.314 15.3062 127.506 15.2042C127.697 15.1022 127.85 14.9491 127.952 14.745C128.067 14.5409 128.118 14.3113 128.118 14.0435C128.118 13.7629 128.067 13.5333 127.952 13.3292C127.837 13.1251 127.697 12.9848 127.506 12.87C127.314 12.768 127.098 12.717 126.868 12.717C126.626 12.717 126.409 12.768 126.218 12.87C126.026 12.9721 125.886 13.1251 125.771 13.3292C125.656 13.5333 125.605 13.7629 125.605 14.0435C125.605 14.3113 125.656 14.5537 125.771 14.745C125.886 14.9491 126.026 15.1022 126.218 15.2042C126.409 15.2935 126.613 15.3573 126.855 15.3573Z" fill="#A3A3A3"/>
<path d="M135.402 10.2676V12.4359C135.287 12.2956 135.147 12.1936 134.994 12.1043C134.713 11.9513 134.395 11.8747 134.037 11.8747C133.629 11.8747 133.259 11.964 132.94 12.1426C132.622 12.3211 132.366 12.5763 132.175 12.8951C131.997 13.214 131.895 13.5967 131.895 14.0303C131.895 14.464 131.984 14.8467 132.175 15.1655C132.354 15.4844 132.609 15.7395 132.94 15.9181C133.259 16.0967 133.629 16.1859 134.037 16.1859C134.407 16.1859 134.726 16.1094 135.007 15.9436C135.173 15.8543 135.313 15.7268 135.44 15.5737V16.1222H136.384V10.2676H135.402ZM135.249 14.7319C135.134 14.9359 134.981 15.089 134.803 15.191C134.611 15.2931 134.407 15.3441 134.165 15.3441C133.923 15.3441 133.719 15.2931 133.527 15.191C133.336 15.089 133.183 14.9359 133.081 14.7319C132.966 14.5278 132.915 14.2982 132.915 14.0303C132.915 13.7497 132.966 13.5201 133.081 13.316C133.196 13.112 133.349 12.9717 133.527 12.8569C133.719 12.7548 133.923 12.7038 134.165 12.7038C134.407 12.7038 134.611 12.7548 134.803 12.8569C134.994 12.9589 135.147 13.112 135.249 13.316C135.351 13.5201 135.415 13.7497 135.415 14.0303C135.428 14.2982 135.364 14.5405 135.249 14.7319Z" fill="#A3A3A3"/>
<path d="M141.396 12.8945C141.217 12.5629 140.962 12.3078 140.631 12.1292C140.312 11.9506 139.942 11.8613 139.534 11.8613C139.113 11.8613 138.73 11.9506 138.399 12.1419C138.067 12.3333 137.812 12.5756 137.62 12.9072C137.429 13.2261 137.34 13.6088 137.34 14.0297C137.34 14.4506 137.442 14.8205 137.633 15.1521C137.825 15.4838 138.092 15.7389 138.45 15.9302C138.807 16.1215 139.215 16.2108 139.687 16.2108C140.057 16.2108 140.388 16.147 140.669 16.0322C140.962 15.9175 141.192 15.7389 141.383 15.522L140.847 14.9098C140.694 15.0629 140.529 15.1904 140.337 15.2542C140.146 15.3307 139.929 15.369 139.7 15.369C139.419 15.369 139.177 15.318 138.972 15.2159C138.756 15.1139 138.603 14.9608 138.475 14.7695C138.399 14.6419 138.36 14.5144 138.322 14.3613H141.638C141.638 14.3103 141.651 14.2593 141.651 14.2083C141.651 14.1572 141.651 14.1062 141.651 14.068C141.677 13.6088 141.575 13.2261 141.396 12.8945ZM138.462 13.2516C138.564 13.0603 138.705 12.92 138.896 12.818C139.075 12.7159 139.291 12.6649 139.534 12.6649C139.776 12.6649 139.98 12.7159 140.159 12.818C140.337 12.92 140.49 13.0731 140.592 13.2516C140.669 13.3792 140.707 13.5322 140.733 13.6853H138.335C138.347 13.5322 138.399 13.3792 138.462 13.2516Z" fill="#A3A3A3"/>
<path d="M145.939 15.2807V13.7501H148.618V12.9083H145.939V11.467H148.962V10.5996H144.906V16.1481H149.064V15.2807H145.939Z" fill="#A3A3A3"/>
<path d="M151.384 16.1991C151.027 16.1991 150.696 16.1481 150.364 16.0588C150.045 15.9695 149.777 15.8547 149.586 15.7272L149.969 14.9746C150.16 15.0894 150.39 15.1914 150.645 15.2807C150.912 15.3573 151.168 15.3955 151.435 15.3955C151.742 15.3955 151.971 15.3573 152.111 15.268C152.252 15.1787 152.316 15.0639 152.316 14.9236C152.316 14.8088 152.265 14.7195 152.175 14.6557C152.086 14.592 151.958 14.5537 151.805 14.5154C151.652 14.4899 151.486 14.4517 151.295 14.4261C151.104 14.4006 150.925 14.3624 150.734 14.3241C150.543 14.2858 150.377 14.2093 150.224 14.12C150.071 14.0307 149.943 13.9159 149.854 13.7629C149.765 13.6098 149.713 13.4185 149.713 13.1761C149.713 12.9083 149.79 12.6787 149.943 12.4746C150.096 12.2705 150.313 12.1175 150.594 12.0154C150.874 11.9006 151.206 11.8496 151.576 11.8496C151.856 11.8496 152.15 11.8751 152.443 11.9389C152.736 12.0027 152.979 12.092 153.17 12.2068L152.787 12.9593C152.583 12.8445 152.379 12.7552 152.175 12.7042C151.971 12.6532 151.767 12.6404 151.563 12.6404C151.257 12.6404 151.04 12.6914 150.9 12.7807C150.759 12.87 150.683 12.9848 150.683 13.1251C150.683 13.2527 150.734 13.342 150.823 13.4057C150.912 13.4695 151.04 13.5205 151.193 13.5588C151.346 13.5971 151.512 13.6226 151.703 13.6481C151.895 13.6736 152.073 13.7119 152.265 13.7501C152.443 13.8011 152.622 13.8649 152.775 13.9414C152.928 14.018 153.055 14.1328 153.157 14.2858C153.247 14.4389 153.298 14.6302 153.298 14.8598C153.298 15.1277 153.221 15.3573 153.068 15.5486C152.915 15.7399 152.685 15.893 152.405 16.0078C152.124 16.1481 151.78 16.1991 151.384 16.1991Z" fill="#A3A3A3"/>
<path d="M156.421 15.2044C156.268 15.3192 156.09 15.3829 155.873 15.3829C155.694 15.3829 155.541 15.3319 155.439 15.2171C155.337 15.1023 155.286 14.9493 155.286 14.7452V12.7426H156.421V11.9518H155.286V10.9824H154.291V11.9518H153.59V12.7426H154.291V14.7834C154.291 15.2554 154.419 15.6125 154.674 15.8549C154.929 16.0972 155.286 16.212 155.745 16.212C155.924 16.212 156.103 16.1865 156.268 16.1355C156.434 16.0845 156.575 16.0207 156.702 15.9186L156.421 15.2044Z" fill="#A3A3A3"/>
<path d="M160.63 11.9141V14.0569C160.63 14.3375 160.579 14.5671 160.49 14.7585C160.388 14.9498 160.26 15.0901 160.081 15.1921C159.916 15.2814 159.712 15.3324 159.469 15.3324C159.15 15.3324 158.908 15.2431 158.742 15.0518C158.576 14.8605 158.487 14.5799 158.487 14.1972V11.9141H157.492V14.3248C157.492 14.7457 157.569 15.1028 157.722 15.3707C157.875 15.6513 158.092 15.8554 158.36 15.9829C158.64 16.1232 158.946 16.187 159.316 16.187C159.648 16.187 159.941 16.1105 160.222 15.9702C160.4 15.8681 160.553 15.7533 160.681 15.6003V16.136H161.625V11.9141H160.63Z" fill="#A3A3A3"/>
<path d="M166.066 10.2676V12.4359C165.951 12.2956 165.811 12.1936 165.658 12.1043C165.377 11.9513 165.059 11.8747 164.701 11.8747C164.293 11.8747 163.923 11.964 163.605 12.1426C163.286 12.3211 163.031 12.5763 162.839 12.8951C162.661 13.214 162.559 13.5967 162.559 14.0303C162.559 14.464 162.648 14.8467 162.839 15.1655C163.018 15.4844 163.273 15.7395 163.605 15.9181C163.923 16.0967 164.293 16.1859 164.701 16.1859C165.071 16.1859 165.39 16.1094 165.671 15.9436C165.837 15.8543 165.977 15.7268 166.105 15.5737V16.1222H167.048V10.2676H166.066ZM165.913 14.7319C165.798 14.9359 165.645 15.089 165.467 15.191C165.275 15.2931 165.071 15.3441 164.829 15.3441C164.587 15.3441 164.383 15.2931 164.191 15.191C164 15.089 163.847 14.9359 163.745 14.7319C163.63 14.5278 163.579 14.2982 163.579 14.0303C163.579 13.7497 163.63 13.5201 163.745 13.316C163.86 13.112 164.013 12.9717 164.191 12.8569C164.383 12.7548 164.587 12.7038 164.829 12.7038C165.071 12.7038 165.275 12.7548 165.467 12.8569C165.658 12.9589 165.811 13.112 165.913 13.316C166.015 13.5201 166.079 13.7497 166.079 14.0303C166.092 14.2982 166.028 14.5405 165.913 14.7319Z" fill="#A3A3A3"/>
<path d="M168.86 11.2116C168.682 11.2116 168.529 11.1478 168.401 11.033C168.286 10.9182 168.223 10.7779 168.223 10.6121C168.223 10.4463 168.286 10.306 168.401 10.1912C168.516 10.0764 168.669 10.0254 168.86 10.0254C169.039 10.0254 169.192 10.0764 169.32 10.1912C169.447 10.306 169.498 10.4336 169.498 10.5994C169.498 10.7779 169.434 10.9182 169.32 11.033C169.205 11.1606 169.052 11.2116 168.86 11.2116ZM168.363 16.1478V11.9131H169.358V16.1478H168.363Z" fill="#A3A3A3"/>
<path d="M172.558 16.1991C172.125 16.1991 171.742 16.1098 171.398 15.9185C171.053 15.7272 170.798 15.4721 170.594 15.1404C170.403 14.8088 170.301 14.4389 170.301 14.018C170.301 13.5971 170.403 13.2272 170.594 12.8955C170.785 12.5767 171.053 12.3215 171.398 12.1302C171.742 11.9517 172.125 11.8496 172.558 11.8496C172.992 11.8496 173.388 11.9389 173.732 12.1302C174.076 12.3088 174.344 12.5639 174.535 12.8955C174.727 13.2144 174.829 13.5971 174.829 14.018C174.829 14.4389 174.727 14.8088 174.535 15.1404C174.344 15.4721 174.076 15.7272 173.732 15.9185C173.375 16.1098 172.992 16.1991 172.558 16.1991ZM172.558 15.3573C172.801 15.3573 173.018 15.3062 173.209 15.2042C173.4 15.1022 173.553 14.9491 173.655 14.745C173.77 14.5409 173.821 14.3113 173.821 14.0435C173.821 13.7629 173.77 13.5333 173.655 13.3292C173.541 13.1251 173.4 12.9848 173.209 12.87C173.018 12.768 172.801 12.717 172.571 12.717C172.329 12.717 172.112 12.768 171.921 12.87C171.729 12.9721 171.589 13.1251 171.474 13.3292C171.359 13.5333 171.308 13.7629 171.308 14.0435C171.308 14.3113 171.359 14.5537 171.474 14.745C171.589 14.9491 171.729 15.1022 171.921 15.2042C172.099 15.2935 172.316 15.3573 172.558 15.3573Z" fill="#A3A3A3"/>
<path d="M177.072 16.1991C176.715 16.1991 176.383 16.1481 176.051 16.0588C175.733 15.9695 175.465 15.8547 175.273 15.7272L175.656 14.9746C175.847 15.0894 176.077 15.1914 176.332 15.2807C176.6 15.3573 176.855 15.3955 177.123 15.3955C177.429 15.3955 177.659 15.3573 177.799 15.268C177.939 15.1787 178.003 15.0639 178.003 14.9236C178.003 14.8088 177.952 14.7195 177.863 14.6557C177.773 14.592 177.646 14.5537 177.493 14.5154C177.34 14.4772 177.174 14.4517 176.983 14.4261C176.791 14.4006 176.613 14.3624 176.421 14.3241C176.23 14.2731 176.064 14.2093 175.911 14.12C175.758 14.0307 175.631 13.9159 175.541 13.7629C175.452 13.6098 175.401 13.4185 175.401 13.1761C175.401 12.9083 175.478 12.6787 175.631 12.4746C175.784 12.2705 176 12.1175 176.281 12.0154C176.562 11.9006 176.893 11.8496 177.263 11.8496C177.544 11.8496 177.837 11.8751 178.131 11.9389C178.424 12.0027 178.666 12.092 178.858 12.2068L178.475 12.9593C178.271 12.8445 178.067 12.7552 177.863 12.7042C177.659 12.6532 177.455 12.6404 177.25 12.6404C176.944 12.6404 176.728 12.6914 176.587 12.7807C176.447 12.87 176.37 12.9848 176.37 13.1251C176.37 13.2527 176.421 13.342 176.511 13.4057C176.6 13.4695 176.728 13.5205 176.881 13.5588C177.034 13.5971 177.199 13.6226 177.391 13.6481C177.582 13.6736 177.761 13.7119 177.952 13.7501C178.131 13.8011 178.309 13.8649 178.462 13.9414C178.615 14.018 178.743 14.1328 178.845 14.2858C178.934 14.4389 178.985 14.6302 178.985 14.8598C178.985 15.1277 178.909 15.3573 178.756 15.5486C178.603 15.7399 178.373 15.893 178.092 16.0078C177.799 16.1481 177.467 16.1991 177.072 16.1991Z" fill="#A3A3A3"/>
<path d="M105.988 19.5273V21.6957C105.873 21.5554 105.733 21.4534 105.58 21.3641C105.299 21.211 104.98 21.1345 104.623 21.1345C104.215 21.1345 103.845 21.2238 103.526 21.4023C103.208 21.5809 102.952 21.836 102.761 22.1549C102.583 22.4738 102.48 22.8564 102.48 23.2901C102.48 23.7238 102.57 24.1064 102.761 24.4253C102.94 24.7442 103.195 24.9993 103.526 25.1779C103.845 25.3564 104.215 25.4457 104.623 25.4457C104.993 25.4457 105.312 25.3692 105.593 25.2034C105.759 25.1141 105.899 24.9865 106.026 24.8335V25.3819H106.97V19.5273H105.988ZM105.835 23.9916C105.72 24.1957 105.567 24.3488 105.389 24.4508C105.197 24.5529 104.993 24.6039 104.751 24.6039C104.509 24.6039 104.304 24.5529 104.113 24.4508C103.922 24.3488 103.769 24.1957 103.667 23.9916C103.552 23.7875 103.501 23.558 103.501 23.2901C103.501 23.0095 103.552 22.7799 103.667 22.5758C103.781 22.3717 103.935 22.2314 104.113 22.1166C104.304 22.0146 104.509 21.9636 104.751 21.9636C104.993 21.9636 105.197 22.0146 105.389 22.1166C105.58 22.2187 105.733 22.3717 105.835 22.5758C105.95 22.7799 106.001 23.0095 106.001 23.2901C106.001 23.558 105.95 23.8003 105.835 23.9916Z" fill="#A3A3A3"/>
<path d="M111.97 22.1543C111.792 21.8226 111.537 21.5675 111.205 21.389C110.886 21.2104 110.516 21.1211 110.108 21.1211C109.687 21.1211 109.304 21.2104 108.973 21.4017C108.641 21.5803 108.386 21.8354 108.195 22.167C108.003 22.4859 107.914 22.8685 107.914 23.2895C107.914 23.7104 108.016 24.0803 108.207 24.4119C108.399 24.7435 108.667 24.9986 109.024 25.19C109.381 25.3813 109.789 25.4706 110.261 25.4706C110.631 25.4706 110.963 25.4068 111.243 25.292C111.537 25.1772 111.766 24.9986 111.957 24.7818L111.422 24.1696C111.269 24.3226 111.103 24.4502 110.912 24.5139C110.72 24.5905 110.503 24.6287 110.274 24.6287C109.993 24.6287 109.751 24.5777 109.547 24.4757C109.33 24.3736 109.177 24.2206 109.049 24.0293C108.973 23.9017 108.934 23.7742 108.896 23.6211H112.213C112.213 23.5701 112.225 23.5191 112.225 23.468C112.225 23.417 112.225 23.366 112.225 23.3277C112.251 22.8685 112.162 22.4859 111.97 22.1543ZM109.049 22.5114C109.151 22.3201 109.292 22.1798 109.483 22.0777C109.662 21.9757 109.878 21.9247 110.121 21.9247C110.363 21.9247 110.567 21.9757 110.746 22.0777C110.924 22.1798 111.077 22.3328 111.179 22.5114C111.256 22.639 111.294 22.792 111.32 22.9451H108.909C108.934 22.792 108.973 22.639 109.049 22.5114Z" fill="#A3A3A3"/>
<path d="M115.492 25.4078V19.8594H116.525V25.4078C116.513 25.4078 115.492 25.4078 115.492 25.4078Z" fill="#A3A3A3"/>
<path d="M121.855 21.9257C121.702 21.6578 121.498 21.4538 121.23 21.3135C120.963 21.1859 120.656 21.1094 120.325 21.1094C119.955 21.1094 119.623 21.1859 119.343 21.3262C119.151 21.4283 118.998 21.5558 118.858 21.7089V21.1604H117.914V25.3951H118.909V23.2522C118.909 22.9716 118.96 22.7293 119.049 22.5379C119.151 22.3466 119.279 22.2063 119.47 22.117C119.649 22.0277 119.853 21.9767 120.082 21.9767C120.401 21.9767 120.644 22.066 120.822 22.2573C121.001 22.4359 121.09 22.7165 121.09 23.0992V25.3951H122.085V22.9716C122.085 22.5507 122.008 22.2063 121.855 21.9257Z" fill="#A3A3A3"/>
<path d="M127.289 21.9257C127.136 21.6578 126.932 21.4538 126.664 21.3135C126.396 21.1859 126.09 21.1094 125.758 21.1094C125.388 21.1094 125.057 21.1859 124.776 21.3262C124.585 21.4283 124.432 21.5558 124.292 21.7089V21.1604H123.348V25.3951H124.343V23.2522C124.343 22.9716 124.394 22.7293 124.483 22.5379C124.585 22.3466 124.712 22.2063 124.904 22.117C125.082 22.0277 125.286 21.9767 125.516 21.9767C125.835 21.9767 126.077 22.066 126.256 22.2573C126.434 22.4359 126.524 22.7165 126.524 23.0992V25.3951H127.519V22.9716C127.519 22.5507 127.442 22.2063 127.289 21.9257Z" fill="#A3A3A3"/>
<path d="M130.683 25.4589C130.25 25.4589 129.867 25.3696 129.523 25.1783C129.178 24.9869 128.923 24.7318 128.719 24.4002C128.528 24.0686 128.426 23.6987 128.426 23.2777C128.426 22.8568 128.528 22.4869 128.719 22.1553C128.91 21.8364 129.178 21.5813 129.523 21.39C129.867 21.2114 130.25 21.1094 130.683 21.1094C131.117 21.1094 131.513 21.1987 131.857 21.39C132.201 21.5686 132.469 21.8237 132.66 22.1553C132.852 22.4742 132.954 22.8568 132.954 23.2777C132.954 23.6987 132.852 24.0686 132.66 24.4002C132.469 24.7318 132.201 24.9869 131.857 25.1783C131.513 25.3696 131.13 25.4589 130.683 25.4589ZM130.683 24.617C130.926 24.617 131.143 24.566 131.334 24.464C131.525 24.3619 131.678 24.2089 131.78 24.0048C131.895 23.8007 131.946 23.5711 131.946 23.3033C131.946 23.0226 131.895 22.793 131.78 22.589C131.666 22.3849 131.525 22.2446 131.334 22.1298C131.143 22.0277 130.926 21.9767 130.696 21.9767C130.454 21.9767 130.237 22.0277 130.046 22.1298C129.854 22.2318 129.714 22.3849 129.599 22.589C129.484 22.793 129.433 23.0226 129.433 23.3033C129.433 23.5711 129.484 23.8135 129.599 24.0048C129.714 24.2089 129.854 24.3619 130.046 24.464C130.237 24.566 130.441 24.617 130.683 24.617Z" fill="#A3A3A3"/>
<path d="M136.777 21.1738L135.425 24.3116L134.111 21.1738H133.078L134.902 25.4085H135.923L137.734 21.1738H136.777Z" fill="#A3A3A3"/>
<path d="M141.257 21.5684C140.925 21.2751 140.441 21.1348 139.828 21.1348C139.484 21.1348 139.165 21.173 138.846 21.2623C138.527 21.3516 138.259 21.4792 138.03 21.6577L138.413 22.3848C138.566 22.2572 138.77 22.1552 138.999 22.0786C139.229 22.0021 139.458 21.9638 139.701 21.9638C140.058 21.9638 140.313 22.0404 140.492 22.2062C140.67 22.372 140.759 22.5888 140.759 22.8822V22.946H139.663C139.229 22.946 138.897 22.997 138.629 23.1118C138.374 23.2266 138.183 23.3797 138.068 23.5582C137.953 23.7496 137.902 23.9664 137.902 24.196C137.902 24.4383 137.966 24.6552 138.094 24.8465C138.221 25.0378 138.413 25.1909 138.642 25.2929C138.884 25.4077 139.152 25.4587 139.471 25.4587C139.841 25.4587 140.16 25.395 140.402 25.2547C140.568 25.1654 140.708 25.0378 140.798 24.8848V25.395H141.729V22.9077C141.767 22.3082 141.589 21.8618 141.257 21.5684ZM140.351 24.5786C140.16 24.6934 139.943 24.7445 139.701 24.7445C139.446 24.7445 139.254 24.6934 139.101 24.5914C138.961 24.4894 138.884 24.3491 138.884 24.1577C138.884 24.0047 138.948 23.8644 139.063 23.7623C139.178 23.6475 139.407 23.5965 139.739 23.5965H140.759V24.0939C140.683 24.298 140.543 24.4638 140.351 24.5786Z" fill="#A3A3A3"/>
<path d="M144.98 25.4589C144.533 25.4589 144.138 25.3696 143.793 25.1783C143.449 24.9869 143.181 24.7318 142.977 24.4002C142.786 24.0686 142.684 23.6987 142.684 23.2777C142.684 22.8568 142.786 22.4869 142.977 22.1553C143.168 21.8364 143.449 21.5813 143.793 21.39C144.138 21.2114 144.533 21.1094 144.98 21.1094C145.388 21.1094 145.758 21.1987 146.064 21.3645C146.383 21.5303 146.612 21.7726 146.778 22.0915L146.013 22.5379C145.885 22.3339 145.732 22.1936 145.553 22.0915C145.375 21.9895 145.171 21.9512 144.967 21.9512C144.724 21.9512 144.508 22.0022 144.303 22.1043C144.112 22.2063 143.959 22.3594 143.844 22.5635C143.73 22.7675 143.678 22.9971 143.678 23.2777C143.678 23.5584 143.73 23.7879 143.844 23.992C143.959 24.1961 144.112 24.3364 144.303 24.4512C144.495 24.5533 144.712 24.6043 144.967 24.6043C145.184 24.6043 145.375 24.5533 145.553 24.464C145.732 24.3747 145.885 24.2216 146.013 24.0175L146.778 24.464C146.612 24.7828 146.37 25.0252 146.064 25.191C145.758 25.3696 145.388 25.4589 144.98 25.4589Z" fill="#A3A3A3"/>
<path d="M148.107 20.4714C147.928 20.4714 147.775 20.4076 147.647 20.2928C147.533 20.178 147.469 20.0377 147.469 19.8719C147.469 19.7061 147.533 19.5658 147.647 19.451C147.762 19.3362 147.915 19.2852 148.107 19.2852C148.298 19.2852 148.438 19.3362 148.566 19.451C148.693 19.5658 148.744 19.6933 148.744 19.8591C148.744 20.0377 148.68 20.178 148.566 20.2928C148.438 20.4204 148.298 20.4714 148.107 20.4714ZM147.596 25.4076V21.1729H148.591V25.4076H147.596Z" fill="#A3A3A3"/>
<path d="M151.793 25.4595C151.359 25.4595 150.976 25.3702 150.632 25.1789C150.288 24.9876 150.033 24.7325 149.829 24.4008C149.637 24.0692 149.535 23.6993 149.535 23.2784C149.535 22.8575 149.637 22.4876 149.829 22.1559C150.02 21.8371 150.288 21.582 150.632 21.3906C150.976 21.2121 151.359 21.11 151.793 21.11C152.226 21.11 152.622 21.1993 152.966 21.3906C153.311 21.5692 153.579 21.8243 153.77 22.1559C153.961 22.4748 154.063 22.8575 154.063 23.2784C154.063 23.6993 153.961 24.0692 153.77 24.4008C153.579 24.7325 153.311 24.9876 152.966 25.1789C152.622 25.3702 152.226 25.4595 151.793 25.4595ZM151.793 24.6177C152.035 24.6177 152.252 24.5666 152.443 24.4646C152.635 24.3626 152.788 24.2095 152.89 24.0054C153.005 23.8013 153.056 23.5717 153.056 23.3039C153.056 23.0233 153.005 22.7937 152.89 22.5896C152.775 22.3855 152.635 22.2452 152.443 22.1304C152.252 22.0284 152.035 21.9774 151.806 21.9774C151.563 21.9774 151.346 22.0284 151.155 22.1304C150.964 22.2325 150.823 22.3855 150.709 22.5896C150.594 22.7937 150.543 23.0233 150.543 23.3039C150.543 23.5717 150.594 23.8141 150.709 24.0054C150.823 24.2095 150.964 24.3626 151.155 24.4646C151.346 24.5666 151.55 24.6177 151.793 24.6177ZM151.117 20.5998L152.188 19.5156H153.349L151.971 20.5998H151.117Z" fill="#A3A3A3"/>
<path d="M158.934 21.9257C158.78 21.6578 158.576 21.4538 158.309 21.3135C158.041 21.1859 157.735 21.1094 157.403 21.1094C157.033 21.1094 156.701 21.1859 156.421 21.3262C156.229 21.4283 156.076 21.5558 155.936 21.7089V21.1604H154.992V25.3951H155.987V23.2522C155.987 22.9716 156.038 22.7293 156.127 22.5379C156.229 22.3466 156.357 22.2063 156.548 22.117C156.74 22.0277 156.931 21.9767 157.161 21.9767C157.479 21.9767 157.722 22.066 157.9 22.2573C158.079 22.4359 158.168 22.7165 158.168 23.0992V25.3951H159.163V22.9716C159.163 22.5507 159.087 22.2063 158.934 21.9257Z" fill="#A3A3A3"/>
<path d="M102.48 34.6813V29.1328H104.904C105.503 29.1328 106.039 29.2476 106.486 29.4772C106.945 29.7068 107.289 30.0257 107.544 30.4466C107.799 30.8547 107.927 31.3394 107.927 31.9007C107.927 32.4491 107.799 32.9466 107.544 33.3548C107.289 33.7629 106.932 34.0945 106.486 34.3241C106.026 34.5537 105.503 34.6685 104.904 34.6685L102.48 34.6813ZM103.514 33.8139H104.866C105.287 33.8139 105.644 33.7374 105.95 33.5716C106.256 33.4185 106.486 33.1889 106.651 32.9083C106.817 32.6277 106.906 32.2961 106.906 31.9134C106.906 31.5308 106.817 31.1991 106.651 30.9058C106.486 30.6124 106.243 30.4083 105.95 30.2425C105.644 30.0894 105.287 30.0002 104.866 30.0002H103.514V33.8139Z" fill="#A3A3A3"/>
<path d="M109.431 29.7585C109.252 29.7585 109.099 29.6947 108.972 29.5799C108.857 29.4651 108.793 29.3248 108.793 29.159C108.793 28.9932 108.857 28.8529 108.972 28.7381C109.086 28.6233 109.239 28.5723 109.431 28.5723C109.609 28.5723 109.762 28.6233 109.89 28.7381C110.005 28.8529 110.068 28.9804 110.068 29.1462C110.068 29.3248 110.005 29.4651 109.89 29.5799C109.775 29.6947 109.622 29.7585 109.431 29.7585ZM108.933 34.682V30.4473H109.928V34.682H108.933Z" fill="#A3A3A3"/>
<path d="M112.533 34.746C112.176 34.746 111.844 34.695 111.512 34.6057C111.194 34.5164 110.926 34.4016 110.734 34.274L111.117 33.5215C111.308 33.6363 111.538 33.7383 111.793 33.8276C112.061 33.9041 112.316 33.9424 112.584 33.9424C112.89 33.9424 113.12 33.9041 113.26 33.8149C113.4 33.7256 113.464 33.6108 113.464 33.4705C113.464 33.3557 113.413 33.2664 113.324 33.2026C113.234 33.1388 113.107 33.1006 112.954 33.0623C112.801 33.0368 112.635 32.9985 112.444 32.973C112.252 32.9475 112.074 32.9092 111.882 32.871C111.691 32.82 111.525 32.7562 111.372 32.6669C111.219 32.5776 111.092 32.4628 111.002 32.3097C110.913 32.1567 110.862 31.9654 110.862 31.723C110.862 31.4552 110.938 31.2256 111.092 31.0215C111.245 30.8174 111.461 30.6643 111.742 30.5623C112.023 30.4475 112.354 30.3965 112.724 30.3965C113.005 30.3965 113.298 30.422 113.592 30.4858C113.885 30.5495 114.127 30.6388 114.319 30.7536L113.936 31.5062C113.732 31.3914 113.528 31.3021 113.324 31.2511C113.12 31.2001 112.915 31.1873 112.711 31.1873C112.405 31.1873 112.188 31.2383 112.048 31.3276C111.908 31.4169 111.831 31.5317 111.831 31.672C111.831 31.7995 111.882 31.8888 111.972 31.9526C112.061 32.0164 112.188 32.0674 112.342 32.1057C112.495 32.1439 112.66 32.1694 112.852 32.195C113.043 32.2205 113.222 32.2587 113.413 32.297C113.592 32.348 113.77 32.4118 113.923 32.4883C114.076 32.5649 114.204 32.6796 114.306 32.8327C114.395 32.9858 114.446 33.1771 114.446 33.4067C114.446 33.6745 114.37 33.9041 114.217 34.0955C114.063 34.2868 113.834 34.4399 113.553 34.5546C113.273 34.6822 112.928 34.746 112.533 34.746Z" fill="#A3A3A3"/>
<path d="M118.998 31.4414C118.819 31.1097 118.564 30.8546 118.232 30.6761C117.913 30.4975 117.543 30.4082 117.135 30.4082C116.714 30.4082 116.332 30.4975 116 30.6888C115.668 30.8674 115.413 31.1225 115.222 31.4541C115.031 31.773 114.941 32.1557 114.941 32.5766C114.941 32.9975 115.043 33.3674 115.235 33.699C115.426 34.0307 115.694 34.2858 116.051 34.4771C116.408 34.6684 116.816 34.7577 117.288 34.7577C117.658 34.7577 117.99 34.6939 118.27 34.5791C118.551 34.4643 118.793 34.2858 118.985 34.0689L118.449 33.4567C118.296 33.6097 118.13 33.7373 117.939 33.8011C117.748 33.8776 117.531 33.9159 117.301 33.9159C117.02 33.9159 116.778 33.8648 116.574 33.7628C116.357 33.6608 116.204 33.5077 116.077 33.3164C116 33.1888 115.962 33.0613 115.924 32.9082H119.24C119.24 32.8572 119.253 32.8062 119.253 32.7551C119.253 32.7041 119.253 32.6531 119.253 32.6148C119.278 32.1429 119.189 31.7602 118.998 31.4414ZM116.077 31.7985C116.179 31.6072 116.319 31.4669 116.51 31.3648C116.689 31.2628 116.906 31.2118 117.148 31.2118C117.39 31.2118 117.594 31.2628 117.773 31.3648C117.952 31.4669 118.105 31.6199 118.207 31.7985C118.283 31.9261 118.322 32.0791 118.347 32.2322H115.949C115.962 32.0664 116 31.9261 116.077 31.7985Z" fill="#A3A3A3"/>
<path d="M121.537 29.478C121.601 29.3887 121.69 29.3504 121.805 29.3504C121.882 29.3504 121.958 29.3759 122.022 29.4269C122.086 29.478 122.175 29.5417 122.252 29.6183C122.328 29.6948 122.43 29.7458 122.532 29.7968C122.634 29.8479 122.749 29.8734 122.877 29.8734C123.132 29.8734 123.336 29.7713 123.489 29.58C123.642 29.3887 123.718 29.1336 123.731 28.8274H123.195C123.195 28.9678 123.157 29.0826 123.081 29.1591C123.004 29.2356 122.915 29.2739 122.813 29.2739C122.749 29.2739 122.672 29.2484 122.596 29.1973C122.519 29.1463 122.443 29.0825 122.366 29.0188C122.29 28.955 122.188 28.8912 122.086 28.8402C121.984 28.7892 121.869 28.7637 121.741 28.7637C121.486 28.7637 121.282 28.853 121.129 29.0443C120.976 29.2356 120.899 29.4907 120.887 29.8223H121.422C121.435 29.682 121.473 29.5672 121.537 29.478Z" fill="#A3A3A3"/>
<path d="M124.164 31.2128C124.011 30.945 123.807 30.7409 123.539 30.6006C123.271 30.473 122.965 30.3965 122.633 30.3965C122.263 30.3965 121.932 30.473 121.651 30.6133C121.46 30.7154 121.307 30.8429 121.167 30.996V30.4475H120.223V34.6822H121.218V32.5393C121.218 32.2587 121.269 32.0164 121.358 31.8251C121.46 31.6337 121.587 31.4934 121.779 31.4041C121.97 31.3149 122.161 31.2638 122.391 31.2638C122.71 31.2638 122.952 31.3531 123.131 31.5444C123.309 31.723 123.399 32.0036 123.399 32.3863V34.6822H124.394V32.2587C124.394 31.8378 124.317 31.4807 124.164 31.2128Z" fill="#A3A3A3"/>
<path d="M127.57 34.746C127.136 34.746 126.754 34.6567 126.409 34.4654C126.065 34.274 125.81 34.0189 125.606 33.6873C125.415 33.3557 125.312 32.9858 125.312 32.5649C125.312 32.1439 125.415 31.774 125.606 31.4424C125.797 31.1235 126.065 30.8684 126.409 30.6771C126.754 30.4985 127.136 30.3965 127.57 30.3965C128.004 30.3965 128.399 30.4858 128.744 30.6771C129.088 30.8557 129.356 31.1108 129.547 31.4424C129.739 31.7613 129.841 32.1439 129.841 32.5649C129.841 32.9858 129.739 33.3557 129.547 33.6873C129.356 34.0189 129.088 34.274 128.744 34.4654C128.399 34.6439 128.004 34.746 127.57 34.746ZM127.57 33.8914C127.813 33.8914 128.029 33.8404 128.221 33.7383C128.412 33.6363 128.565 33.4832 128.667 33.2791C128.769 33.0751 128.833 32.8455 128.833 32.5776C128.833 32.297 128.782 32.0674 128.667 31.8633C128.552 31.6592 128.412 31.5189 128.221 31.4041C128.029 31.3021 127.813 31.2511 127.583 31.2511C127.341 31.2511 127.124 31.3021 126.932 31.4041C126.741 31.5062 126.601 31.6592 126.486 31.8633C126.371 32.0674 126.32 32.297 126.32 32.5776C126.32 32.8455 126.371 33.0878 126.486 33.2791C126.601 33.4832 126.741 33.6363 126.932 33.7383C127.124 33.8404 127.328 33.8914 127.57 33.8914Z" fill="#A3A3A3"/>
<path d="M135.976 30.4473L134.636 33.5723L133.31 30.4473H132.277L134.126 34.6947L134.05 34.8605C133.96 35.0774 133.846 35.2177 133.744 35.307C133.629 35.3962 133.489 35.4473 133.31 35.4473C133.182 35.4473 133.042 35.4218 132.927 35.3707C132.8 35.3197 132.685 35.2432 132.583 35.1539L132.188 35.8809C132.328 35.9957 132.494 36.0978 132.698 36.1616C132.902 36.2253 133.106 36.2636 133.31 36.2636C133.552 36.2636 133.769 36.2253 133.96 36.1488C134.165 36.0723 134.343 35.9447 134.496 35.7661C134.662 35.5876 134.802 35.3325 134.93 35.0136L136.907 30.4473H135.976Z" fill="#A3A3A3"/>
<path d="M139.828 34.6813V29.1328H140.67L143.093 33.1762H142.647L145.032 29.1328H145.874L145.887 34.6813H144.917L144.905 30.6634H145.109L143.093 34.0435H142.634L140.568 30.6634H140.81V34.6813H139.828Z" fill="#A3A3A3"/>
<path d="M150.339 30.8419C150.007 30.5485 149.523 30.4082 148.91 30.4082C148.566 30.4082 148.247 30.4465 147.928 30.5358C147.609 30.625 147.342 30.7526 147.112 30.9312L147.495 31.6582C147.648 31.5307 147.852 31.4286 148.081 31.3521C148.311 31.2755 148.54 31.2373 148.783 31.2373C149.14 31.2373 149.395 31.3138 149.574 31.4796C149.752 31.6454 149.842 31.8623 149.842 32.1557V32.2194H148.745C148.311 32.2194 147.979 32.2704 147.711 32.3852C147.456 32.5 147.265 32.6531 147.15 32.8317C147.035 33.023 146.984 33.2398 146.984 33.4694C146.984 33.7118 147.048 33.9286 147.176 34.1199C147.303 34.3113 147.495 34.4643 147.724 34.5664C147.967 34.6812 148.234 34.7322 148.553 34.7322C148.923 34.7322 149.242 34.6684 149.484 34.5281C149.65 34.4388 149.79 34.3113 149.88 34.1582V34.6684H150.811V32.1939C150.836 31.5944 150.671 31.1352 150.339 30.8419ZM149.433 33.8521C149.242 33.9669 149.025 34.0179 148.783 34.0179C148.528 34.0179 148.336 33.9669 148.183 33.8648C148.043 33.7628 147.967 33.6225 147.967 33.4312C147.967 33.2781 148.03 33.1378 148.145 33.0358C148.26 32.921 148.489 32.8699 148.821 32.8699H149.842V33.3674C149.765 33.5715 149.625 33.7373 149.433 33.8521Z" fill="#A3A3A3"/>
<path d="M153.538 30.6261C153.334 30.7409 153.168 30.8812 153.053 31.0725V30.4475H152.109V34.6822H153.104V32.6286C153.104 32.195 153.219 31.8761 153.436 31.6465C153.653 31.4296 153.959 31.3149 154.329 31.3149C154.367 31.3149 154.405 31.3149 154.444 31.3149C154.482 31.3149 154.52 31.3276 154.558 31.3404V30.3965C154.15 30.4092 153.806 30.4858 153.538 30.6261Z" fill="#A3A3A3"/>
<path d="M158.591 34.6828H159.79L157.864 32.2211L159.624 30.4481H158.438L156.384 32.3487V28.8027H155.402V34.6828H156.384V33.5731L157.124 32.8716L158.591 34.6828Z" fill="#A3A3A3"/>
<path d="M163.958 31.4414C163.78 31.1097 163.525 30.8546 163.193 30.6761C162.874 30.4975 162.504 30.4082 162.096 30.4082C161.675 30.4082 161.293 30.4975 160.961 30.6888C160.629 30.8674 160.374 31.1225 160.183 31.4541C159.992 31.773 159.902 32.1557 159.902 32.5766C159.902 32.9975 160.004 33.3674 160.196 33.699C160.387 34.0307 160.655 34.2858 161.012 34.4771C161.369 34.6684 161.777 34.7577 162.249 34.7577C162.619 34.7577 162.951 34.6939 163.231 34.5791C163.512 34.4643 163.754 34.2858 163.946 34.0689L163.41 33.4567C163.257 33.6097 163.091 33.7373 162.9 33.8011C162.708 33.8776 162.492 33.9159 162.262 33.9159C161.981 33.9159 161.739 33.8648 161.535 33.7628C161.318 33.6608 161.165 33.5077 161.038 33.3164C160.961 33.1888 160.923 33.0613 160.884 32.9082H164.201C164.201 32.8572 164.214 32.8062 164.214 32.7551C164.214 32.7041 164.214 32.6531 164.214 32.6148C164.239 32.1429 164.15 31.7602 163.958 31.4414ZM161.038 31.7985C161.14 31.6072 161.28 31.4669 161.471 31.3648C161.65 31.2628 161.867 31.2118 162.109 31.2118C162.351 31.2118 162.555 31.2628 162.734 31.3648C162.913 31.4669 163.066 31.6199 163.168 31.7985C163.244 31.9261 163.282 32.0791 163.308 32.2322H160.91C160.923 32.0664 160.961 31.9261 161.038 31.7985Z" fill="#A3A3A3"/>
<path d="M167.457 33.7503C167.304 33.8651 167.125 33.9289 166.908 33.9289C166.73 33.9289 166.577 33.8779 166.474 33.7631C166.372 33.6483 166.321 33.4952 166.321 33.2911V31.2758H167.457V30.485H166.321V29.5156H165.327V30.485H164.625V31.2758H165.327V33.3166C165.327 33.7886 165.454 34.1457 165.709 34.3881C165.964 34.6304 166.321 34.7452 166.781 34.7452C166.959 34.7452 167.138 34.7197 167.304 34.6687C167.469 34.6177 167.61 34.5539 167.737 34.4518L167.457 33.7503Z" fill="#A3A3A3"/>
<path d="M169.048 29.7585C168.869 29.7585 168.716 29.6947 168.589 29.5799C168.474 29.4651 168.41 29.3248 168.41 29.159C168.41 28.9932 168.474 28.8529 168.589 28.7381C168.704 28.6233 168.857 28.5723 169.048 28.5723C169.226 28.5723 169.38 28.6233 169.507 28.7381C169.622 28.8529 169.686 28.9804 169.686 29.1462C169.686 29.3248 169.622 29.4651 169.507 29.5799C169.392 29.6947 169.239 29.7585 169.048 29.7585ZM168.55 34.682V30.4473H169.545V34.682H168.55Z" fill="#A3A3A3"/>
<path d="M174.777 31.2128C174.624 30.945 174.42 30.7409 174.152 30.6006C173.884 30.473 173.578 30.3965 173.247 30.3965C172.877 30.3965 172.545 30.473 172.265 30.6133C172.073 30.7154 171.92 30.8429 171.78 30.996V30.4475H170.836V34.6822H171.831V32.5393C171.831 32.2587 171.882 32.0164 171.971 31.8251C172.073 31.6337 172.201 31.4934 172.392 31.4041C172.571 31.3149 172.775 31.2638 173.004 31.2638C173.323 31.2638 173.566 31.3531 173.744 31.5444C173.923 31.723 174.012 32.0036 174.012 32.3863V34.6822H175.007V32.2587C175.007 31.8378 174.93 31.4807 174.777 31.2128Z" fill="#A3A3A3"/>
<path d="M179.534 30.4475V31.0087C179.394 30.8429 179.228 30.7026 179.037 30.6133C178.756 30.473 178.425 30.3965 178.068 30.3965C177.659 30.3965 177.302 30.4858 176.983 30.6516C176.665 30.8174 176.397 31.0598 176.218 31.3659C176.027 31.672 175.938 32.0291 175.938 32.4373C175.938 32.8455 176.027 33.2026 176.218 33.5087C176.409 33.8149 176.665 34.0572 176.983 34.223C177.302 34.3888 177.672 34.4781 178.068 34.4781C178.425 34.4781 178.744 34.4016 179.037 34.2613C179.203 34.172 179.356 34.0572 179.483 33.9169V34.1465C179.483 34.5802 179.369 34.899 179.165 35.1031C178.948 35.32 178.603 35.422 178.144 35.422C177.851 35.422 177.57 35.371 177.29 35.2817C177.009 35.1924 176.767 35.0649 176.588 34.9118L176.142 35.6516C176.384 35.8429 176.69 35.996 177.06 36.098C177.43 36.2001 177.813 36.2511 178.208 36.2511C178.948 36.2511 179.509 36.0725 179.904 35.7026C180.3 35.3455 180.491 34.7715 180.491 34.0062V30.422L179.534 30.4475ZM179.343 33.0751C179.228 33.2536 179.088 33.3939 178.884 33.5087C178.693 33.6108 178.463 33.6618 178.221 33.6618C177.978 33.6618 177.749 33.6108 177.557 33.5087C177.353 33.4067 177.2 33.2664 177.098 33.0751C176.983 32.8965 176.932 32.6796 176.932 32.4501C176.932 32.2077 176.983 32.0036 177.098 31.8251C177.213 31.6465 177.366 31.5062 177.557 31.4041C177.761 31.3021 177.978 31.2638 178.221 31.2638C178.463 31.2638 178.693 31.3149 178.884 31.4041C179.075 31.5062 179.228 31.6465 179.343 31.8251C179.458 32.0036 179.509 32.2205 179.509 32.4501C179.496 32.6796 179.445 32.8965 179.343 33.0751Z" fill="#A3A3A3"/>
</svg>
