<svg width="211" height="45" viewBox="0 0 211 45" fill="none" xmlns="http://www.w3.org/2000/svg">
<path fill-rule="evenodd" clip-rule="evenodd" d="M62 43C73.0469 43 82 34.0449 82 23C82 11.9551 73.0469 3 62 3C50.9531 3 42 11.9551 42 23C42 34.0449 50.9531 43 62 43ZM58.082 12.918C58.4805 12.6562 58.9492 12.5176 59.4219 12.5215C59.7383 12.5273 60.0508 12.5898 60.3398 12.7109C60.6289 12.832 60.8945 13.0098 61.1133 13.2344C61.2773 13.3984 61.4141 13.584 61.5234 13.7871L61.6289 14.0117C61.75 14.3027 61.8125 14.6152 61.8086 14.9297C61.8086 15.4062 61.668 15.8711 61.4023 16.2676C61.1367 16.6621 60.7578 16.9707 60.3164 17.1504C59.8789 17.332 59.3945 17.3789 58.9258 17.2832C58.4609 17.1895 58.0312 16.957 57.6953 16.6191C57.5352 16.457 57.3984 16.2754 57.2891 16.0781C57.1719 15.8613 57.0898 15.627 57.043 15.3828C56.9531 14.916 57.0039 14.4316 57.1875 13.9922C57.375 13.5527 57.6836 13.1797 58.082 12.918ZM61.6055 18.4238H57.2305V34.3066H61.6055V18.4238ZM68.1094 12V20.3691C68.8984 18.7168 70.7578 17.7363 72.6562 17.7363C77.9141 17.7363 77.9844 22.3789 77.9141 24.6562V34.3066H73.4844V26.625V26.1699C73.5 24.1348 73.5156 22.0859 70.9023 22.0215C68.9609 21.9727 68.0898 23.9023 68.1094 25.6426V34.3066H63.6094V12H68.1094Z" fill="#A3A3A3"/>
<path d="M88.7969 11.9883H90.9579V21.8127H88.7969V11.9883ZM92.7773 14.6967H94.6377V15.6871H94.6757C94.9064 15.3202 95.2275 15.0188 95.6081 14.8116C95.9887 14.6044 96.4161 14.4984 96.8494 14.5037C98.925 14.5037 99.4471 15.6744 99.4471 17.4336V21.8095H97.4949V17.7912C97.4949 16.6236 97.15 16.0446 96.2292 16.0446C95.1693 16.0446 94.7168 16.6363 94.7168 18.0823V21.8095H92.7773V14.6967ZM103.159 14.6967H104.589V16.0035H103.159V19.5251C103.159 20.1864 103.323 20.3509 103.984 20.3509C104.187 20.3535 104.39 20.3355 104.589 20.2971V21.8253C104.21 21.8759 103.828 21.8981 103.446 21.8918C102.25 21.8918 101.206 21.6165 101.206 20.199V16.0035H100.023V14.6967H101.206V12.5641H103.159V14.6967ZM107.016 18.7277C107.072 19.968 107.677 20.5312 108.762 20.5312C109.547 20.5312 110.18 20.0503 110.303 19.6105H112.024C111.474 21.2874 110.303 22.0025 108.696 22.0025C106.452 22.0025 105.063 20.4616 105.063 18.2594C105.063 16.1269 106.535 14.5037 108.696 14.5037C111.116 14.5037 112.284 16.5414 112.148 18.7277H107.016ZM110.18 17.4906C109.999 16.5002 109.572 15.9782 108.623 15.9782C108.215 15.9601 107.816 16.105 107.514 16.3809C107.213 16.6568 107.034 17.0412 107.016 17.4494V17.4906H110.18ZM113.299 14.6967H115.157V16.0225H115.182C115.376 15.5786 115.694 15.1998 116.097 14.9312C116.501 14.6625 116.972 14.5152 117.457 14.5069C117.602 14.5094 117.746 14.5329 117.884 14.5765V16.3926C117.653 16.3457 117.418 16.3224 117.182 16.323C115.751 16.323 115.255 17.3545 115.255 18.6075V21.8095H113.303L113.299 14.6967ZM118.53 14.6967H120.387V15.6871H120.428C120.659 15.3202 120.98 15.0188 121.36 14.8116C121.741 14.6044 122.168 14.4984 122.602 14.5037C124.68 14.5037 125.203 15.6744 125.203 17.4336V21.8095H123.25V17.7912C123.25 16.6236 122.905 16.0446 121.985 16.0446C120.925 16.0446 120.472 16.6363 120.472 18.0823V21.8095H118.517L118.53 14.6967ZM126.478 16.8894C126.585 15.0574 128.224 14.5069 129.819 14.5069C131.236 14.5069 132.942 14.8233 132.942 16.5319V20.2275C132.942 20.8603 133.011 21.5216 133.189 21.8095H131.224C131.15 21.5872 131.104 21.3566 131.088 21.1229C130.768 21.4227 130.391 21.655 129.979 21.8061C129.568 21.9572 129.13 22.024 128.692 22.0025C127.345 22.0025 126.272 21.3286 126.272 19.8699C126.272 18.2594 127.481 17.8766 128.692 17.7089C129.904 17.5412 131.005 17.5728 131.005 16.7597C131.005 15.9465 130.426 15.8105 129.74 15.8105C128.999 15.8105 128.518 16.1269 128.449 16.8831L126.478 16.8894ZM130.99 18.3322C130.673 18.6201 129.971 18.6486 129.363 18.7467C128.756 18.8448 128.208 19.0631 128.208 19.7908C128.208 20.5186 128.772 20.6863 129.408 20.6863C130.933 20.6863 130.99 19.4744 130.99 19.0505V18.3322ZM136.808 14.6967H138.238V16.0035H136.808V19.5251C136.808 20.1864 136.973 20.3509 137.634 20.3509C137.837 20.3535 138.039 20.3355 138.238 20.2971V21.8253C137.86 21.8759 137.478 21.8981 137.096 21.8918C135.9 21.8918 134.856 21.6165 134.856 20.199V16.0035H133.673V14.6967H134.853V12.5641H136.805L136.808 14.6967ZM141.425 13.5956H139.472V11.9883H141.425V13.5956ZM139.472 14.6967H141.425V21.8095H139.472V14.6967ZM146.297 14.5037C148.541 14.5037 149.987 15.9908 149.987 18.2594C149.987 20.5281 148.547 22.0025 146.304 22.0025C144.06 22.0025 142.63 20.5154 142.63 18.2594C142.63 16.0035 144.076 14.5037 146.304 14.5037M146.304 20.5154C147.639 20.5154 148.038 19.3732 148.038 18.2436C148.038 17.1141 147.639 15.9623 146.304 15.9623C144.968 15.9623 144.586 17.1014 144.586 18.2436C144.586 19.3858 144.984 20.5154 146.304 20.5154ZM150.891 14.6809H152.739V15.6712H152.78C153.013 15.3074 153.335 15.009 153.715 14.8047C154.096 14.6003 154.522 14.4967 154.954 14.5037C157.03 14.5037 157.555 15.6744 157.555 17.4336V21.8095H155.6V17.7912C155.6 16.6236 155.255 16.0446 154.334 16.0446C153.277 16.0446 152.822 16.6363 152.822 18.0823V21.8095H150.869L150.891 14.6809ZM158.843 16.8736C158.954 15.0416 160.589 14.491 162.187 14.491C163.605 14.491 165.31 14.8075 165.31 16.516V20.2275C165.31 20.8603 165.377 21.5216 165.557 21.8095H163.576C163.503 21.5869 163.456 21.3565 163.437 21.1229C163.118 21.4224 162.741 21.6546 162.33 21.8057C161.919 21.9568 161.482 22.0238 161.045 22.0025C159.697 22.0025 158.624 21.3286 158.624 19.8699C158.624 18.2594 159.833 17.8766 161.045 17.7089C162.257 17.5412 163.355 17.5728 163.355 16.7597C163.355 15.9465 162.779 15.8105 162.089 15.8105C161.346 15.8105 160.865 16.1269 160.798 16.8831L158.843 16.8736ZM163.355 18.3164C163.038 18.6043 162.336 18.6328 161.732 18.7309C161.127 18.829 160.577 19.0473 160.577 19.775C160.577 20.5028 161.14 20.6705 161.773 20.6705C163.301 20.6705 163.355 19.4586 163.355 19.0346V18.3164ZM166.756 11.9883H168.708V21.8127H166.756V11.9883ZM88.7969 24.3661H90.9579V28.1376H94.932V24.3661H97.093V34.1905H94.932V29.9443H90.9579V34.1905H88.7969V24.3661ZM101.991 26.8973C104.234 26.8973 105.68 28.3844 105.68 30.653C105.68 32.9217 104.234 34.374 101.991 34.374C99.7477 34.374 98.3175 32.8964 98.3175 30.6404C98.3175 28.3844 99.7603 26.8847 101.988 26.8847M101.988 32.8964C103.323 32.8964 103.722 31.7541 103.722 30.6277C103.722 29.5013 103.323 28.3433 101.988 28.3433C100.653 28.3433 100.27 29.4855 100.27 30.6277C100.27 31.77 100.668 32.8964 101.988 32.8964ZM113.378 34.1905H111.521V33.2001H111.48C111.248 33.5661 110.925 33.8662 110.543 34.0718C110.162 34.2773 109.733 34.3814 109.3 34.374C107.221 34.374 106.699 33.2033 106.699 31.4409V27.0777H108.654V31.0929C108.654 32.2636 108.996 32.8426 109.92 32.8426C110.98 32.8426 111.436 32.2509 111.436 30.8049V27.0777H113.388L113.378 34.1905ZM116.255 31.8775C116.255 32.7318 116.982 33.0767 117.754 33.0767C118.318 33.0767 119.02 32.8552 119.02 32.1686C119.02 31.577 118.21 31.3681 116.805 31.0675C115.679 30.8176 114.549 30.4347 114.549 29.1691C114.549 27.3529 116.131 26.8847 117.647 26.8847C119.162 26.8847 120.624 27.4131 120.782 29.1533H118.925C118.868 28.3971 118.292 28.2041 117.59 28.2041C117.15 28.2041 116.505 28.2863 116.505 28.8654C116.505 29.5678 117.606 29.6627 118.719 29.9253C119.833 30.1879 120.975 30.5993 120.975 31.9187C120.975 33.7886 119.352 34.3961 117.729 34.3961C116.106 34.3961 114.467 33.7633 114.385 31.8902L116.255 31.8775ZM123.738 31.1087C123.795 32.3458 124.399 32.909 125.484 32.909C126.269 32.909 126.902 32.4281 127.025 31.9883H128.746C128.196 33.6652 127.025 34.3835 125.415 34.3835C123.174 34.3835 121.785 32.8426 121.785 30.6404C121.785 28.5078 123.257 26.8847 125.415 26.8847C127.838 26.8847 129.009 28.9223 128.87 31.1087H123.738ZM126.917 29.862C126.737 28.8717 126.31 28.3465 125.361 28.3465C124.953 28.3249 124.553 28.4661 124.25 28.739C123.946 29.0119 123.763 29.3942 123.741 29.8019C123.739 29.8219 123.739 29.842 123.741 29.862H126.917Z" fill="#A3A3A3"/>
</svg>
