<svg width="211" height="43" viewBox="0 0 211 43" fill="none" xmlns="http://www.w3.org/2000/svg">
<path d="M44.3591 11.9741C44.3591 13.085 44.1522 14.0137 43.7385 14.7603C43.3247 15.5024 42.7243 16.0623 41.9373 16.4401C41.1502 16.8134 40.2012 17 39.0904 17H36.3514V7.13714H39.3872C40.4081 7.13714 41.2896 7.32154 42.0317 7.69033C42.7738 8.05462 43.3472 8.59656 43.752 9.31615C44.1567 10.0312 44.3591 10.9172 44.3591 11.9741ZM42.6726 12.0213C42.6726 11.2118 42.5444 10.5462 42.2881 10.0245C42.0362 9.50279 41.6629 9.11601 41.1682 8.86415C40.678 8.6078 40.0731 8.47962 39.3535 8.47962H37.9705V15.644H39.1174C40.3092 15.644 41.1997 15.3404 41.7888 14.7333C42.378 14.1261 42.6726 13.2222 42.6726 12.0213ZM50.1068 9.39035C50.2328 9.39035 50.3699 9.3971 50.5183 9.41059C50.6668 9.42408 50.7949 9.44207 50.9029 9.46456L50.7545 10.9487C50.66 10.9217 50.5431 10.9015 50.4037 10.888C50.2687 10.8745 50.1473 10.8678 50.0394 10.8678C49.756 10.8678 49.4862 10.915 49.2298 11.0094C48.9735 11.0994 48.7464 11.2388 48.5485 11.4277C48.3506 11.6121 48.1954 11.8437 48.083 12.1225C47.9705 12.4014 47.9143 12.7252 47.9143 13.094V17H46.3222V9.53202H47.5635L47.7794 10.8475H47.8536C48.002 10.5822 48.1864 10.3393 48.4068 10.1189C48.6272 9.89856 48.879 9.72316 49.1624 9.59274C49.4502 9.45782 49.765 9.39035 50.1068 9.39035ZM52.0565 16.1635C52.0565 15.7947 52.1509 15.5361 52.3398 15.3877C52.5332 15.2348 52.7671 15.1583 53.0414 15.1583C53.3157 15.1583 53.5496 15.2348 53.743 15.3877C53.9409 15.5361 54.0398 15.7947 54.0398 16.1635C54.0398 16.5233 53.9409 16.7841 53.743 16.946C53.5496 17.1034 53.3157 17.1821 53.0414 17.1821C52.7671 17.1821 52.5332 17.1034 52.3398 16.946C52.1509 16.7841 52.0565 16.5233 52.0565 16.1635Z" fill="#A3A3A3"/>
<path d="M73.8487 9.39035C74.5143 9.39035 75.0855 9.52753 75.5622 9.80187C76.0389 10.0762 76.4055 10.4652 76.6618 10.969C76.9182 11.4727 77.0464 12.0753 77.0464 12.7769V13.6269H72.061C72.079 14.351 72.2724 14.9087 72.6411 15.3C73.0144 15.6912 73.5361 15.8869 74.2062 15.8869C74.683 15.8869 75.1102 15.8419 75.488 15.752C75.8703 15.6575 76.2638 15.5203 76.6686 15.3404V16.629C76.2953 16.8044 75.9153 16.9325 75.5285 17.0135C75.1417 17.0944 74.6785 17.1349 74.1388 17.1349C73.4057 17.1349 72.7603 16.9933 72.2026 16.7099C71.6495 16.4221 71.2155 15.9948 70.9006 15.4281C70.5903 14.8615 70.4352 14.1576 70.4352 13.3166C70.4352 12.4801 70.5768 11.7695 70.8602 11.1848C71.1435 10.6002 71.5415 10.1549 72.0542 9.84909C72.5669 9.54327 73.1651 9.39035 73.8487 9.39035ZM73.8487 10.5844C73.3495 10.5844 72.9447 10.7463 72.6344 11.0701C72.3286 11.394 72.1487 11.8684 72.0947 12.4936H75.4948C75.4903 12.1203 75.4273 11.7897 75.3059 11.5019C75.1889 11.2141 75.009 10.9892 74.7662 10.8273C74.5278 10.6654 74.222 10.5844 73.8487 10.5844ZM82.7266 9.39035C83.5676 9.39035 84.222 9.60848 84.6897 10.0447C85.162 10.4765 85.3981 11.1713 85.3981 12.1293V17H83.8128V12.4261C83.8128 11.8459 83.6936 11.4119 83.4552 11.1241C83.2168 10.8318 82.8481 10.6856 82.3488 10.6856C81.6248 10.6856 81.121 10.9082 80.8377 11.3535C80.5589 11.7987 80.4194 12.4441 80.4194 13.2896V17H78.8341V9.53202H80.0686L80.2913 10.5439H80.379C80.5409 10.2831 80.741 10.0695 80.9794 9.90306C81.2222 9.73216 81.4921 9.60398 81.7889 9.51853C82.0902 9.43308 82.4028 9.39035 82.7266 9.39035ZM91.5101 9.39035C92.3511 9.39035 93.0055 9.60848 93.4732 10.0447C93.9455 10.4765 94.1816 11.1713 94.1816 12.1293V17H92.5962V12.4261C92.5962 11.8459 92.477 11.4119 92.2387 11.1241C92.0003 10.8318 91.6315 10.6856 91.1323 10.6856C90.4082 10.6856 89.9045 10.9082 89.6212 11.3535C89.3423 11.7987 89.2029 12.4441 89.2029 13.2896V17H87.6176V9.53202H88.8521L89.0747 10.5439H89.1624C89.3243 10.2831 89.5245 10.0695 89.7628 9.90306C90.0057 9.73216 90.2756 9.60398 90.5724 9.51853C90.8737 9.43308 91.1863 9.39035 91.5101 9.39035ZM97.9864 9.53202V17H96.401V9.53202H97.9864ZM97.2038 6.67166C97.4467 6.67166 97.6558 6.73687 97.8312 6.8673C98.0111 6.99772 98.1011 7.22259 98.1011 7.54191C98.1011 7.85673 98.0111 8.0816 97.8312 8.21653C97.6558 8.34695 97.4467 8.41216 97.2038 8.41216C96.952 8.41216 96.7384 8.34695 96.563 8.21653C96.3921 8.0816 96.3066 7.85673 96.3066 7.54191C96.3066 7.22259 96.3921 6.99772 96.563 6.8673C96.7384 6.73687 96.952 6.67166 97.2038 6.67166ZM103.99 10.7396H102.176V17H100.59V10.7396H99.3694V9.97727L100.59 9.51178V8.99233C100.59 8.35819 100.689 7.85448 100.887 7.4812C101.09 7.10791 101.377 6.84031 101.751 6.67841C102.129 6.512 102.578 6.4288 103.1 6.4288C103.442 6.4288 103.754 6.45803 104.038 6.5165C104.321 6.57047 104.559 6.63343 104.753 6.70539L104.341 7.9062C104.188 7.85673 104.017 7.81176 103.829 7.77128C103.64 7.72631 103.437 7.70382 103.221 7.70382C102.862 7.70382 102.596 7.81625 102.425 8.04113C102.259 8.266 102.176 8.59431 102.176 9.02606V9.53202H103.99V10.7396ZM108.241 9.39035C108.906 9.39035 109.477 9.52753 109.954 9.80187C110.431 10.0762 110.797 10.4652 111.054 10.969C111.31 11.4727 111.438 12.0753 111.438 12.7769V13.6269H106.453C106.471 14.351 106.664 14.9087 107.033 15.3C107.406 15.6912 107.928 15.8869 108.598 15.8869C109.075 15.8869 109.502 15.8419 109.88 15.752C110.262 15.6575 110.656 15.5203 111.06 15.3404V16.629C110.687 16.8044 110.307 16.9325 109.92 17.0135C109.534 17.0944 109.07 17.1349 108.531 17.1349C107.798 17.1349 107.152 16.9933 106.594 16.7099C106.041 16.4221 105.607 15.9948 105.292 15.4281C104.982 14.8615 104.827 14.1576 104.827 13.3166C104.827 12.4801 104.969 11.7695 105.252 11.1848C105.535 10.6002 105.933 10.1549 106.446 9.84909C106.959 9.54327 107.557 9.39035 108.241 9.39035ZM108.241 10.5844C107.741 10.5844 107.337 10.7463 107.026 11.0701C106.72 11.394 106.54 11.8684 106.487 12.4936H109.887C109.882 12.1203 109.819 11.7897 109.698 11.5019C109.581 11.2141 109.401 10.9892 109.158 10.8273C108.92 10.6654 108.614 10.5844 108.241 10.5844ZM117.011 9.39035C117.136 9.39035 117.274 9.3971 117.422 9.41059C117.57 9.42408 117.699 9.44207 117.807 9.46456L117.658 10.9487C117.564 10.9217 117.447 10.9015 117.307 10.888C117.172 10.8745 117.051 10.8678 116.943 10.8678C116.66 10.8678 116.39 10.915 116.134 11.0094C115.877 11.0994 115.65 11.2388 115.452 11.4277C115.254 11.6121 115.099 11.8437 114.987 12.1225C114.874 12.4014 114.818 12.7252 114.818 13.094V17H113.226V9.53202H114.467L114.683 10.8475H114.757C114.906 10.5822 115.09 10.3393 115.31 10.1189C115.531 9.89856 115.783 9.72316 116.066 9.59274C116.354 9.45782 116.669 9.39035 117.011 9.39035ZM123.554 8.37169C123.082 8.37169 122.659 8.45714 122.286 8.62804C121.917 8.79894 121.605 9.0463 121.348 9.37012C121.092 9.68943 120.896 10.0785 120.761 10.5372C120.626 10.9914 120.559 11.5041 120.559 12.0753C120.559 12.8399 120.667 13.4988 120.883 14.0519C121.099 14.6006 121.427 15.0234 121.868 15.3202C122.308 15.6125 122.866 15.7587 123.541 15.7587C123.959 15.7587 124.366 15.7182 124.762 15.6373C125.158 15.5563 125.567 15.4461 125.99 15.3067V16.6829C125.589 16.8403 125.185 16.955 124.775 17.027C124.366 17.0989 123.894 17.1349 123.359 17.1349C122.351 17.1349 121.515 16.9258 120.849 16.5075C120.188 16.0893 119.693 15.5001 119.365 14.74C119.041 13.98 118.879 13.0895 118.879 12.0686C118.879 11.322 118.983 10.6384 119.19 10.0177C119.396 9.3971 119.698 8.86191 120.093 8.41216C120.489 7.95792 120.977 7.60937 121.557 7.36651C122.142 7.11915 122.81 6.99547 123.561 6.99547C124.056 6.99547 124.541 7.05169 125.018 7.16413C125.499 7.27207 125.945 7.42723 126.354 7.62961L125.787 8.96535C125.445 8.80344 125.088 8.66402 124.715 8.54709C124.341 8.43015 123.955 8.37169 123.554 8.37169ZM134.557 13.2491C134.557 13.8698 134.476 14.4207 134.314 14.902C134.152 15.3832 133.916 15.7902 133.606 16.123C133.296 16.4513 132.922 16.7032 132.486 16.8786C132.05 17.0495 131.557 17.1349 131.009 17.1349C130.496 17.1349 130.026 17.0495 129.599 16.8786C129.172 16.7032 128.801 16.4513 128.486 16.123C128.175 15.7902 127.935 15.3832 127.764 14.902C127.593 14.4207 127.508 13.8698 127.508 13.2491C127.508 12.4261 127.649 11.729 127.933 11.1578C128.22 10.5822 128.63 10.1437 129.16 9.84235C129.691 9.54102 130.323 9.39035 131.056 9.39035C131.744 9.39035 132.351 9.54102 132.877 9.84235C133.404 10.1437 133.815 10.5822 134.112 11.1578C134.409 11.7335 134.557 12.4306 134.557 13.2491ZM129.14 13.2491C129.14 13.7933 129.205 14.2588 129.336 14.6456C129.471 15.0324 129.678 15.3292 129.956 15.5361C130.235 15.7385 130.595 15.8397 131.036 15.8397C131.476 15.8397 131.836 15.7385 132.115 15.5361C132.394 15.3292 132.599 15.0324 132.729 14.6456C132.859 14.2588 132.925 13.7933 132.925 13.2491C132.925 12.705 132.859 12.244 132.729 11.8662C132.599 11.4839 132.394 11.1938 132.115 10.9959C131.836 10.7936 131.474 10.6924 131.029 10.6924C130.372 10.6924 129.893 10.9127 129.592 11.3535C129.291 11.7942 129.14 12.4261 129.14 13.2491ZM137.971 17H136.379V6.50301H137.971V17ZM141.83 17H140.237V6.50301H141.83V17ZM145.682 9.53202V17H144.096V9.53202H145.682ZM144.899 6.67166C145.142 6.67166 145.351 6.73687 145.526 6.8673C145.706 6.99772 145.796 7.22259 145.796 7.54191C145.796 7.85673 145.706 8.0816 145.526 8.21653C145.351 8.34695 145.142 8.41216 144.899 8.41216C144.647 8.41216 144.434 8.34695 144.258 8.21653C144.087 8.0816 144.002 7.85673 144.002 7.54191C144.002 7.22259 144.087 6.99772 144.258 6.8673C144.434 6.73687 144.647 6.67166 144.899 6.67166ZM151.848 9.39035C152.689 9.39035 153.343 9.60848 153.811 10.0447C154.283 10.4765 154.519 11.1713 154.519 12.1293V17H152.934V12.4261C152.934 11.8459 152.815 11.4119 152.576 11.1241C152.338 10.8318 151.969 10.6856 151.47 10.6856C150.746 10.6856 150.242 10.9082 149.959 11.3535C149.68 11.7987 149.54 12.4441 149.54 13.2896V17H147.955V9.53202H149.19L149.412 10.5439H149.5C149.662 10.2831 149.862 10.0695 150.1 9.90306C150.343 9.73216 150.613 9.60398 150.91 9.51853C151.211 9.43308 151.524 9.39035 151.848 9.39035ZM161.758 14.8682C161.758 15.3584 161.638 15.7722 161.4 16.1095C161.162 16.4468 160.813 16.7032 160.354 16.8786C159.9 17.0495 159.343 17.1349 158.681 17.1349C158.16 17.1349 157.71 17.0967 157.332 17.0202C156.959 16.9483 156.606 16.8358 156.273 16.6829V15.3135C156.628 15.4799 157.026 15.6238 157.467 15.7452C157.912 15.8666 158.333 15.9274 158.729 15.9274C159.25 15.9274 159.626 15.8464 159.855 15.6845C160.085 15.5181 160.199 15.2977 160.199 15.0234C160.199 14.8615 160.152 14.7176 160.058 14.5916C159.968 14.4612 159.797 14.3285 159.545 14.1936C159.298 14.0542 158.933 13.8878 158.452 13.6944C157.98 13.5055 157.582 13.3166 157.258 13.1277C156.934 12.9388 156.689 12.7117 156.523 12.4464C156.356 12.1765 156.273 11.8325 156.273 11.4142C156.273 10.7531 156.534 10.2516 157.056 9.90981C157.582 9.5635 158.277 9.39035 159.14 9.39035C159.599 9.39035 160.031 9.43758 160.435 9.53202C160.845 9.62197 161.245 9.75465 161.636 9.93004L161.137 11.1241C160.8 10.9757 160.46 10.8543 160.118 10.7598C159.781 10.6609 159.437 10.6114 159.086 10.6114C158.677 10.6114 158.364 10.6744 158.148 10.8003C157.937 10.9262 157.831 11.1061 157.831 11.34C157.831 11.5154 157.883 11.6638 157.987 11.7852C158.09 11.9067 158.268 12.0281 158.52 12.1495C158.776 12.271 159.131 12.4216 159.585 12.6015C160.031 12.7724 160.415 12.9523 160.739 13.1412C161.067 13.3256 161.319 13.5527 161.495 13.8226C161.67 14.0924 161.758 14.441 161.758 14.8682Z" fill="#A3A3A3"/>
<path d="M57.4529 12.0741C57.4529 12.799 57.597 13.5167 57.8768 14.1854C58.1567 14.8541 58.5667 15.4605 59.083 15.9693C59.5993 16.4781 60.2116 16.8792 60.8843 17.1493C61.557 17.4193 62.2767 17.553 63.0015 17.5424C63.7264 17.5318 64.4418 17.3772 65.1064 17.0877C65.7709 16.7981 66.3713 16.3793 66.8725 15.8556C67.3738 15.3319 67.7659 14.7139 68.0261 14.0373C68.2863 13.3607 68.4094 12.6391 68.3883 11.9145L66.6449 11.9654C66.6593 12.4589 66.5755 12.9504 66.3983 13.4112C66.221 13.872 65.954 14.293 65.6126 14.6496C65.2712 15.0063 64.8623 15.2915 64.4097 15.4888C63.9571 15.686 63.4698 15.7913 62.9761 15.7985C62.4824 15.8057 61.9923 15.7147 61.5341 15.5307C61.0759 15.3468 60.6589 15.0736 60.3072 14.727C59.9556 14.3805 59.6763 13.9675 59.4857 13.512C59.2951 13.0566 59.197 12.5678 59.197 12.0741L57.4529 12.0741Z" fill="#A3A3A3"/>
<path d="M96.5974 35.1014C96.5974 35.8263 96.7415 36.544 97.0214 37.2127C97.3012 37.8814 97.7112 38.4878 98.2275 38.9966C98.7438 39.5055 99.3561 39.9066 100.029 40.1766C100.702 40.4467 101.421 40.5803 102.146 40.5697C102.871 40.5592 103.586 40.4046 104.251 40.115C104.915 39.8254 105.516 39.4066 106.017 38.883C106.518 38.3593 106.91 37.7412 107.171 37.0646C107.431 36.388 107.554 35.6665 107.533 34.9419L105.789 34.9928C105.804 35.4863 105.72 35.9777 105.543 36.4385C105.366 36.8993 105.098 37.3203 104.757 37.677C104.416 38.0336 104.007 38.3189 103.554 38.5161C103.102 38.7133 102.614 38.8186 102.121 38.8258C101.627 38.833 101.137 38.742 100.679 38.5581C100.22 38.3741 99.8034 38.1009 99.4518 37.7544C99.1001 37.4078 98.8209 36.9948 98.6303 36.5394C98.4397 36.0839 98.3415 35.5952 98.3415 35.1014L96.5974 35.1014Z" fill="#A3A3A3"/>
<rect x="66.6602" y="3.72656" width="1.72701" height="8.63506" fill="#A3A3A3"/>
<rect x="35" y="21.5742" width="130.102" height="0.575671" rx="0.287835" fill="#A3A3A3"/>
<path d="M85.8421 29.3328C85.8421 29.8882 85.7409 30.3526 85.5385 30.7258C85.3361 31.0969 85.0426 31.3768 84.6581 31.5657C84.2758 31.7524 83.8115 31.8457 83.265 31.8457H81.9259V26.9143H83.4135C83.9149 26.9143 84.3467 27.0065 84.7087 27.1909C85.0708 27.373 85.3496 27.644 85.5452 28.0038C85.7431 28.3613 85.8421 28.8043 85.8421 29.3328ZM85.2383 29.353C85.2383 28.91 85.1641 28.5446 85.0157 28.2568C84.8695 27.9689 84.6536 27.7553 84.368 27.6159C84.0847 27.4742 83.7373 27.4034 83.3258 27.4034H82.4993V31.3532H83.1976C83.8767 31.3532 84.386 31.1857 84.7256 30.8506C85.0674 30.5156 85.2383 30.0164 85.2383 29.353ZM90.6952 28.0814C91.0101 28.0814 91.2799 28.1511 91.5048 28.2905C91.7296 28.4299 91.9017 28.6255 92.0209 28.8774C92.14 29.127 92.1996 29.4193 92.1996 29.7544V30.1018H89.6462C89.653 30.5358 89.7609 30.8664 89.97 31.0935C90.1792 31.3206 90.4737 31.4342 90.8538 31.4342C91.0876 31.4342 91.2945 31.4128 91.4744 31.3701C91.6543 31.3274 91.841 31.2644 92.0343 31.1812V31.6737C91.8477 31.7569 91.6622 31.8176 91.4778 31.8558C91.2956 31.8941 91.0798 31.9132 90.8302 31.9132C90.4749 31.9132 90.1645 31.8412 89.8992 31.6973C89.6361 31.5511 89.4315 31.3375 89.2853 31.0564C89.1391 30.7753 89.066 30.4313 89.066 30.0242C89.066 29.6262 89.1324 29.2822 89.2651 28.9921C89.4 28.6998 89.5889 28.4749 89.8317 28.3175C90.0768 28.1601 90.3647 28.0814 90.6952 28.0814ZM90.6885 28.5401C90.3894 28.5401 90.151 28.6379 89.9734 28.8336C89.7957 29.0292 89.6901 29.3024 89.6563 29.6532H91.6127C91.6105 29.4328 91.5756 29.2394 91.5081 29.073C91.4429 28.9044 91.3429 28.774 91.2079 28.6818C91.073 28.5873 90.8999 28.5401 90.6885 28.5401ZM97.3193 28.0814C97.7578 28.0814 98.0895 28.1893 98.3143 28.4052C98.5392 28.6188 98.6516 28.9629 98.6516 29.4373V31.8457H98.0984V29.4744C98.0984 29.1664 98.0276 28.9359 97.8859 28.783C97.7465 28.63 97.5318 28.5536 97.2417 28.5536C96.8324 28.5536 96.5446 28.6694 96.3782 28.901C96.2118 29.1326 96.1286 29.4688 96.1286 29.9096V31.8457H95.5686V28.1488H96.0206L96.105 28.6818H96.1353C96.214 28.5513 96.3141 28.4423 96.4355 28.3546C96.557 28.2646 96.693 28.1972 96.8437 28.1522C96.9943 28.105 97.1529 28.0814 97.3193 28.0814ZM103.417 31.4544C103.509 31.4544 103.604 31.4466 103.7 31.4308C103.797 31.4151 103.876 31.396 103.937 31.3735V31.8086C103.871 31.8378 103.78 31.8626 103.663 31.8828C103.549 31.903 103.436 31.9132 103.326 31.9132C103.13 31.9132 102.953 31.8794 102.793 31.812C102.633 31.7423 102.505 31.6253 102.409 31.4612C102.314 31.297 102.267 31.0699 102.267 30.7798V28.5873H101.741V28.3141L102.27 28.0948L102.493 27.2921H102.83V28.1488H103.913V28.5873H102.83V30.7629C102.83 30.9946 102.883 31.1677 102.989 31.2824C103.097 31.3971 103.239 31.4544 103.417 31.4544ZM107.663 28.1488V31.8457H107.103V28.1488H107.663ZM107.39 26.7659C107.482 26.7659 107.561 26.7962 107.626 26.8569C107.693 26.9154 107.727 27.0076 107.727 27.1335C107.727 27.2572 107.693 27.3494 107.626 27.4101C107.561 27.4708 107.482 27.5012 107.39 27.5012C107.293 27.5012 107.212 27.4708 107.147 27.4101C107.084 27.3494 107.053 27.2572 107.053 27.1335C107.053 27.0076 107.084 26.9154 107.147 26.8569C107.212 26.7962 107.293 26.7659 107.39 26.7659ZM113.66 30.8338C113.66 31.0699 113.6 31.2689 113.481 31.4308C113.364 31.5905 113.195 31.7108 112.975 31.7917C112.757 31.8727 112.496 31.9132 112.192 31.9132C111.934 31.9132 111.71 31.8929 111.521 31.8524C111.332 31.812 111.167 31.7546 111.025 31.6804V31.1643C111.176 31.2386 111.356 31.306 111.565 31.3667C111.774 31.4274 111.988 31.4578 112.206 31.4578C112.525 31.4578 112.757 31.4061 112.901 31.3026C113.045 31.1992 113.117 31.0587 113.117 30.881C113.117 30.7798 113.087 30.691 113.029 30.6145C112.973 30.5358 112.877 30.4605 112.742 30.3885C112.607 30.3143 112.421 30.2334 112.182 30.1457C111.946 30.0557 111.742 29.9669 111.568 29.8792C111.398 29.7893 111.265 29.6802 111.17 29.552C111.078 29.4238 111.032 29.2574 111.032 29.0528C111.032 28.7402 111.158 28.5007 111.41 28.3343C111.664 28.1657 111.997 28.0814 112.408 28.0814C112.631 28.0814 112.839 28.1038 113.032 28.1488C113.228 28.1915 113.41 28.25 113.579 28.3242L113.39 28.7728C113.237 28.7076 113.074 28.6525 112.901 28.6076C112.728 28.5626 112.551 28.5401 112.371 28.5401C112.113 28.5401 111.914 28.5828 111.774 28.6683C111.637 28.7537 111.568 28.8707 111.568 29.0191C111.568 29.1338 111.6 29.2282 111.663 29.3024C111.728 29.3766 111.832 29.4463 111.973 29.5115C112.115 29.5768 112.302 29.6532 112.533 29.7409C112.765 29.8264 112.965 29.9152 113.134 30.0074C113.302 30.0973 113.432 30.2075 113.521 30.3379C113.614 30.4661 113.66 30.6314 113.66 30.8338ZM118.172 31.4544C118.264 31.4544 118.359 31.4466 118.456 31.4308C118.552 31.4151 118.631 31.396 118.692 31.3735V31.8086C118.627 31.8378 118.535 31.8626 118.418 31.8828C118.304 31.903 118.191 31.9132 118.081 31.9132C117.886 31.9132 117.708 31.8794 117.548 31.812C117.389 31.7423 117.26 31.6253 117.164 31.4612C117.069 31.297 117.022 31.0699 117.022 30.7798V28.5873H116.496V28.3141L117.025 28.0948L117.248 27.2921H117.585V28.1488H118.668V28.5873H117.585V30.7629C117.585 30.9946 117.638 31.1677 117.744 31.2824C117.852 31.3971 117.995 31.4544 118.172 31.4544Z" fill="#A3A3A3"/>
</svg>
