<svg width="128" height="41" viewBox="0 0 128 41" fill="none" xmlns="http://www.w3.org/2000/svg">
<g clip-path="url(#clip0_89_1532)">
<path d="M47.1355 8.48924H49.2966V18.3136H47.1355V8.48924ZM51.1159 11.1977H52.9763V12.188H53.0143C53.245 11.8212 53.5661 11.5198 53.9467 11.3126C54.3273 11.1054 54.7547 10.9993 55.188 11.0047C57.2636 11.0047 57.7857 12.1754 57.7857 13.9346V18.3105H55.8335V14.2921C55.8335 13.1246 55.4886 12.5456 54.5679 12.5456C53.5079 12.5456 53.0554 13.1372 53.0554 14.5832V18.3105H51.1159V11.1977ZM61.4972 11.1977H62.9273V12.5044H61.4972V16.026C61.4972 16.6873 61.6617 16.8518 62.323 16.8518C62.5257 16.8545 62.7282 16.8365 62.9273 16.7981V18.3263C62.5488 18.3769 62.1669 18.3991 61.7851 18.3927C60.5891 18.3927 59.5449 18.1175 59.5449 16.7V12.5044H58.3616V11.1977H59.5449V9.0651H61.4972V11.1977ZM65.3541 15.2287C65.4111 16.469 66.0154 17.0322 67.1007 17.0322C67.8854 17.0322 68.5182 16.5513 68.6416 16.1115H70.3628C69.8123 17.7884 68.6416 18.5035 67.0342 18.5035C64.7909 18.5035 63.4019 16.9626 63.4019 14.7604C63.4019 12.6278 64.8732 11.0047 67.0342 11.0047C69.4548 11.0047 70.6223 13.0423 70.4862 15.2287H65.3541ZM68.5182 13.9915C68.3378 13.0012 67.9107 12.4791 66.9615 12.4791C66.5532 12.4611 66.1545 12.606 65.8531 12.8819C65.5517 13.1578 65.3722 13.5422 65.3541 13.9504V13.9915H68.5182ZM71.638 11.1977H73.4953V12.5234H73.5206C73.7149 12.0795 74.0326 11.7008 74.4359 11.4321C74.8391 11.1635 75.311 11.0162 75.7955 11.0078C75.9405 11.0104 76.0844 11.0338 76.2227 11.0774V12.8936C75.9915 12.8467 75.7561 12.8233 75.5202 12.824C74.0901 12.824 73.5933 13.8555 73.5933 15.1084V18.3105H71.6411L71.638 11.1977ZM76.8681 11.1977H78.7254V12.188H78.7666C78.9973 11.8212 79.3183 11.5198 79.6989 11.3126C80.0795 11.1054 80.507 10.9993 80.9403 11.0047C83.0191 11.0047 83.5411 12.1754 83.5411 13.9346V18.3105H81.5889V14.2921C81.5889 13.1246 81.244 12.5456 80.3233 12.5456C79.2633 12.5456 78.8109 13.1372 78.8109 14.5832V18.3105H76.8555L76.8681 11.1977ZM84.8162 13.3904C84.9238 11.5584 86.5628 11.0078 88.1575 11.0078C89.575 11.0078 91.2804 11.3242 91.2804 13.0328V16.7284C91.2804 17.3613 91.35 18.0225 91.5272 18.3105H89.5623C89.4885 18.0882 89.4428 17.8575 89.4263 17.6239C89.1064 17.9236 88.7295 18.156 88.3181 18.3071C87.9066 18.4582 87.4689 18.525 87.0311 18.5035C85.6832 18.5035 84.6106 17.8295 84.6106 16.3709C84.6106 14.7604 85.8193 14.3776 87.0311 14.2099C88.2429 14.0422 89.344 14.0738 89.344 13.2606C89.344 12.4475 88.765 12.3114 88.0784 12.3114C87.338 12.3114 86.8571 12.6278 86.7875 13.384L84.8162 13.3904ZM89.3282 14.8332C89.0118 15.1211 88.3094 15.1496 87.7019 15.2477C87.0944 15.3458 86.547 15.5641 86.547 16.2918C86.547 17.0195 87.1102 17.1872 87.7462 17.1872C89.2712 17.1872 89.3282 15.9754 89.3282 15.5514V14.8332ZM95.1469 11.1977H96.577V12.5044H95.1469V16.026C95.1469 16.6873 95.3114 16.8518 95.9727 16.8518C96.1755 16.8545 96.378 16.8365 96.577 16.7981V18.3263C96.1985 18.3769 95.8167 18.3991 95.4348 18.3927C94.2388 18.3927 93.1947 18.1175 93.1947 16.7V12.5044H92.0113V11.1977H93.1915V9.0651H95.1437L95.1469 11.1977ZM99.7633 10.0966H97.811V8.48924H99.7633V10.0966ZM97.811 11.1977H99.7633V18.3105H97.811V11.1977ZM104.636 11.0047C106.879 11.0047 108.325 12.4918 108.325 14.7604C108.325 17.029 106.886 18.5035 104.642 18.5035C102.399 18.5035 100.969 17.0164 100.969 14.7604C100.969 12.5044 102.415 11.0047 104.642 11.0047M104.642 17.0164C105.977 17.0164 106.376 15.8742 106.376 14.7446C106.376 13.615 105.977 12.4633 104.642 12.4633C103.307 12.4633 102.924 13.6024 102.924 14.7446C102.924 15.8868 103.323 17.0164 104.642 17.0164ZM109.23 11.1819H111.078V12.1722H111.119C111.352 11.8083 111.674 11.51 112.054 11.3056C112.434 11.1013 112.861 10.9977 113.293 11.0047C115.368 11.0047 115.894 12.1754 115.894 13.9346V18.3105H113.938V14.2921C113.938 13.1246 113.593 12.5456 112.673 12.5456C111.616 12.5456 111.16 13.1372 111.16 14.5832V18.3105H109.208L109.23 11.1819ZM117.181 13.3745C117.292 11.5426 118.928 10.992 120.526 10.992C121.943 10.992 123.649 11.3084 123.649 13.017V16.7284C123.649 17.3613 123.715 18.0225 123.896 18.3105H121.915C121.841 18.0879 121.795 17.8574 121.776 17.6239C121.456 17.9234 121.08 18.1556 120.669 18.3067C120.258 18.4578 119.821 18.5247 119.384 18.5035C118.036 18.5035 116.963 17.8295 116.963 16.3709C116.963 14.7604 118.172 14.3776 119.384 14.2099C120.595 14.0422 121.693 14.0738 121.693 13.2606C121.693 12.4475 121.117 12.3114 120.428 12.3114C119.684 12.3114 119.203 12.6278 119.137 13.384L117.181 13.3745ZM121.693 14.8174C121.377 15.1053 120.674 15.1338 120.07 15.2318C119.466 15.3299 118.915 15.5483 118.915 16.276C118.915 17.0037 119.478 17.1714 120.111 17.1714C121.64 17.1714 121.693 15.9596 121.693 15.5356V14.8174ZM125.095 8.48924H127.047V18.3136H125.095V8.48924ZM47.1355 20.867H49.2966V24.6386H53.2706V20.867H55.4317V30.6914H53.2706V26.4453H49.2966V30.6914H47.1355V20.867ZM60.3296 23.3983C62.5729 23.3983 64.0189 24.8854 64.0189 27.154C64.0189 29.4226 62.5729 30.8749 60.3296 30.8749C58.0863 30.8749 56.6561 29.3973 56.6561 27.1414C56.6561 24.8854 58.099 23.3856 60.3265 23.3856M60.3265 29.3973C61.6617 29.3973 62.0604 28.2551 62.0604 27.1287C62.0604 26.0023 61.6617 24.8443 60.3265 24.8443C58.9912 24.8443 58.6084 25.9865 58.6084 27.1287C58.6084 28.2709 59.007 29.3973 60.3265 29.3973ZM71.7171 30.6914H69.8597V29.7011H69.8186C69.5862 30.0671 69.2637 30.3672 68.8819 30.5728C68.5002 30.7783 68.0721 30.8824 67.6386 30.8749C65.5598 30.8749 65.0377 29.7042 65.0377 27.9419V23.5786H66.9931V27.5938C66.9931 28.7645 67.3348 29.3435 68.2587 29.3435C69.3187 29.3435 69.7743 28.7519 69.7743 27.3059V23.5786H71.7265L71.7171 30.6914ZM74.5932 28.3785C74.5932 29.2328 75.3209 29.5777 76.0929 29.5777C76.6561 29.5777 77.3586 29.3562 77.3586 28.6696C77.3586 28.0779 76.5486 27.8691 75.1437 27.5685C74.0173 27.3185 72.8878 26.9357 72.8878 25.6701C72.8878 23.8539 74.4698 23.3856 75.9854 23.3856C77.5009 23.3856 78.9627 23.914 79.1209 25.6542H77.2636C77.2067 24.898 76.6308 24.705 75.9284 24.705C75.4886 24.705 74.8431 24.7873 74.8431 25.3663C74.8431 26.0687 75.9442 26.1637 77.058 26.4263C78.1717 26.6889 79.314 27.1002 79.314 28.4196C79.314 30.2896 77.6908 30.8971 76.0676 30.8971C74.4445 30.8971 72.8055 30.2643 72.7232 28.3912L74.5932 28.3785ZM82.0762 27.6096C82.1331 28.8468 82.7375 29.41 83.8227 29.41C84.6074 29.41 85.2402 28.929 85.3636 28.4892H87.0849C86.5343 30.1662 85.3636 30.8844 83.7531 30.8844C81.513 30.8844 80.124 29.3435 80.124 27.1414C80.124 25.0088 81.5952 23.3856 83.7531 23.3856C86.1768 23.3856 87.3475 25.4233 87.2083 27.6096H82.0762ZM85.2561 26.363C85.0757 25.3726 84.6486 24.8474 83.6993 24.8474C83.2916 24.8259 82.8919 24.967 82.5882 25.2399C82.2844 25.5128 82.1014 25.8951 82.0793 26.3029C82.0778 26.3229 82.0778 26.343 82.0793 26.363H85.2561ZM40.3359 20.5C40.3359 24.4556 39.163 28.3224 36.9653 31.6114C34.7677 34.9004 31.6441 37.4638 27.9896 38.9776C24.3351 40.4913 20.3138 40.8874 16.4341 40.1157C12.5545 39.344 8.99086 37.4392 6.19381 34.6421C3.39676 31.8451 1.49195 28.2814 0.720241 24.4018C-0.0514635 20.5222 0.344603 16.5009 1.85836 12.8463C3.37211 9.19181 5.93556 6.06824 9.22454 3.87061C12.5135 1.67298 16.3803 0.5 20.3359 0.5C25.6397 0.500839 30.726 2.60835 34.476 6.35898C38.2261 10.1096 40.3328 15.1962 40.3328 20.5" fill="#8D8D8D"/>
<path d="M18.9315 9.24863C18.4552 9.24487 17.9886 9.38262 17.5907 9.64442C17.1928 9.90621 16.8817 10.2803 16.6967 10.7191C16.5117 11.158 16.4611 11.6419 16.5515 12.1095C16.6419 12.5772 16.8691 13.0074 17.2043 13.3457C17.5395 13.6841 17.9676 13.9152 18.4344 14.0099C18.9012 14.1046 19.3855 14.0586 19.8261 13.8776C20.2667 13.6967 20.6436 13.389 20.909 12.9935C21.1745 12.5981 21.3165 12.1327 21.3172 11.6565C21.3184 11.3419 21.2577 11.0302 21.1385 10.7392C21.0193 10.4481 20.8439 10.1833 20.6224 9.96004C20.4008 9.73674 20.1375 9.55927 19.8474 9.43775C19.5572 9.31623 19.246 9.25304 18.9315 9.2518M16.7388 15.1496H21.1147V31.0332H16.7388V15.1496ZM27.6168 17.0955V8.72656H23.1175V31.0332H27.6168V22.37C27.5978 20.6297 28.4679 18.6997 30.4107 18.7471C33.2204 18.8167 32.9925 21.1771 32.9925 23.3508V31.0332H37.4222V21.3828C37.4918 19.1047 37.4222 14.463 32.1636 14.463C30.2651 14.463 28.4047 15.4439 27.6421 17.0955" fill="#0C0C0C"/>
</g>
<defs>
<clipPath id="clip0_89_1532">
<rect width="126.711" height="40" fill="white" transform="translate(0.335938 0.5)"/>
</clipPath>
</defs>
</svg>
