<svg width="127" height="40" viewBox="0 0 127 40" fill="none" xmlns="http://www.w3.org/2000/svg">
<path fill-rule="evenodd" clip-rule="evenodd" d="M20 40C31.0469 40 40 31.0449 40 20C40 8.95508 31.0469 0 20 0C8.95312 0 0 8.95508 0 20C0 31.0449 8.95312 40 20 40ZM16.082 9.91797C16.4805 9.65625 16.9492 9.51758 17.4219 9.52148C17.7383 9.52734 18.0508 9.58984 18.3398 9.71094C18.6289 9.83203 18.8945 10.0098 19.1133 10.2344C19.2773 10.3984 19.4141 10.584 19.5234 10.7871L19.6289 11.0117C19.75 11.3027 19.8125 11.6152 19.8086 11.9297C19.8086 12.4062 19.668 12.8711 19.4023 13.2676C19.1367 13.6621 18.7578 13.9707 18.3164 14.1504C17.8789 14.332 17.3945 14.3789 16.9258 14.2832C16.4609 14.1895 16.0312 13.957 15.6953 13.6191C15.5352 13.457 15.3984 13.2754 15.2891 13.0781C15.1719 12.8613 15.0898 12.627 15.043 12.3828C14.9531 11.916 15.0039 11.4316 15.1875 10.9922C15.375 10.5527 15.6836 10.1797 16.082 9.91797ZM19.6055 15.4238H15.2305V31.3066H19.6055V15.4238ZM26.1094 9V17.3691C26.8984 15.7168 28.7578 14.7363 30.6562 14.7363C35.9141 14.7363 35.9844 19.3789 35.9141 21.6562V31.3066H31.4844V23.625V23.1699C31.5 21.1348 31.5156 19.0859 28.9023 19.0215C26.9609 18.9727 26.0898 20.9023 26.1094 22.6426V31.3066H21.6094V9H26.1094Z" fill="#A3A3A3"/>
<path d="M46.7969 8.98828H48.9579V18.8127H46.7969V8.98828ZM50.7773 11.6967H52.6377V12.6871H52.6757C52.9064 12.3202 53.2275 12.0188 53.6081 11.8116C53.9887 11.6044 54.4161 11.4984 54.8494 11.5037C56.925 11.5037 57.4471 12.6744 57.4471 14.4336V18.8095H55.4949V14.7912C55.4949 13.6236 55.15 13.0446 54.2292 13.0446C53.1693 13.0446 52.7168 13.6363 52.7168 15.0823V18.8095H50.7773V11.6967ZM61.1585 11.6967H62.5887V13.0035H61.1585V16.5251C61.1585 17.1864 61.3231 17.3509 61.9844 17.3509C62.1871 17.3535 62.3896 17.3355 62.5887 17.2971V18.8253C62.2101 18.8759 61.8283 18.8981 61.4465 18.8918C60.2504 18.8918 59.2063 18.6165 59.2063 17.199V13.0035H58.0229V11.6967H59.2063V9.56414H61.1585V11.6967ZM65.0155 15.7277C65.0725 16.968 65.6768 17.5312 66.7621 17.5312C67.5468 17.5312 68.1796 17.0503 68.303 16.6105H70.0242C69.4737 18.2874 68.303 19.0025 66.6956 19.0025C64.4523 19.0025 63.0633 17.4616 63.0633 15.2594C63.0633 13.1269 64.5346 11.5037 66.6956 11.5037C69.1161 11.5037 70.2837 13.5414 70.1476 15.7277H65.0155ZM68.1796 14.4906C67.9992 13.5002 67.5721 12.9782 66.6229 12.9782C66.2146 12.9601 65.8159 13.105 65.5145 13.3809C65.2131 13.6568 65.0336 14.0412 65.0155 14.4494V14.4906H68.1796ZM71.2993 11.6967H73.1566V13.0225H73.1819C73.3763 12.5786 73.694 12.1998 74.0972 11.9312C74.5005 11.6625 74.9724 11.5152 75.4569 11.5069C75.6019 11.5094 75.7457 11.5329 75.884 11.5765V13.3926C75.6529 13.3457 75.4175 13.3224 75.1816 13.323C73.7515 13.323 73.2547 14.3545 73.2547 15.6075V18.8095H71.3025L71.2993 11.6967ZM76.5295 11.6967H78.3868V12.6871H78.428C78.6587 12.3202 78.9797 12.0188 79.3603 11.8116C79.7409 11.6044 80.1683 11.4984 80.6017 11.5037C82.6804 11.5037 83.2025 12.6744 83.2025 14.4336V18.8095H81.2503V14.7912C81.2503 13.6236 80.9054 13.0446 79.9847 13.0446C78.9247 13.0446 78.4722 13.6363 78.4722 15.0823V18.8095H76.5169L76.5295 11.6967ZM84.4776 13.8894C84.5852 12.0574 86.2242 11.5069 87.8189 11.5069C89.2364 11.5069 90.9418 11.8233 90.9418 13.5319V17.2275C90.9418 17.8603 91.0114 18.5216 91.1886 18.8095H89.2237C89.1499 18.5872 89.1042 18.3566 89.0877 18.1229C88.7678 18.4227 88.3909 18.655 87.9794 18.8061C87.568 18.9572 87.1303 19.024 86.6925 19.0025C85.3446 19.0025 84.272 18.3286 84.272 16.8699C84.272 15.2594 85.4806 14.8766 86.6925 14.7089C87.9043 14.5412 89.0054 14.5728 89.0054 13.7597C89.0054 12.9465 88.4264 12.8105 87.7398 12.8105C86.9994 12.8105 86.5185 13.1269 86.4488 13.8831L84.4776 13.8894ZM88.9896 15.3322C88.6732 15.6201 87.9707 15.6486 87.3632 15.7467C86.7557 15.8448 86.2084 16.0631 86.2084 16.7908C86.2084 17.5186 86.7716 17.6863 87.4076 17.6863C88.9326 17.6863 88.9896 16.4744 88.9896 16.0505V15.3322ZM94.8083 11.6967H96.2384V13.0035H94.8083V16.5251C94.8083 17.1864 94.9728 17.3509 95.6341 17.3509C95.8368 17.3535 96.0393 17.3355 96.2384 17.2971V18.8253C95.8599 18.8759 95.4781 18.8981 95.0962 18.8918C93.9002 18.8918 92.856 18.6165 92.856 17.199V13.0035H91.6727V11.6967H92.8529V9.56414H94.8051L94.8083 11.6967ZM99.4246 10.5956H97.4724V8.98828H99.4246V10.5956ZM97.4724 11.6967H99.4246V18.8095H97.4724V11.6967ZM104.297 11.5037C106.541 11.5037 107.987 12.9908 107.987 15.2594C107.987 17.5281 106.547 19.0025 104.304 19.0025C102.06 19.0025 100.63 17.5154 100.63 15.2594C100.63 13.0035 102.076 11.5037 104.304 11.5037M104.304 17.5154C105.639 17.5154 106.038 16.3732 106.038 15.2436C106.038 14.1141 105.639 12.9623 104.304 12.9623C102.968 12.9623 102.586 14.1014 102.586 15.2436C102.586 16.3858 102.984 17.5154 104.304 17.5154ZM108.891 11.6809H110.739V12.6712H110.78C111.013 12.3074 111.335 12.009 111.715 11.8047C112.096 11.6003 112.522 11.4967 112.954 11.5037C115.03 11.5037 115.555 12.6744 115.555 14.4336V18.8095H113.6V14.7912C113.6 13.6236 113.255 13.0446 112.334 13.0446C111.277 13.0446 110.822 13.6363 110.822 15.0823V18.8095H108.869L108.891 11.6809ZM116.843 13.8736C116.954 12.0416 118.589 11.491 120.187 11.491C121.605 11.491 123.31 11.8075 123.31 13.516V17.2275C123.31 17.8603 123.377 18.5216 123.557 18.8095H121.576C121.503 18.5869 121.456 18.3565 121.437 18.1229C121.118 18.4224 120.741 18.6546 120.33 18.8057C119.919 18.9568 119.482 19.0238 119.045 19.0025C117.697 19.0025 116.624 18.3286 116.624 16.8699C116.624 15.2594 117.833 14.8766 119.045 14.7089C120.257 14.5412 121.355 14.5728 121.355 13.7597C121.355 12.9465 120.779 12.8105 120.089 12.8105C119.346 12.8105 118.865 13.1269 118.798 13.8831L116.843 13.8736ZM121.355 15.3164C121.038 15.6043 120.336 15.6328 119.732 15.7309C119.127 15.829 118.577 16.0473 118.577 16.775C118.577 17.5028 119.14 17.6705 119.773 17.6705C121.301 17.6705 121.355 16.4586 121.355 16.0346V15.3164ZM124.756 8.98828H126.708V18.8127H124.756V8.98828ZM46.7969 21.3661H48.9579V25.1376H52.932V21.3661H55.093V31.1905H52.932V26.9443H48.9579V31.1905H46.7969V21.3661ZM59.991 23.8973C62.2343 23.8973 63.6803 25.3844 63.6803 27.653C63.6803 29.9217 62.2343 31.374 59.991 31.374C57.7477 31.374 56.3175 29.8964 56.3175 27.6404C56.3175 25.3844 57.7603 23.8847 59.9878 23.8847M59.9878 29.8964C61.3231 29.8964 61.7217 28.7541 61.7217 27.6277C61.7217 26.5013 61.3231 25.3433 59.9878 25.3433C58.6526 25.3433 58.2697 26.4855 58.2697 27.6277C58.2697 28.77 58.6684 29.8964 59.9878 29.8964ZM71.3784 31.1905H69.5211V30.2001H69.48C69.2476 30.5661 68.925 30.8662 68.5433 31.0718C68.1616 31.2773 67.7335 31.3814 67.3 31.374C65.2212 31.374 64.6991 30.2033 64.6991 28.4409V24.0777H66.6545V28.0929C66.6545 29.2636 66.9962 29.8426 67.9201 29.8426C68.9801 29.8426 69.4357 29.2509 69.4357 27.8049V24.0777H71.3879L71.3784 31.1905ZM74.2546 28.8775C74.2546 29.7318 74.9823 30.0767 75.7543 30.0767C76.3175 30.0767 77.0199 29.8552 77.0199 29.1686C77.0199 28.577 76.2099 28.3681 74.8051 28.0675C73.6787 27.8176 72.5491 27.4347 72.5491 26.1691C72.5491 24.3529 74.1312 23.8847 75.6467 23.8847C77.1623 23.8847 78.6241 24.4131 78.7823 26.1533H76.925C76.8681 25.3971 76.2922 25.2041 75.5898 25.2041C75.15 25.2041 74.5045 25.2863 74.5045 25.8654C74.5045 26.5678 75.6056 26.6627 76.7194 26.9253C77.8331 27.1879 78.9753 27.5993 78.9753 28.9187C78.9753 30.7886 77.3522 31.3961 75.729 31.3961C74.1059 31.3961 72.4669 30.7633 72.3846 28.8902L74.2546 28.8775ZM81.7376 28.1087C81.7945 29.3458 82.3988 29.909 83.4841 29.909C84.2688 29.909 84.9016 29.4281 85.025 28.9883H86.7463C86.1957 30.6652 85.025 31.3835 83.4145 31.3835C81.1744 31.3835 79.7853 29.8426 79.7853 27.6404C79.7853 25.5078 81.2566 23.8847 83.4145 23.8847C85.8382 23.8847 87.0089 25.9223 86.8696 28.1087H81.7376ZM84.9174 26.862C84.7371 25.8717 84.3099 25.3465 83.3607 25.3465C82.9529 25.3249 82.5533 25.4661 82.2496 25.739C81.9458 26.0119 81.7628 26.3942 81.7407 26.8019C81.7391 26.8219 81.7391 26.842 81.7407 26.862H84.9174Z" fill="#A3A3A3"/>
</svg>
