<svg width="141" height="43" viewBox="0 0 141 43" fill="none" xmlns="http://www.w3.org/2000/svg">
<path d="M10.3567 11.3177C10.3567 12.5141 10.1338 13.5143 9.68823 14.3183C9.24261 15.1175 8.59599 15.7206 7.74835 16.1274C6.90071 16.5295 5.8787 16.7305 4.68232 16.7305H1.73253V6.10834H5.002C6.10151 6.10834 7.05086 6.30693 7.85006 6.70411C8.64927 7.09644 9.26683 7.6801 9.70276 8.45509C10.1387 9.22523 10.3567 10.1794 10.3567 11.3177ZM8.54028 11.3685C8.54028 10.4967 8.40224 9.77983 8.12615 9.21796C7.85491 8.6561 7.45288 8.23955 6.92008 7.9683C6.39212 7.69221 5.74065 7.55417 4.96567 7.55417H3.47625V15.2701H4.71138C5.99495 15.2701 6.95399 14.9432 7.58851 14.2893C8.22303 13.6354 8.54028 12.6618 8.54028 11.3685ZM16.5468 8.53501C16.6825 8.53501 16.8302 8.54227 16.99 8.5568C17.1499 8.57134 17.2879 8.59071 17.4042 8.61493L17.2443 10.2133C17.1426 10.1843 17.0167 10.1625 16.8665 10.1479C16.7212 10.1334 16.5904 10.1261 16.4742 10.1261C16.169 10.1261 15.8784 10.177 15.6023 10.2787C15.3262 10.3756 15.0816 10.5257 14.8685 10.7292C14.6554 10.9278 14.4883 11.1772 14.3672 11.4775C14.2461 11.7778 14.1856 12.1266 14.1856 12.5238V16.7305H12.4709V8.68758H13.8078L14.0403 10.1044H14.1202C14.28 9.81858 14.4786 9.55702 14.7159 9.31968C14.9533 9.08234 15.2245 8.89344 15.5297 8.75297C15.8397 8.60766 16.1787 8.53501 16.5468 8.53501ZM18.6466 15.8295C18.6466 15.4324 18.7483 15.1539 18.9517 14.994C19.16 14.8293 19.4119 14.747 19.7073 14.747C20.0028 14.747 20.2547 14.8293 20.4629 14.994C20.6761 15.1539 20.7826 15.4324 20.7826 15.8295C20.7826 16.217 20.6761 16.498 20.4629 16.6723C20.2547 16.8419 20.0028 16.9266 19.7073 16.9266C19.4119 16.9266 19.16 16.8419 18.9517 16.6723C18.7483 16.498 18.6466 16.217 18.6466 15.8295Z" fill="#A3A3A3"/>
<path d="M41.8078 8.53501C42.5246 8.53501 43.1398 8.68274 43.6532 8.9782C44.1666 9.27367 44.5614 9.69264 44.8375 10.2351C45.1136 10.7776 45.2516 11.4267 45.2516 12.1823V13.0977H39.8824C39.9018 13.8776 40.1101 14.4782 40.5073 14.8996C40.9093 15.321 41.4712 15.5317 42.1929 15.5317C42.7063 15.5317 43.1664 15.4832 43.5733 15.3864C43.985 15.2846 44.4088 15.1369 44.8448 14.9432V16.3309C44.4427 16.5198 44.0334 16.6578 43.6169 16.745C43.2003 16.8322 42.7014 16.8758 42.1202 16.8758C41.3307 16.8758 40.6356 16.7232 40.035 16.4181C39.4392 16.1081 38.9718 15.6479 38.6328 15.0376C38.2986 14.4273 38.1315 13.6693 38.1315 12.7635C38.1315 11.8626 38.284 11.0973 38.5892 10.4676C38.8943 9.83795 39.323 9.35843 39.8752 9.02906C40.4273 8.69969 41.0716 8.53501 41.8078 8.53501ZM41.8078 9.821C41.2701 9.821 40.8342 9.99537 40.5 10.3441C40.1706 10.6929 39.9769 11.2039 39.9188 11.8771H43.5806C43.5757 11.4751 43.5079 11.1191 43.3771 10.8091C43.2512 10.4991 43.0574 10.2569 42.7959 10.0826C42.5392 9.90818 42.2098 9.821 41.8078 9.821ZM51.3692 8.53501C52.2749 8.53501 52.9797 8.76993 53.4834 9.23976C53.992 9.70475 54.2463 10.4531 54.2463 11.4848V16.7305H52.5389V11.8045C52.5389 11.1796 52.4105 10.7122 52.1538 10.4022C51.8971 10.0874 51.4999 9.92998 50.9623 9.92998C50.1825 9.92998 49.64 10.1697 49.3348 10.6493C49.0345 11.1288 48.8844 11.8238 48.8844 12.7345V16.7305H47.177V8.68758H48.5066L48.7463 9.77741H48.8408C49.0151 9.49647 49.2307 9.2664 49.4874 9.08718C49.749 8.90313 50.0396 8.76508 50.3593 8.67305C50.6838 8.58102 51.0204 8.53501 51.3692 8.53501ZM60.8288 8.53501C61.7346 8.53501 62.4393 8.76993 62.9431 9.23976C63.4517 9.70475 63.7059 10.4531 63.7059 11.4848V16.7305H61.9986V11.8045C61.9986 11.1796 61.8702 10.7122 61.6135 10.4022C61.3568 10.0874 60.9596 9.92998 60.4219 9.92998C59.6421 9.92998 59.0996 10.1697 58.7945 10.6493C58.4942 11.1288 58.344 11.8238 58.344 12.7345V16.7305H56.6366V8.68758H57.9662L58.206 9.77741H58.3004C58.4748 9.49647 58.6903 9.2664 58.9471 9.08718C59.2086 8.90313 59.4992 8.76508 59.8189 8.67305C60.1434 8.58102 60.4801 8.53501 60.8288 8.53501ZM67.8037 8.68758V16.7305H66.0963V8.68758H67.8037ZM66.9609 5.60702C67.2224 5.60702 67.4477 5.67725 67.6366 5.81772C67.8303 5.95818 67.9272 6.20037 67.9272 6.54427C67.9272 6.88332 67.8303 7.12551 67.6366 7.27081C67.4477 7.41128 67.2224 7.48151 66.9609 7.48151C66.6896 7.48151 66.4596 7.41128 66.2707 7.27081C66.0866 7.12551 65.9946 6.88332 65.9946 6.54427C65.9946 6.20037 66.0866 5.95818 66.2707 5.81772C66.4596 5.67725 66.6896 5.60702 66.9609 5.60702ZM74.2699 9.9881H72.3155V16.7305H70.6081V9.9881H69.2931V9.1671L70.6081 8.66579V8.10634C70.6081 7.42339 70.7147 6.8809 70.9278 6.47888C71.1458 6.07685 71.4558 5.78866 71.8578 5.61429C72.2647 5.43507 72.749 5.34546 73.3109 5.34546C73.679 5.34546 74.0157 5.37695 74.3208 5.43991C74.626 5.49804 74.8827 5.56585 75.0909 5.64335L74.6478 6.9366C74.4831 6.88332 74.299 6.83489 74.0956 6.79129C73.8921 6.74286 73.6742 6.71864 73.4417 6.71864C73.0542 6.71864 72.7684 6.83973 72.5844 7.08191C72.4051 7.32409 72.3155 7.67768 72.3155 8.14267V8.68758H74.2699V9.9881ZM78.8472 8.53501C79.5641 8.53501 80.1792 8.68274 80.6926 8.9782C81.2061 9.27367 81.6008 9.69264 81.8769 10.2351C82.153 10.7776 82.291 11.4267 82.291 12.1823V13.0977H76.9218C76.9412 13.8776 77.1495 14.4782 77.5467 14.8996C77.9487 15.321 78.5106 15.5317 79.2323 15.5317C79.7457 15.5317 80.2058 15.4832 80.6127 15.3864C81.0244 15.2846 81.4482 15.1369 81.8842 14.9432V16.3309C81.4821 16.5198 81.0729 16.6578 80.6563 16.745C80.2398 16.8322 79.7409 16.8758 79.1596 16.8758C78.3701 16.8758 77.675 16.7232 77.0744 16.4181C76.4787 16.1081 76.0112 15.6479 75.6722 15.0376C75.338 14.4273 75.1709 13.6693 75.1709 12.7635C75.1709 11.8626 75.3234 11.0973 75.6286 10.4676C75.9337 9.83795 76.3624 9.35843 76.9146 9.02906C77.4668 8.69969 78.111 8.53501 78.8472 8.53501ZM78.8472 9.821C78.3096 9.821 77.8736 9.99537 77.5394 10.3441C77.21 10.6929 77.0163 11.2039 76.9582 11.8771H80.62C80.6151 11.4751 80.5473 11.1191 80.4165 10.8091C80.2906 10.4991 80.0969 10.2569 79.8353 10.0826C79.5786 9.90818 79.2492 9.821 78.8472 9.821ZM88.2923 8.53501C88.4279 8.53501 88.5757 8.54227 88.7355 8.5568C88.8954 8.57134 89.0334 8.59071 89.1496 8.61493L88.9898 10.2133C88.8881 10.1843 88.7622 10.1625 88.612 10.1479C88.4667 10.1334 88.3359 10.1261 88.2197 10.1261C87.9145 10.1261 87.6239 10.177 87.3478 10.2787C87.0717 10.3756 86.8271 10.5257 86.614 10.7292C86.4009 10.9278 86.2338 11.1772 86.1127 11.4775C85.9916 11.7778 85.931 12.1266 85.931 12.5238V16.7305H84.2164V8.68758H85.5532L85.7857 10.1044H85.8657C86.0255 9.81858 86.2241 9.55702 86.4614 9.31968C86.6988 9.08234 86.97 8.89344 87.2752 8.75297C87.5851 8.60766 87.9242 8.53501 88.2923 8.53501ZM95.3398 7.43792C94.8313 7.43792 94.376 7.52995 93.9739 7.71401C93.5767 7.89807 93.2401 8.16447 92.964 8.51321C92.6879 8.85711 92.4772 9.27609 92.3319 9.77014C92.1866 10.2593 92.114 10.8115 92.114 11.4267C92.114 12.2501 92.2302 12.9597 92.4627 13.5555C92.6952 14.1464 93.0488 14.6017 93.5235 14.9214C93.9981 15.2362 94.5988 15.3936 95.3253 15.3936C95.7758 15.3936 96.2141 15.35 96.6404 15.2628C97.0666 15.1757 97.5074 15.057 97.9627 14.9068V16.389C97.5316 16.5585 97.0957 16.682 96.6549 16.7595C96.2141 16.837 95.7055 16.8758 95.1291 16.8758C94.0442 16.8758 93.1432 16.6505 92.4264 16.2001C91.7144 15.7496 91.1816 15.1151 90.828 14.2965C90.4792 13.478 90.3049 12.5189 90.3049 11.4194C90.3049 10.6154 90.4163 9.87912 90.6391 9.2107C90.8619 8.54227 91.1864 7.96588 91.6126 7.48151C92.0389 6.9923 92.5644 6.61692 93.1893 6.35536C93.8189 6.08896 94.5382 5.95576 95.3471 5.95576C95.8799 5.95576 96.403 6.01631 96.9164 6.1374C97.4347 6.25365 97.9142 6.42075 98.355 6.63872L97.7447 8.07728C97.3766 7.90291 96.9915 7.75276 96.5895 7.62682C96.1875 7.50089 95.7709 7.43792 95.3398 7.43792ZM107.19 12.6909C107.19 13.3593 107.103 13.9526 106.928 14.4709C106.754 14.9892 106.5 15.4275 106.165 15.786C105.831 16.1395 105.429 16.4108 104.959 16.5997C104.49 16.7837 103.959 16.8758 103.368 16.8758C102.816 16.8758 102.31 16.7837 101.85 16.5997C101.39 16.4108 100.99 16.1395 100.651 15.786C100.317 15.4275 100.058 14.9892 99.8735 14.4709C99.6894 13.9526 99.5974 13.3593 99.5974 12.6909C99.5974 11.8045 99.75 11.0537 100.055 10.4386C100.365 9.81858 100.806 9.34632 101.377 9.0218C101.949 8.69727 102.63 8.53501 103.419 8.53501C104.16 8.53501 104.814 8.69727 105.381 9.0218C105.947 9.34632 106.391 9.81858 106.71 10.4386C107.03 11.0586 107.19 11.8093 107.19 12.6909ZM101.356 12.6909C101.356 13.2769 101.426 13.7783 101.566 14.1948C101.712 14.6114 101.934 14.9311 102.235 15.1539C102.535 15.3718 102.923 15.4808 103.397 15.4808C103.872 15.4808 104.259 15.3718 104.56 15.1539C104.86 14.9311 105.08 14.6114 105.221 14.1948C105.361 13.7783 105.432 13.2769 105.432 12.6909C105.432 12.1048 105.361 11.6083 105.221 11.2014C105.08 10.7897 104.86 10.4773 104.56 10.2642C104.259 10.0462 103.87 9.93725 103.39 9.93725C102.683 9.93725 102.167 10.1746 101.842 10.6493C101.518 11.1239 101.356 11.8045 101.356 12.6909ZM110.866 16.7305H109.152V5.42538H110.866V16.7305ZM115.022 16.7305H113.307V5.42538H115.022V16.7305ZM119.171 8.68758V16.7305H117.463V8.68758H119.171ZM118.328 5.60702C118.589 5.60702 118.815 5.67725 119.004 5.81772C119.197 5.95818 119.294 6.20037 119.294 6.54427C119.294 6.88332 119.197 7.12551 119.004 7.27081C118.815 7.41128 118.589 7.48151 118.328 7.48151C118.057 7.48151 117.826 7.41128 117.638 7.27081C117.454 7.12551 117.362 6.88332 117.362 6.54427C117.362 6.20037 117.454 5.95818 117.638 5.81772C117.826 5.67725 118.057 5.60702 118.328 5.60702ZM125.811 8.53501C126.717 8.53501 127.422 8.76993 127.926 9.23976C128.434 9.70475 128.688 10.4531 128.688 11.4848V16.7305H126.981V11.8045C126.981 11.1796 126.853 10.7122 126.596 10.4022C126.339 10.0874 125.942 9.92998 125.404 9.92998C124.625 9.92998 124.082 10.1697 123.777 10.6493C123.477 11.1288 123.326 11.8238 123.326 12.7345V16.7305H121.619V8.68758H122.949L123.188 9.77741H123.283C123.457 9.49647 123.673 9.2664 123.929 9.08718C124.191 8.90313 124.482 8.76508 124.801 8.67305C125.126 8.58102 125.463 8.53501 125.811 8.53501ZM136.484 14.4346C136.484 14.9625 136.356 15.4082 136.099 15.7714C135.842 16.1347 135.467 16.4108 134.973 16.5997C134.484 16.7837 133.883 16.8758 133.171 16.8758C132.609 16.8758 132.125 16.8346 131.718 16.7523C131.316 16.6748 130.936 16.5537 130.577 16.389V14.9141C130.96 15.0933 131.389 15.2483 131.863 15.3791C132.343 15.5099 132.796 15.5753 133.222 15.5753C133.784 15.5753 134.188 15.4881 134.435 15.3137C134.682 15.1345 134.806 14.8971 134.806 14.6017C134.806 14.4273 134.755 14.2723 134.653 14.1367C134.556 13.9962 134.372 13.8533 134.101 13.708C133.835 13.5579 133.442 13.3787 132.924 13.1704C132.416 12.967 131.987 12.7635 131.638 12.5601C131.289 12.3567 131.025 12.112 130.846 11.8263C130.667 11.5357 130.577 11.1651 130.577 10.7147C130.577 10.0026 130.858 9.46257 131.42 9.09445C131.987 8.72149 132.735 8.53501 133.665 8.53501C134.159 8.53501 134.624 8.58587 135.06 8.68758C135.501 8.78446 135.932 8.92734 136.353 9.11625L135.816 10.4022C135.453 10.2424 135.087 10.1116 134.719 10.0099C134.355 9.90334 133.985 9.85006 133.607 9.85006C133.166 9.85006 132.83 9.91787 132.597 10.0535C132.37 10.1891 132.256 10.3829 132.256 10.6347C132.256 10.8236 132.311 10.9835 132.423 11.1143C132.534 11.245 132.726 11.3758 132.997 11.5066C133.273 11.6374 133.656 11.7996 134.145 11.9934C134.624 12.1774 135.038 12.3712 135.387 12.5746C135.741 12.7732 136.012 13.0178 136.201 13.3084C136.39 13.599 136.484 13.9744 136.484 14.4346Z" fill="#A3A3A3"/>
<path d="M24.228 11.5808C24.228 12.3615 24.3833 13.1344 24.6846 13.8546C24.986 14.5748 25.4276 15.2279 25.9836 15.7759C26.5397 16.3239 27.1991 16.7559 27.9236 17.0467C28.6482 17.3376 29.4232 17.4815 30.2039 17.4701C30.9845 17.4587 31.755 17.2922 32.4708 16.9804C33.1865 16.6685 33.833 16.2174 34.3728 15.6535C34.9127 15.0895 35.335 14.4238 35.6152 13.6951C35.8955 12.9665 36.0281 12.1893 36.0053 11.409L34.1277 11.4638C34.1432 11.9953 34.0529 12.5246 33.8621 13.0208C33.6712 13.5171 33.3836 13.9705 33.0159 14.3546C32.6482 14.7388 32.2079 15.046 31.7204 15.2584C31.2329 15.4708 30.7081 15.5841 30.1765 15.5919C29.6448 15.5997 29.1169 15.5016 28.6234 15.3035C28.13 15.1055 27.6809 14.8112 27.3021 14.438C26.9234 14.0648 26.6227 13.62 26.4174 13.1295C26.2121 12.639 26.1064 12.1125 26.1064 11.5808L24.228 11.5808Z" fill="#A3A3A3"/>
<path d="M66.3843 36.3796C66.3843 37.1604 66.5395 37.9333 66.8409 38.6534C67.1423 39.3736 67.5838 40.0267 68.1399 40.5747C68.696 41.1227 69.3554 41.5547 70.0799 41.8455C70.8044 42.1364 71.5795 42.2803 72.3601 42.2689C73.1407 42.2575 73.9113 42.091 74.627 41.7792C75.3427 41.4673 75.9893 41.0163 76.5291 40.4523C77.0689 39.8883 77.4912 39.2226 77.7715 38.494C78.0517 37.7653 78.1843 36.9882 78.1616 36.2078L76.284 36.2626C76.2995 36.7941 76.2092 37.3234 76.0183 37.8197C75.8274 38.316 75.5398 38.7693 75.1721 39.1535C74.8045 39.5376 74.3641 39.8448 73.8767 40.0572C73.3892 40.2696 72.8644 40.383 72.3327 40.3907C71.801 40.3985 71.2731 40.3005 70.7797 40.1024C70.2862 39.9043 69.8371 39.6101 69.4584 39.2368C69.0797 38.8636 68.7789 38.4188 68.5737 37.9283C68.3684 37.4378 68.2627 36.9114 68.2627 36.3796L66.3843 36.3796Z" fill="#A3A3A3"/>
<rect x="34.1445" y="2.58984" width="1.85996" height="9.29981" fill="#A3A3A3"/>
<rect x="0.046875" y="21.8105" width="140.117" height="0.619988" rx="0.309994" fill="#A3A3A3"/>
<path d="M54.842 30.2428C54.842 30.841 54.733 31.3411 54.515 31.7431C54.2971 32.1428 53.981 32.4443 53.5669 32.6477C53.1552 32.8487 52.6551 32.9492 52.0666 32.9492H50.6244V27.6382H52.2264C52.7665 27.6382 53.2315 27.7374 53.6214 27.936C54.0113 28.1322 54.3116 28.424 54.5223 28.8115C54.7354 29.1966 54.842 29.6737 54.842 30.2428ZM54.1917 30.2646C54.1917 29.7875 54.1118 29.394 53.952 29.084C53.7945 28.774 53.562 28.5439 53.2545 28.3938C52.9493 28.2412 52.5751 28.1649 52.132 28.1649H51.2419V32.4188H51.9939C52.7253 32.4188 53.2738 32.2384 53.6395 31.8776C54.0077 31.5167 54.1917 30.9791 54.1917 30.2646ZM60.0688 28.8951C60.4078 28.8951 60.6984 28.9702 60.9406 29.1203C61.1828 29.2705 61.3681 29.4812 61.4964 29.7524C61.6248 30.0212 61.689 30.3361 61.689 30.6969V31.0711H58.939C58.9462 31.5385 59.0625 31.8945 59.2877 32.1391C59.513 32.3837 59.8302 32.506 60.2395 32.506C60.4914 32.506 60.7142 32.483 60.9079 32.437C61.1017 32.391 61.3027 32.3232 61.511 32.2336V32.7639C61.31 32.8536 61.1101 32.9189 60.9116 32.9601C60.7154 33.0013 60.4829 33.0219 60.2141 33.0219C59.8314 33.0219 59.4972 32.9444 59.2114 32.7894C58.9281 32.632 58.7077 32.4019 58.5503 32.0992C58.3929 31.7964 58.3142 31.4259 58.3142 30.9875C58.3142 30.5589 58.3856 30.1883 58.5285 29.8759C58.6738 29.5611 58.8772 29.3189 59.1388 29.1494C59.4028 28.9798 59.7128 28.8951 60.0688 28.8951ZM60.0615 29.3891C59.7394 29.3891 59.4827 29.4945 59.2914 29.7052C59.1 29.9159 58.9862 30.2101 58.9499 30.5879H61.0569C61.0544 30.3506 61.0169 30.1423 60.9443 29.9631C60.874 29.7815 60.7663 29.641 60.6209 29.5417C60.4756 29.44 60.2892 29.3891 60.0615 29.3891ZM67.2027 28.8951C67.675 28.8951 68.0322 29.0113 68.2744 29.2438C68.5166 29.4739 68.6377 29.8444 68.6377 30.3554V32.9492H68.0419V30.3954C68.0419 30.0636 67.9656 29.8154 67.813 29.6507C67.6629 29.486 67.4316 29.4037 67.1192 29.4037C66.6784 29.4037 66.3684 29.5284 66.1892 29.7778C66.01 30.0273 65.9204 30.3893 65.9204 30.864V32.9492H65.3173V28.9677H65.8041L65.895 29.5417H65.9276C66.0124 29.4012 66.1202 29.2838 66.251 29.1893C66.3817 29.0925 66.5283 29.0198 66.6905 28.9714C66.8528 28.9205 67.0235 28.8951 67.2027 28.8951ZM73.77 32.5278C73.8693 32.5278 73.971 32.5193 74.0752 32.5024C74.1793 32.4854 74.2641 32.4649 74.3294 32.4406V32.9093C74.2592 32.9407 74.1611 32.9674 74.0352 32.9892C73.9117 33.011 73.7906 33.0219 73.6719 33.0219C73.4612 33.0219 73.2699 32.9855 73.0979 32.9129C72.926 32.8378 72.788 32.7119 72.6838 32.5351C72.5821 32.3583 72.5312 32.1137 72.5312 31.8013V29.44H71.9645V29.1457L72.5349 28.9096L72.7746 28.045H73.1379V28.9677H74.304V29.44H73.1379V31.7831C73.1379 32.0326 73.1948 32.219 73.3086 32.3426C73.4249 32.4661 73.5787 32.5278 73.77 32.5278ZM78.3429 28.9677V32.9492H77.7399V28.9677H78.3429ZM78.0486 27.4783C78.1479 27.4783 78.2327 27.511 78.3029 27.5764C78.3756 27.6394 78.4119 27.7387 78.4119 27.8743C78.4119 28.0075 78.3756 28.1068 78.3029 28.1722C78.2327 28.2376 78.1479 28.2703 78.0486 28.2703C77.9445 28.2703 77.8573 28.2376 77.7871 28.1722C77.7193 28.1068 77.6854 28.0075 77.6854 27.8743C77.6854 27.7387 77.7193 27.6394 77.7871 27.5764C77.8573 27.511 77.9445 27.4783 78.0486 27.4783ZM84.8012 31.8594C84.8012 32.1137 84.737 32.328 84.6086 32.5024C84.4827 32.6743 84.3011 32.8039 84.0637 32.8911C83.8288 32.9783 83.5479 33.0219 83.2209 33.0219C82.9424 33.0219 82.7015 33.0001 82.498 32.9565C82.2946 32.9129 82.1166 32.8511 81.964 32.7712V32.2154C82.1263 32.2953 82.32 32.368 82.5453 32.4334C82.7705 32.4988 83.0006 32.5315 83.2355 32.5315C83.5794 32.5315 83.8288 32.4758 83.9838 32.3643C84.1388 32.2529 84.2163 32.1016 84.2163 31.9103C84.2163 31.8013 84.1848 31.7056 84.1219 31.6233C84.0613 31.5385 83.9584 31.4574 83.8131 31.3799C83.6678 31.3 83.4668 31.2128 83.21 31.1183C82.9558 31.0214 82.7354 30.9258 82.5489 30.8313C82.3648 30.7345 82.2219 30.617 82.1202 30.479C82.0209 30.3409 81.9713 30.1617 81.9713 29.9413C81.9713 29.6047 82.1069 29.3468 82.3781 29.1675C82.6518 28.9859 83.0102 28.8951 83.4534 28.8951C83.6932 28.8951 83.9172 28.9193 84.1255 28.9677C84.3362 29.0138 84.5324 29.0767 84.714 29.1566L84.5106 29.6398C84.3459 29.5696 84.1703 29.5102 83.9838 29.4618C83.7973 29.4134 83.6072 29.3891 83.4135 29.3891C83.135 29.3891 82.9206 29.4351 82.7705 29.5272C82.6227 29.6192 82.5489 29.7451 82.5489 29.905C82.5489 30.0285 82.5828 30.1302 82.6506 30.2101C82.7208 30.2901 82.8322 30.3651 82.9848 30.4354C83.1374 30.5056 83.3384 30.5879 83.5878 30.6824C83.8373 30.7744 84.0528 30.8701 84.2345 30.9694C84.4161 31.0662 84.5554 31.1849 84.6522 31.3254C84.7515 31.4634 84.8012 31.6414 84.8012 31.8594ZM89.6611 32.5278C89.7604 32.5278 89.8621 32.5193 89.9662 32.5024C90.0703 32.4854 90.1551 32.4649 90.2205 32.4406V32.9093C90.1503 32.9407 90.0522 32.9674 89.9263 32.9892C89.8027 33.011 89.6816 33.0219 89.563 33.0219C89.3523 33.0219 89.161 32.9855 88.989 32.9129C88.8171 32.8378 88.679 32.7119 88.5749 32.5351C88.4732 32.3583 88.4223 32.1137 88.4223 31.8013V29.44H87.8556V29.1457L88.4259 28.9096L88.6657 28.045H89.029V28.9677H90.1951V29.44H89.029V31.7831C89.029 32.0326 89.0859 32.219 89.1997 32.3426C89.316 32.4661 89.4697 32.5278 89.6611 32.5278Z" fill="#A3A3A3"/>
</svg>
