<svg width="211" height="45" viewBox="0 0 211 45" fill="none" xmlns="http://www.w3.org/2000/svg">
<g clip-path="url(#clip0_341_23083)">
<path d="M35 23C35 31.2842 28.2842 38 20 38C11.7158 38 5 31.2842 5 23C5 14.7158 11.7158 8 20 8C28.2842 8 35 14.7158 35 23ZM20 9.2C12.3785 9.2 6.2 15.3785 6.2 23C6.2 30.6215 12.3785 36.8 20 36.8C27.6215 36.8 33.8 30.6215 33.8 23C33.8 15.3785 27.6215 9.2 20 9.2Z" fill="#A3A3A3"/>
<path d="M26.75 22.25H20.75V14C20.75 13.5857 20.4143 13.25 20 13.25C19.5857 13.25 19.25 13.5857 19.25 14V22.25H13.25C12.4214 22.25 11.75 22.9214 11.75 23.75V29.75C11.75 30.5786 12.4214 31.25 13.25 31.25H26.75C27.5786 31.25 28.25 30.5786 28.25 29.75V23.75C28.25 22.9214 27.5786 22.25 26.75 22.25Z" fill="#A3A3A3"/>
<path d="M21.5 21.5008V19.2508C21.5 17.9008 21.9503 17.3008 22.4 17.3008C22.85 17.3008 22.8503 17.6008 23.3 17.6008C23.75 17.6008 23.7503 17.3008 24.2 17.3008C24.65 17.3008 24.95 18.2008 24.95 18.2008C24.95 18.2008 24.35 18.2008 23.75 19.1008L22.1 21.5008H21.5Z" fill="#A3A3A3"/>
<path d="M18.4992 19.6992C17.5053 19.6992 16.6992 20.5053 16.6992 21.4992H18.4992V19.6992Z" fill="#A3A3A3"/>
<path d="M22.6992 21.4995L24.1353 19.3923C24.9801 18.1527 26.0958 18.9132 27.3633 17.0541C28.0392 16.0623 28.2081 15.8145 28.2081 15.8145L29.0757 16.4061C29.0757 16.4061 28.9911 16.53 28.2309 17.6457C26.9634 19.5048 28.0791 20.2602 27.2343 21.4998H22.6992V21.4995Z" fill="#A3A3A3"/>
<path d="M16.2492 21.5004C16.2492 20.9199 16.4709 20.3925 16.8318 19.9935C16.5027 19.6302 16.0284 19.4004 15.4992 19.4004C14.5053 19.4004 13.6992 20.2065 13.6992 21.2004C13.6992 21.303 13.7097 21.4026 13.7262 21.5004H16.2492Z" fill="#A3A3A3"/>
<path d="M18.4995 18.5101C18.1809 18.2248 17.7609 18.0508 17.2995 18.0508C16.6284 18.0508 16.044 18.4189 15.7344 18.9634C16.3005 19.0225 16.803 19.2922 17.1654 19.6918C17.5389 19.4158 17.9994 19.2505 18.4995 19.2505V18.5101Z" fill="#A3A3A3"/>
<path d="M30.4993 19.9992C30.0493 19.5492 28.8493 19.2492 28.0993 19.6992C28.2139 20.3856 28.1527 21.1584 27.7852 21.753C28.2958 22.0185 28.6909 22.4736 28.8784 23.0256C29.6143 22.6356 30.4993 21.9201 30.4993 21.4992C30.4993 20.8992 29.7493 20.7492 30.4993 19.9992Z" fill="#A3A3A3"/>
<path d="M13.465 20.2426C12.9583 20.1157 11.7655 19.8175 11.2984 19.7008C10.2391 19.4359 10.8484 18.5008 10.8484 18.5008C10.8484 18.5008 10.6984 18.0508 9.94844 18.0508C9.34844 18.0508 9.04844 18.8008 9.04844 18.8008C9.04844 18.8008 8.14844 18.9322 8.14844 19.5508C8.14844 20.3008 8.59844 20.3008 8.59844 20.3008C8.59844 20.3008 8.74844 21.2008 9.34844 21.2008C9.94844 21.2008 10.6984 20.4508 11.7484 20.4508C12.2782 20.4508 12.9559 20.6002 13.3093 20.6881C13.3456 20.5324 13.3984 20.3836 13.465 20.2426Z" fill="#A3A3A3"/>
<path d="M13.2484 21.2004C13.2484 21.1746 13.2514 21.1494 13.2523 21.1236C12.8866 21.0348 12.2509 20.9004 11.7484 20.9004C10.6984 20.9004 9.64844 21.6504 9.64844 22.2504C9.64844 22.7004 10.2484 22.7004 10.2484 22.7004C10.2484 22.7004 11.1484 21.8004 11.8984 21.6504C12.4624 21.5376 13.0261 21.5097 13.2709 21.5028C13.2577 21.4035 13.2484 21.3033 13.2484 21.2004Z" fill="#A3A3A3"/>
<path d="M13.7061 19.8478C14.043 19.4011 14.541 19.0849 15.1149 18.985C14.7927 18.4555 15.0186 17.2774 14.6016 16.9996C14.6016 16.9996 14.3016 17.1496 14.0016 17.1496C13.7016 17.1496 13.5516 16.8496 13.2516 16.8496C12.9516 16.8496 12.8016 17.1496 12.5016 17.1496C12.2016 17.1496 11.7516 16.8496 11.4516 16.8496C11.1516 16.8496 10.8516 16.9996 10.8516 17.4496C10.8516 18.0496 11.3016 18.4996 11.3016 18.4996C11.3016 18.4996 10.8516 19.0996 11.3016 19.2496C11.9016 19.3996 13.7016 19.8496 13.7016 19.8496C13.7016 19.8496 13.7034 19.849 13.7061 19.8478Z" fill="#A3A3A3"/>
<path d="M51.814 21.0627L49.1422 15.0948C48.628 13.8804 47.44 13.0977 46.1713 13.0977C44.6329 13.0977 43.5517 14.151 43.2547 15.8778L41.2039 27.4062C41.176 27.6498 41.1484 27.8925 41.1484 28.1361C41.1484 30.0264 42.3913 31.3761 44.1454 31.3761C45.6856 31.3761 46.8199 30.3231 47.1166 28.5957L47.602 25.734L48.7897 28.947C49.411 30.6201 50.3563 31.3761 51.8137 31.3761C53.2171 31.3761 54.2707 30.5406 54.865 28.9197L56.0257 25.734L56.7013 29.1078C56.9443 30.4578 58.1326 31.3761 59.6446 31.3761C61.2637 31.3761 62.56 30.1074 62.56 28.4877C62.56 28.2171 62.5333 27.8667 62.4523 27.489L60.4 15.8781C60.238 14.9067 59.9956 14.3943 59.482 13.9077C58.969 13.422 58.159 13.098 57.4303 13.098C56.3236 13.098 55.2703 13.746 54.8107 14.691L51.814 21.0627Z" fill="#A3A3A3"/>
<path d="M70.3984 25.7V24.35H72.472C73.4164 24.35 73.8484 24.2312 74.3074 23.8814C74.794 23.4752 75.0907 22.8317 75.0907 22.1564C75.0907 20.8877 74.1457 20 72.6874 20H70.3984V18.8H73.3093C74.416 18.8 75.0373 18.6083 75.5773 18.1481C76.198 17.6363 76.5484 16.8236 76.5484 15.9602C76.5484 14.7182 75.7384 13.7009 74.4976 13.3769C74.092 13.2692 73.9294 13.25 72.229 13.25H68.6656C66.9106 13.25 66.7744 13.2686 66.1003 13.5377C65.4793 13.808 64.9123 14.3432 64.6696 15.0185C64.426 15.5846 64.3984 15.7694 64.3984 17.2811V27.056C64.3984 28.2971 64.426 28.4597 64.507 28.8377C64.6954 29.891 65.2903 30.6242 66.2071 31.0022C66.7204 31.1912 67.0999 31.25 68.4757 31.25H73.0927C74.4424 31.25 74.956 31.1105 75.5497 30.6242C76.1437 30.1115 76.5214 29.2994 76.5214 28.4621C76.5214 27.6518 76.1707 26.9057 75.5497 26.3657C74.9287 25.8527 74.3626 25.7 73.0666 25.7H70.3984V25.7Z" fill="#A3A3A3"/>
<path d="M90.3533 24.3014C91.7297 22.7621 92.2697 21.4391 92.2697 19.7123C92.2697 16.7951 90.3254 14.294 87.5444 13.5113C86.7623 13.322 86.1134 13.25 84.6557 13.25H82.1717C80.7407 13.25 80.147 13.4297 79.4717 14.024C78.7694 14.6447 78.5 15.3644 78.5 16.661V27.7577C78.5 28.8923 78.7157 29.675 79.2008 30.2951C79.7423 30.9707 80.6627 31.3757 81.5531 31.3757C83.2004 31.3757 84.5 30.08 84.5 28.3787V25.9223L86.927 29.999C87.467 30.89 88.3166 31.376 89.3696 31.376C91.0427 31.376 92.3309 30.1064 92.3309 28.46C92.3309 27.8393 92.1389 27.1376 91.7603 26.5436L90.3533 24.3014ZM84.4997 18.7397C84.6497 18.7673 84.956 18.7673 85.0904 18.7673C85.9811 18.7397 86.4524 19.124 86.4524 19.7708C86.4524 20.4194 85.9787 20.75 85.088 20.75H84.6824H84.4997V18.7397Z" fill="#A3A3A3"/>
<path d="M111.597 26.0044C111.597 24.4654 110.193 23.0884 108.627 23.0884C107.872 23.0884 107.061 23.4391 106.575 23.9524L105.954 24.5998C105.253 25.3561 104.281 25.7887 103.309 25.7887C101.365 25.7887 99.799 24.2218 99.799 22.2775C99.799 20.3071 101.365 18.7687 103.335 18.7687C104.308 18.7687 105.253 19.1455 105.901 19.8481L106.765 20.7928C107.169 21.2251 107.925 21.5215 108.627 21.5215C110.275 21.5215 111.597 20.1718 111.597 18.5512C111.597 17.3641 110.868 16.1482 109.41 14.9884C107.682 13.5577 105.576 12.8008 103.39 12.8008C98.1244 12.8008 93.832 17.0404 93.832 22.2775C93.832 27.4885 98.0971 31.7008 103.362 31.7008C105.657 31.7008 107.899 30.8371 109.653 29.3248C110.922 28.2184 111.597 27.0835 111.597 26.0044Z" fill="#A3A3A3"/>
<path d="M118.548 28.8516H124.119C124.955 30.8016 125.766 31.356 127.142 31.356C128.79 31.356 130.14 30.0432 130.14 28.4247C130.14 27.9645 130.032 27.4572 129.788 26.9973L124.119 14.9049C123.579 13.7703 122.553 13.0977 121.338 13.0977C120.149 13.0977 119.123 13.7724 118.61 14.8794L112.967 26.8416C112.725 27.3546 112.59 27.8937 112.59 28.4073C112.59 30.081 113.885 31.356 115.532 31.356C116.964 31.356 117.854 30.6516 118.611 28.8516H118.548ZM120.42 24.6516L121.338 22.4919L122.256 24.6516H120.42Z" fill="#A3A3A3"/>
<path d="M134.967 13.25C133.239 13.25 132.148 13.9163 131.717 15.212C131.582 15.6179 131.599 15.7694 131.599 17.2811V27.1913C131.599 28.433 131.581 28.7297 131.69 29.135C131.879 29.8364 132.248 30.3278 132.923 30.7592C133.464 31.1381 134.021 31.2503 135.426 31.2503H137.936C139.178 31.2503 140.258 31.1654 140.987 31.0307C142.554 30.7058 144.065 29.9204 145.226 28.841C147.062 27.1388 148.115 24.7076 148.115 22.2242C148.115 19.6595 147.036 17.2103 145.145 15.5366C143.39 13.9709 141.311 13.25 138.611 13.25H134.967ZM137.449 18.8H137.99C139.098 18.8 139.718 18.8918 140.285 19.1612C141.447 19.7282 142.202 20.9351 142.202 22.2581C142.202 23.3645 141.608 24.4685 140.717 25.1147C140.015 25.6007 139.549 25.6781 137.449 25.706V18.8Z" fill="#A3A3A3"/>
<path d="M149.754 22.1428C149.754 27.4615 153.966 31.7008 159.258 31.7008C164.47 31.7008 168.736 27.4357 168.736 22.2241C168.736 17.0131 164.495 12.8008 159.231 12.8008C153.966 12.8008 149.754 16.9594 149.754 22.1428ZM155.721 22.2241C155.721 20.3071 157.313 18.769 159.258 18.769C161.201 18.769 162.795 20.3347 162.795 22.2511C162.795 24.1948 161.201 25.8157 159.258 25.8157C157.313 25.8157 155.721 24.1945 155.721 22.2241Z" fill="#A3A3A3"/>
<path d="M180.499 20.091L175.754 14.286C175.079 13.449 174.41 13.0977 173.547 13.0977C171.683 13.0977 170.449 14.3664 170.449 16.2831V27.678C170.449 29.0004 170.568 29.5407 171.053 30.2166C171.62 30.9441 172.502 31.3773 173.42 31.3773C174.311 31.3773 175.179 30.972 175.745 30.2964C176.258 29.649 176.45 29.109 176.45 27.921V24.141L181.114 30.1617C181.735 30.9717 182.501 31.377 183.446 31.377C184.364 31.377 185.195 30.9717 185.734 30.2691C186.246 29.5947 186.35 29.0004 186.35 27.5691V16.5537C186.35 15.4464 186.185 14.826 185.672 14.178C185.105 13.5024 184.307 13.0977 183.416 13.0977C182.444 13.0977 181.526 13.6104 181.013 14.394C180.581 15.0144 180.499 15.5559 180.499 16.7433V20.091H180.499Z" fill="#A3A3A3"/>
<path d="M194.147 28.8516H199.647C200.483 30.8016 201.293 31.356 202.671 31.356C204.318 31.356 205.668 30.0432 205.668 28.4247C205.668 27.9645 205.561 27.4572 205.317 26.9973L199.647 14.9049C199.107 13.7703 198.082 13.0977 196.866 13.0977C195.679 13.0977 194.651 13.7724 194.139 14.8794L188.495 26.8416C188.253 27.3546 188.117 27.8937 188.117 28.4073C188.117 30.081 189.413 31.356 191.06 31.356C192.493 31.356 193.383 30.6516 194.139 28.8516H194.147ZM195.948 24.6516L196.866 22.4919L197.784 24.6516H195.948Z" fill="#A3A3A3"/>
</g>
<defs>
<clipPath id="clip0_341_23083">
<rect width="200.7" height="30" fill="white" transform="translate(5 8)"/>
</clipPath>
</defs>
</svg>
