<svg width="202" height="31" viewBox="0 0 202 31" fill="none" xmlns="http://www.w3.org/2000/svg">
<g clip-path="url(#clip0_327_21693)">
<path d="M30.9883 15.5C30.9883 23.7842 24.2725 30.5 15.9883 30.5C7.70408 30.5 0.988281 23.7842 0.988281 15.5C0.988281 7.2158 7.70408 0.5 15.9883 0.5C24.2725 0.5 30.9883 7.2158 30.9883 15.5ZM15.9883 1.7C8.36678 1.7 2.18828 7.8785 2.18828 15.5C2.18828 23.1215 8.36678 29.3 15.9883 29.3C23.6098 29.3 29.7883 23.1215 29.7883 15.5C29.7883 7.8785 23.6098 1.7 15.9883 1.7Z" fill="#A3A3A3"/>
<path d="M22.7383 14.75H16.7383V6.5C16.7383 6.0857 16.4026 5.75 15.9883 5.75C15.574 5.75 15.2383 6.0857 15.2383 6.5V14.75H9.23828C8.40968 14.75 7.73828 15.4214 7.73828 16.25V22.25C7.73828 23.0786 8.40968 23.75 9.23828 23.75H22.7383C23.5669 23.75 24.2383 23.0786 24.2383 22.25V16.25C24.2383 15.4214 23.5669 14.75 22.7383 14.75Z" fill="#A3A3A3"/>
<path d="M17.4883 14.0008V11.7508C17.4883 10.4008 17.9386 9.80078 18.3883 9.80078C18.8383 9.80078 18.8386 10.1008 19.2883 10.1008C19.7383 10.1008 19.7386 9.80078 20.1883 9.80078C20.6383 9.80078 20.9383 10.7008 20.9383 10.7008C20.9383 10.7008 20.3383 10.7008 19.7383 11.6008L18.0883 14.0008H17.4883Z" fill="#A3A3A3"/>
<path d="M14.4875 12.1992C13.4936 12.1992 12.6875 13.0053 12.6875 13.9992H14.4875V12.1992Z" fill="#A3A3A3"/>
<path d="M18.6875 13.9995L20.1236 11.8923C20.9684 10.6527 22.0841 11.4132 23.3516 9.55405C24.0275 8.56225 24.1964 8.31445 24.1964 8.31445L25.064 8.90605C25.064 8.90605 24.9794 9.02995 24.2192 10.1457C22.9517 12.0048 24.0674 12.7602 23.2226 13.9998H18.6875V13.9995Z" fill="#A3A3A3"/>
<path d="M12.2375 14.0004C12.2375 13.4199 12.4592 12.8925 12.8201 12.4935C12.491 12.1302 12.0167 11.9004 11.4875 11.9004C10.4936 11.9004 9.6875 12.7065 9.6875 13.7004C9.6875 13.803 9.698 13.9026 9.7145 14.0004H12.2375Z" fill="#A3A3A3"/>
<path d="M14.4878 11.0101C14.1692 10.7248 13.7492 10.5508 13.2878 10.5508C12.6167 10.5508 12.0323 10.9189 11.7227 11.4634C12.2888 11.5225 12.7913 11.7922 13.1537 12.1918C13.5272 11.9158 13.9877 11.7505 14.4878 11.7505V11.0101Z" fill="#A3A3A3"/>
<path d="M26.4875 12.4992C26.0375 12.0492 24.8375 11.7492 24.0875 12.1992C24.2021 12.8856 24.1409 13.6584 23.7734 14.253C24.284 14.5185 24.6791 14.9736 24.8666 15.5256C25.6025 15.1356 26.4875 14.4201 26.4875 13.9992C26.4875 13.3992 25.7375 13.2492 26.4875 12.4992Z" fill="#A3A3A3"/>
<path d="M9.45332 12.7426C8.94662 12.6157 7.75382 12.3175 7.28672 12.2008C6.22742 11.9359 6.83672 11.0008 6.83672 11.0008C6.83672 11.0008 6.68672 10.5508 5.93672 10.5508C5.33672 10.5508 5.03672 11.3008 5.03672 11.3008C5.03672 11.3008 4.13672 11.4322 4.13672 12.0508C4.13672 12.8008 4.58672 12.8008 4.58672 12.8008C4.58672 12.8008 4.73672 13.7008 5.33672 13.7008C5.93672 13.7008 6.68672 12.9508 7.73672 12.9508C8.26652 12.9508 8.94422 13.1002 9.29762 13.1881C9.33392 13.0324 9.38672 12.8836 9.45332 12.7426Z" fill="#A3A3A3"/>
<path d="M9.23672 13.7004C9.23672 13.6746 9.23972 13.6494 9.24062 13.6236C8.87492 13.5348 8.23922 13.4004 7.73672 13.4004C6.68672 13.4004 5.63672 14.1504 5.63672 14.7504C5.63672 15.2004 6.23672 15.2004 6.23672 15.2004C6.23672 15.2004 7.13672 14.3004 7.88672 14.1504C8.45072 14.0376 9.01442 14.0097 9.25922 14.0028C9.24602 13.9035 9.23672 13.8033 9.23672 13.7004Z" fill="#A3A3A3"/>
<path d="M9.69434 12.3478C10.0312 11.9011 10.5292 11.5849 11.1031 11.485C10.7809 10.9555 11.0068 9.77741 10.5898 9.49961C10.5898 9.49961 10.2898 9.64961 9.98984 9.64961C9.68984 9.64961 9.53984 9.34961 9.23984 9.34961C8.93984 9.34961 8.78984 9.64961 8.48984 9.64961C8.18984 9.64961 7.73984 9.34961 7.43984 9.34961C7.13984 9.34961 6.83984 9.49961 6.83984 9.94961C6.83984 10.5496 7.28984 10.9996 7.28984 10.9996C7.28984 10.9996 6.83984 11.5996 7.28984 11.7496C7.88984 11.8996 9.68984 12.3496 9.68984 12.3496C9.68984 12.3496 9.69164 12.349 9.69434 12.3478Z" fill="#A3A3A3"/>
<path d="M47.8023 13.5627L45.1305 7.59476C44.6163 6.38036 43.4283 5.59766 42.1596 5.59766C40.6212 5.59766 39.54 6.65096 39.243 8.37776L37.1922 19.9062C37.1643 20.1498 37.1367 20.3925 37.1367 20.6361C37.1367 22.5264 38.3796 23.8761 40.1337 23.8761C41.6739 23.8761 42.8082 22.8231 43.1049 21.0957L43.5903 18.234L44.778 21.447C45.3993 23.1201 46.3446 23.8761 47.802 23.8761C49.2054 23.8761 50.259 23.0406 50.8533 21.4197L52.014 18.234L52.6896 21.6078C52.9326 22.9578 54.1209 23.8761 55.6329 23.8761C57.252 23.8761 58.5483 22.6074 58.5483 20.9877C58.5483 20.7171 58.5216 20.3667 58.4406 19.989L56.3883 8.37806C56.2263 7.40666 55.9839 6.89426 55.4703 6.40766C54.9573 5.92196 54.1473 5.59796 53.4186 5.59796C52.3119 5.59796 51.2586 6.24596 50.799 7.19096L47.8023 13.5627Z" fill="#A3A3A3"/>
<path d="M66.3867 18.2V16.85H68.4603C69.4047 16.85 69.8367 16.7312 70.2957 16.3814C70.7823 15.9752 71.079 15.3317 71.079 14.6564C71.079 13.3877 70.134 12.5 68.6757 12.5H66.3867V11.3H69.2976C70.4043 11.3 71.0256 11.1083 71.5656 10.6481C72.1863 10.1363 72.5367 9.3236 72.5367 8.4602C72.5367 7.2182 71.7267 6.2009 70.4859 5.8769C70.0803 5.7692 69.9177 5.75 68.2173 5.75H64.6539C62.8989 5.75 62.7627 5.7686 62.0886 6.0377C61.4676 6.308 60.9006 6.8432 60.6579 7.5185C60.4143 8.0846 60.3867 8.2694 60.3867 9.7811V19.556C60.3867 20.7971 60.4143 20.9597 60.4953 21.3377C60.6837 22.391 61.2786 23.1242 62.1954 23.5022C62.7087 23.6912 63.0882 23.75 64.464 23.75H69.081C70.4307 23.75 70.9443 23.6105 71.538 23.1242C72.132 22.6115 72.5097 21.7994 72.5097 20.9621C72.5097 20.1518 72.159 19.4057 71.538 18.8657C70.917 18.3527 70.3509 18.2 69.0549 18.2H66.3867V18.2Z" fill="#A3A3A3"/>
<path d="M86.3416 16.8014C87.718 15.2621 88.258 13.9391 88.258 12.2123C88.258 9.2951 86.3137 6.794 83.5327 6.0113C82.7506 5.822 82.1017 5.75 80.644 5.75H78.16C76.729 5.75 76.1353 5.9297 75.46 6.524C74.7577 7.1447 74.4883 7.8644 74.4883 9.161V20.2577C74.4883 21.3923 74.704 22.175 75.1891 22.7951C75.7306 23.4707 76.651 23.8757 77.5414 23.8757C79.1887 23.8757 80.4883 22.58 80.4883 20.8787V18.4223L82.9153 22.499C83.4553 23.39 84.3049 23.876 85.3579 23.876C87.031 23.876 88.3192 22.6064 88.3192 20.96C88.3192 20.3393 88.1272 19.6376 87.7486 19.0436L86.3416 16.8014ZM80.488 11.2397C80.638 11.2673 80.9443 11.2673 81.0787 11.2673C81.9694 11.2397 82.4407 11.624 82.4407 12.2708C82.4407 12.9194 81.967 13.25 81.0763 13.25H80.6707H80.488V11.2397Z" fill="#A3A3A3"/>
<path d="M107.585 18.5044C107.585 16.9654 106.181 15.5884 104.615 15.5884C103.86 15.5884 103.05 15.9391 102.563 16.4524L101.942 17.0998C101.241 17.8561 100.269 18.2887 99.297 18.2887C97.353 18.2887 95.7873 16.7218 95.7873 14.7775C95.7873 12.8071 97.353 11.2687 99.3228 11.2687C100.296 11.2687 101.241 11.6455 101.889 12.3481L102.753 13.2928C103.157 13.7251 103.913 14.0215 104.616 14.0215C106.263 14.0215 107.585 12.6718 107.585 11.0512C107.585 9.86408 106.856 8.64818 105.398 7.48838C103.67 6.05768 101.564 5.30078 99.378 5.30078C94.1127 5.30078 89.8203 9.54038 89.8203 14.7775C89.8203 19.9885 94.0854 24.2008 99.3504 24.2008C101.646 24.2008 103.887 23.3371 105.642 21.8248C106.91 20.7184 107.585 19.5835 107.585 18.5044Z" fill="#A3A3A3"/>
<path d="M114.536 21.3516H120.107C120.944 23.3016 121.754 23.856 123.131 23.856C124.778 23.856 126.128 22.5432 126.128 20.9247C126.128 20.4645 126.02 19.9572 125.777 19.4973L120.107 7.40486C119.567 6.27026 118.541 5.59766 117.326 5.59766C116.138 5.59766 115.111 6.27236 114.599 7.37936L108.956 19.3416C108.714 19.8546 108.578 20.3937 108.578 20.9073C108.578 22.581 109.874 23.856 111.52 23.856C112.952 23.856 113.843 23.1516 114.599 21.3516H114.536ZM116.408 17.1516L117.326 14.9919L118.244 17.1516H116.408Z" fill="#A3A3A3"/>
<path d="M130.955 5.75C129.227 5.75 128.136 6.4163 127.705 7.712C127.57 8.1179 127.587 8.2694 127.587 9.7811V19.6913C127.587 20.933 127.57 21.2297 127.678 21.635C127.867 22.3364 128.236 22.8278 128.911 23.2592C129.452 23.6381 130.009 23.7503 131.414 23.7503H133.925C135.166 23.7503 136.247 23.6654 136.976 23.5307C138.542 23.2058 140.053 22.4204 141.214 21.341C143.05 19.6388 144.103 17.2076 144.103 14.7242C144.103 12.1595 143.024 9.7103 141.133 8.0366C139.378 6.4709 137.299 5.75 134.599 5.75H130.955ZM133.437 11.3H133.978C135.086 11.3 135.706 11.3918 136.274 11.6612C137.435 12.2282 138.19 13.4351 138.19 14.7581C138.19 15.8645 137.596 16.9685 136.705 17.6147C136.003 18.1007 135.537 18.1781 133.437 18.206V11.3Z" fill="#A3A3A3"/>
<path d="M145.742 14.6428C145.742 19.9615 149.954 24.2008 155.246 24.2008C160.458 24.2008 164.724 19.9357 164.724 14.7241C164.724 9.51308 160.483 5.30078 155.219 5.30078C149.954 5.30078 145.742 9.45938 145.742 14.6428ZM151.709 14.7241C151.709 12.8071 153.301 11.269 155.246 11.269C157.19 11.269 158.783 12.8347 158.783 14.7511C158.783 16.6948 157.19 18.3157 155.246 18.3157C153.301 18.3157 151.709 16.6945 151.709 14.7241Z" fill="#A3A3A3"/>
<path d="M176.487 12.591L171.742 6.78596C171.068 5.94896 170.399 5.59766 169.535 5.59766C167.671 5.59766 166.438 6.86636 166.438 8.78306V20.178C166.438 21.5004 166.556 22.0407 167.041 22.7166C167.608 23.4441 168.491 23.8773 169.408 23.8773C170.299 23.8773 171.167 23.472 171.734 22.7964C172.246 22.149 172.438 21.609 172.438 20.421V16.641L177.102 22.6617C177.723 23.4717 178.49 23.877 179.434 23.877C180.353 23.877 181.184 23.4717 181.723 22.7691C182.235 22.0947 182.338 21.5004 182.338 20.0691V9.05366C182.338 7.94636 182.173 7.32596 181.66 6.67796C181.094 6.00236 180.296 5.59766 179.404 5.59766C178.432 5.59766 177.514 6.11036 177.001 6.89396C176.569 7.51436 176.488 8.05586 176.488 9.24326V12.591H176.487Z" fill="#A3A3A3"/>
<path d="M190.136 21.3516H195.636C196.471 23.3016 197.282 23.856 198.659 23.856C200.306 23.856 201.656 22.5432 201.656 20.9247C201.656 20.4645 201.549 19.9572 201.305 19.4973L195.636 7.40486C195.096 6.27026 194.07 5.59766 192.854 5.59766C191.667 5.59766 190.639 6.27236 190.127 7.37936L184.483 19.3416C184.242 19.8546 184.105 20.3937 184.105 20.9073C184.105 22.581 185.402 23.856 187.048 23.856C188.481 23.856 189.371 23.1516 190.128 21.3516H190.136ZM191.936 17.1516L192.855 14.9919L193.772 17.1516H191.936Z" fill="#A3A3A3"/>
</g>
<defs>
<clipPath id="clip0_327_21693">
<rect width="200.7" height="30" fill="white" transform="translate(0.988281 0.5)"/>
</clipPath>
</defs>
</svg>
