<svg width="227" height="33" viewBox="0 0 227 33" fill="none" xmlns="http://www.w3.org/2000/svg">
<path d="M12.4609 21.3359C12.4609 22.3516 12.2109 23.2266 11.7109 23.9609C11.2188 24.6953 10.5078 25.2578 9.57812 25.6484C8.65625 26.0391 7.55469 26.2344 6.27344 26.2344C5.64844 26.2344 5.05078 26.1992 4.48047 26.1289C3.91016 26.0586 3.37109 25.957 2.86328 25.8242C2.36328 25.6836 1.90625 25.5156 1.49219 25.3203V22.6719C2.1875 22.9766 2.96484 23.2539 3.82422 23.5039C4.68359 23.7461 5.55859 23.8672 6.44922 23.8672C7.17578 23.8672 7.77734 23.7734 8.25391 23.5859C8.73828 23.3906 9.09766 23.1172 9.33203 22.7656C9.56641 22.4062 9.68359 21.9883 9.68359 21.5117C9.68359 21.0039 9.54688 20.5742 9.27344 20.2227C9 19.8711 8.58594 19.5508 8.03125 19.2617C7.48438 18.9648 6.79688 18.6484 5.96875 18.3125C5.40625 18.0859 4.86719 17.8281 4.35156 17.5391C3.84375 17.25 3.39062 16.9102 2.99219 16.5195C2.59375 16.1289 2.27734 15.668 2.04297 15.1367C1.81641 14.5977 1.70312 13.9648 1.70312 13.2383C1.70312 12.2695 1.93359 11.4414 2.39453 10.7539C2.86328 10.0664 3.51953 9.53906 4.36328 9.17188C5.21484 8.80469 6.20703 8.62109 7.33984 8.62109C8.23828 8.62109 9.08203 8.71484 9.87109 8.90234C10.668 9.08984 11.4492 9.35547 12.2148 9.69922L11.3242 11.9609C10.6211 11.6719 9.9375 11.4414 9.27344 11.2695C8.61719 11.0977 7.94531 11.0117 7.25781 11.0117C6.66406 11.0117 6.16016 11.1016 5.74609 11.2812C5.33203 11.4609 5.01562 11.7148 4.79688 12.043C4.58594 12.3633 4.48047 12.7461 4.48047 13.1914C4.48047 13.6914 4.60156 14.1133 4.84375 14.457C5.09375 14.793 5.47656 15.1016 5.99219 15.3828C6.51562 15.6641 7.1875 15.9766 8.00781 16.3203C8.95312 16.7109 9.75391 17.1211 10.4102 17.5508C11.0742 17.9805 11.582 18.4961 11.9336 19.0977C12.2852 19.6914 12.4609 20.4375 12.4609 21.3359ZM18.2383 13.0273V26H15.4844V13.0273H18.2383ZM16.8789 8.05859C17.3008 8.05859 17.6641 8.17188 17.9688 8.39844C18.2812 8.625 18.4375 9.01562 18.4375 9.57031C18.4375 10.1172 18.2812 10.5078 17.9688 10.7422C17.6641 10.9688 17.3008 11.082 16.8789 11.082C16.4414 11.082 16.0703 10.9688 15.7656 10.7422C15.4688 10.5078 15.3203 10.1172 15.3203 9.57031C15.3203 9.01562 15.4688 8.625 15.7656 8.39844C16.0703 8.17188 16.4414 8.05859 16.8789 8.05859ZM28.9492 12.7812C30.4102 12.7812 31.5469 13.1602 32.3594 13.918C33.1797 14.668 33.5898 15.875 33.5898 17.5391V26H30.8359V18.0547C30.8359 17.0469 30.6289 16.293 30.2148 15.793C29.8008 15.2852 29.1602 15.0312 28.293 15.0312C27.0352 15.0312 26.1602 15.418 25.668 16.1914C25.1836 16.9648 24.9414 18.0859 24.9414 19.5547V26H22.1875V13.0273H24.332L24.7188 14.7852H24.8711C25.1523 14.332 25.5 13.9609 25.9141 13.6719C26.3359 13.375 26.8047 13.1523 27.3203 13.0039C27.8438 12.8555 28.3867 12.7812 28.9492 12.7812ZM42.5312 12.7812C44.1719 12.7812 45.4102 13.1445 46.2461 13.8711C47.0898 14.5977 47.5117 15.7305 47.5117 17.2695V26H45.5547L45.0273 24.1602H44.9336C44.5664 24.6289 44.1875 25.0156 43.7969 25.3203C43.4062 25.625 42.9531 25.8516 42.4375 26C41.9297 26.1562 41.3086 26.2344 40.5742 26.2344C39.8008 26.2344 39.1094 26.0938 38.5 25.8125C37.8906 25.5234 37.4102 25.0859 37.0586 24.5C36.707 23.9141 36.5312 23.1719 36.5312 22.2734C36.5312 20.9375 37.0273 19.9336 38.0195 19.2617C39.0195 18.5898 40.5273 18.2188 42.543 18.1484L44.793 18.0664V17.3867C44.793 16.4883 44.582 15.8477 44.1602 15.4648C43.7461 15.082 43.1602 14.8906 42.4023 14.8906C41.7539 14.8906 41.125 14.9844 40.5156 15.1719C39.9062 15.3594 39.3125 15.5898 38.7344 15.8633L37.8438 13.918C38.4766 13.582 39.1953 13.3086 40 13.0977C40.8125 12.8867 41.6562 12.7812 42.5312 12.7812ZM44.7812 19.8008L43.1055 19.8594C41.7305 19.9062 40.7656 20.1406 40.2109 20.5625C39.6562 20.9844 39.3789 21.5625 39.3789 22.2969C39.3789 22.9375 39.5703 23.4062 39.9531 23.7031C40.3359 23.9922 40.8398 24.1367 41.4648 24.1367C42.418 24.1367 43.207 23.8672 43.832 23.3281C44.4648 22.7812 44.7812 21.9805 44.7812 20.9258V19.8008ZM65.1836 11.0117C64.3633 11.0117 63.6289 11.1602 62.9805 11.457C62.3398 11.7539 61.7969 12.1836 61.3516 12.7461C60.9062 13.3008 60.5664 13.9766 60.332 14.7734C60.0977 15.5625 59.9805 16.4531 59.9805 17.4453C59.9805 18.7734 60.168 19.918 60.543 20.8789C60.918 21.832 61.4883 22.5664 62.2539 23.082C63.0195 23.5898 63.9883 23.8438 65.1602 23.8438C65.8867 23.8438 66.5938 23.7734 67.2812 23.6328C67.9688 23.4922 68.6797 23.3008 69.4141 23.0586V25.4492C68.7188 25.7227 68.0156 25.9219 67.3047 26.0469C66.5938 26.1719 65.7734 26.2344 64.8438 26.2344C63.0938 26.2344 61.6406 25.8711 60.4844 25.1445C59.3359 24.418 58.4766 23.3945 57.9062 22.0742C57.3438 20.7539 57.0625 19.207 57.0625 17.4336C57.0625 16.1367 57.2422 14.9492 57.6016 13.8711C57.9609 12.793 58.4844 11.8633 59.1719 11.082C59.8594 10.293 60.707 9.6875 61.7148 9.26562C62.7305 8.83594 63.8906 8.62109 65.1953 8.62109C66.0547 8.62109 66.8984 8.71875 67.7266 8.91406C68.5625 9.10156 69.3359 9.37109 70.0469 9.72266L69.0625 12.043C68.4688 11.7617 67.8477 11.5195 67.1992 11.3164C66.5508 11.1133 65.8789 11.0117 65.1836 11.0117ZM84.1211 13.0273V26H81.9531L81.5781 24.2539H81.4258C81.1523 24.6992 80.8047 25.0703 80.3828 25.3672C79.9609 25.6562 79.4922 25.8711 78.9766 26.0117C78.4609 26.1602 77.918 26.2344 77.3477 26.2344C76.3711 26.2344 75.5352 26.0703 74.8398 25.7422C74.1523 25.4062 73.625 24.8906 73.2578 24.1953C72.8906 23.5 72.707 22.6016 72.707 21.5V13.0273H75.4727V20.9844C75.4727 21.9922 75.6758 22.7461 76.082 23.2461C76.4961 23.7461 77.1367 23.9961 78.0039 23.9961C78.8398 23.9961 79.5039 23.8242 79.9961 23.4805C80.4883 23.1367 80.8359 22.6289 81.0391 21.957C81.25 21.2852 81.3555 20.4609 81.3555 19.4844V13.0273H84.1211ZM90.8359 26H88.0703V7.76562H90.8359V26ZM103.492 22.2969C103.492 23.1484 103.285 23.8672 102.871 24.4531C102.457 25.0391 101.852 25.4844 101.055 25.7891C100.266 26.0859 99.2969 26.2344 98.1484 26.2344C97.2422 26.2344 96.4609 26.168 95.8047 26.0352C95.1562 25.9102 94.543 25.7148 93.9648 25.4492V23.0703C94.582 23.3594 95.2734 23.6094 96.0391 23.8203C96.8125 24.0312 97.543 24.1367 98.2305 24.1367C99.1367 24.1367 99.7891 23.9961 100.188 23.7148C100.586 23.4258 100.785 23.043 100.785 22.5664C100.785 22.2852 100.703 22.0352 100.539 21.8164C100.383 21.5898 100.086 21.3594 99.6484 21.125C99.2188 20.8828 98.5859 20.5938 97.75 20.2578C96.9297 19.9297 96.2383 19.6016 95.6758 19.2734C95.1133 18.9453 94.6875 18.5508 94.3984 18.0898C94.1094 17.6211 93.9648 17.0234 93.9648 16.2969C93.9648 15.1484 94.418 14.2773 95.3242 13.6836C96.2383 13.082 97.4453 12.7812 98.9453 12.7812C99.7422 12.7812 100.492 12.8633 101.195 13.0273C101.906 13.1836 102.602 13.4141 103.281 13.7188L102.414 15.793C101.828 15.5352 101.238 15.3242 100.645 15.1602C100.059 14.9883 99.4609 14.9023 98.8516 14.9023C98.1406 14.9023 97.5977 15.0117 97.2227 15.2305C96.8555 15.4492 96.6719 15.7617 96.6719 16.168C96.6719 16.4727 96.7617 16.7305 96.9414 16.9414C97.1211 17.1523 97.4297 17.3633 97.8672 17.5742C98.3125 17.7852 98.9297 18.0469 99.7188 18.3594C100.492 18.6562 101.16 18.9688 101.723 19.2969C102.293 19.6172 102.73 20.0117 103.035 20.4805C103.34 20.9492 103.492 21.5547 103.492 22.2969ZM111.555 12.7812C113.195 12.7812 114.434 13.1445 115.27 13.8711C116.113 14.5977 116.535 15.7305 116.535 17.2695V26H114.578L114.051 24.1602H113.957C113.59 24.6289 113.211 25.0156 112.82 25.3203C112.43 25.625 111.977 25.8516 111.461 26C110.953 26.1562 110.332 26.2344 109.598 26.2344C108.824 26.2344 108.133 26.0938 107.523 25.8125C106.914 25.5234 106.434 25.0859 106.082 24.5C105.73 23.9141 105.555 23.1719 105.555 22.2734C105.555 20.9375 106.051 19.9336 107.043 19.2617C108.043 18.5898 109.551 18.2188 111.566 18.1484L113.816 18.0664V17.3867C113.816 16.4883 113.605 15.8477 113.184 15.4648C112.77 15.082 112.184 14.8906 111.426 14.8906C110.777 14.8906 110.148 14.9844 109.539 15.1719C108.93 15.3594 108.336 15.5898 107.758 15.8633L106.867 13.918C107.5 13.582 108.219 13.3086 109.023 13.0977C109.836 12.8867 110.68 12.7812 111.555 12.7812ZM113.805 19.8008L112.129 19.8594C110.754 19.9062 109.789 20.1406 109.234 20.5625C108.68 20.9844 108.402 21.5625 108.402 22.2969C108.402 22.9375 108.594 23.4062 108.977 23.7031C109.359 23.9922 109.863 24.1367 110.488 24.1367C111.441 24.1367 112.23 23.8672 112.855 23.3281C113.488 22.7812 113.805 21.9805 113.805 20.9258V19.8008ZM115.457 7.61328V7.84766C115.27 8.07422 115.016 8.34766 114.695 8.66797C114.375 8.98047 114.027 9.3125 113.652 9.66406C113.277 10.0078 112.906 10.3398 112.539 10.6602C112.172 10.9727 111.84 11.2383 111.543 11.457H109.703V11.1523C109.961 10.8555 110.246 10.5 110.559 10.0859C110.879 9.67188 111.191 9.24609 111.496 8.80859C111.809 8.37109 112.07 7.97266 112.281 7.61328H115.457ZM127.152 12.7812C128.613 12.7812 129.75 13.1602 130.562 13.918C131.383 14.668 131.793 15.875 131.793 17.5391V26H129.039V18.0547C129.039 17.0469 128.832 16.293 128.418 15.793C128.004 15.2852 127.363 15.0312 126.496 15.0312C125.238 15.0312 124.363 15.418 123.871 16.1914C123.387 16.9648 123.145 18.0859 123.145 19.5547V26H120.391V13.0273H122.535L122.922 14.7852H123.074C123.355 14.332 123.703 13.9609 124.117 13.6719C124.539 13.375 125.008 13.1523 125.523 13.0039C126.047 12.8555 126.59 12.7812 127.152 12.7812Z" fill="white" fill-opacity="0.87"/>
<path d="M142 5.5L142 27.5" stroke="white"/>
<path d="M155.775 9.72266C157.475 9.72266 158.747 10.0482 159.594 10.6992C160.44 11.3503 160.863 12.3626 160.863 13.7363C160.863 14.4395 160.749 15.0645 160.521 15.6113C160.3 16.1517 159.965 16.6074 159.516 16.9785C159.066 17.3496 158.503 17.6296 157.826 17.8184C157.156 18.0072 156.371 18.1016 155.473 18.1016H153.275V24H152.27V9.72266H155.775ZM155.668 10.6113H153.275V17.2129H155.375C156.299 17.2129 157.094 17.1087 157.758 16.9004C158.422 16.6855 158.933 16.3275 159.291 15.8262C159.649 15.3249 159.828 14.6413 159.828 13.7754C159.828 12.6751 159.49 11.8743 158.812 11.373C158.135 10.8652 157.087 10.6113 155.668 10.6113ZM172.523 18.6777C172.523 19.498 172.423 20.2467 172.221 20.9238C172.019 21.5944 171.719 22.1738 171.322 22.6621C170.925 23.1504 170.43 23.528 169.838 23.7949C169.252 24.0618 168.568 24.1953 167.787 24.1953C167.045 24.1953 166.384 24.0651 165.805 23.8047C165.225 23.5378 164.734 23.1602 164.33 22.6719C163.933 22.1836 163.63 21.6042 163.422 20.9336C163.214 20.2565 163.109 19.5046 163.109 18.6777C163.109 17.5384 163.298 16.5586 163.676 15.7383C164.06 14.9115 164.607 14.2799 165.316 13.8438C166.033 13.401 166.889 13.1797 167.885 13.1797C168.913 13.1797 169.77 13.4141 170.453 13.8828C171.143 14.3451 171.661 14.9896 172.006 15.8164C172.351 16.6432 172.523 17.597 172.523 18.6777ZM164.125 18.6777C164.125 19.6087 164.258 20.4225 164.525 21.1191C164.792 21.8158 165.196 22.3594 165.736 22.75C166.283 23.1406 166.973 23.3359 167.807 23.3359C168.66 23.3359 169.359 23.1406 169.906 22.75C170.453 22.3594 170.857 21.8125 171.117 21.1094C171.378 20.4062 171.508 19.5957 171.508 18.6777C171.508 17.7858 171.384 16.9915 171.137 16.2949C170.889 15.5983 170.499 15.0514 169.965 14.6543C169.431 14.2507 168.734 14.0488 167.875 14.0488C166.645 14.0488 165.71 14.459 165.072 15.2793C164.441 16.0996 164.125 17.2324 164.125 18.6777ZM179.682 13.1992C179.962 13.1992 180.225 13.2155 180.473 13.248C180.72 13.2806 180.951 13.3262 181.166 13.3848L181.01 14.293C180.795 14.2344 180.577 14.1921 180.355 14.166C180.134 14.1335 179.896 14.1172 179.643 14.1172C179.141 14.1172 178.692 14.2116 178.295 14.4004C177.904 14.5892 177.572 14.8594 177.299 15.2109C177.025 15.5625 176.817 15.9857 176.674 16.4805C176.531 16.9753 176.459 17.5286 176.459 18.1406V24H175.463V13.3848H176.312L176.41 15.3867H176.469C176.632 14.9766 176.859 14.6087 177.152 14.2832C177.452 13.9512 177.813 13.6875 178.236 13.4922C178.66 13.2969 179.141 13.1992 179.682 13.1992ZM186.117 23.3457C186.423 23.3457 186.706 23.3229 186.967 23.2773C187.234 23.2318 187.468 23.1732 187.67 23.1016V23.9219C187.462 23.9935 187.217 24.0553 186.938 24.1074C186.658 24.166 186.348 24.1953 186.01 24.1953C185.411 24.1953 184.913 24.0846 184.516 23.8633C184.118 23.6354 183.819 23.2936 183.617 22.8379C183.415 22.3757 183.314 21.7897 183.314 21.0801V14.2051H181.732V13.6191L183.305 13.3164L183.646 10.8164H184.301V13.3848H187.611V14.2051H184.301V21.0215C184.301 21.7832 184.441 22.3626 184.721 22.7598C185.007 23.1504 185.473 23.3457 186.117 23.3457ZM193.9 14.2051H191.4V24H190.414V14.2051H188.441V13.6191L190.414 13.3652V12.1934C190.414 11.4121 190.525 10.7643 190.746 10.25C190.974 9.72917 191.316 9.3418 191.771 9.08789C192.234 8.82747 192.816 8.69727 193.52 8.69727C193.884 8.69727 194.213 8.72656 194.506 8.78516C194.799 8.83724 195.072 8.9056 195.326 8.99023L195.102 9.82031C194.874 9.74219 194.62 9.67708 194.34 9.625C194.066 9.57292 193.796 9.54688 193.529 9.54688C192.781 9.54688 192.237 9.75521 191.898 10.1719C191.566 10.582 191.4 11.2526 191.4 12.1836V13.3848H193.9V14.2051ZM204.77 18.6777C204.77 19.498 204.669 20.2467 204.467 20.9238C204.265 21.5944 203.965 22.1738 203.568 22.6621C203.171 23.1504 202.676 23.528 202.084 23.7949C201.498 24.0618 200.814 24.1953 200.033 24.1953C199.291 24.1953 198.63 24.0651 198.051 23.8047C197.471 23.5378 196.98 23.1602 196.576 22.6719C196.179 22.1836 195.876 21.6042 195.668 20.9336C195.46 20.2565 195.355 19.5046 195.355 18.6777C195.355 17.5384 195.544 16.5586 195.922 15.7383C196.306 14.9115 196.853 14.2799 197.562 13.8438C198.279 13.401 199.135 13.1797 200.131 13.1797C201.16 13.1797 202.016 13.4141 202.699 13.8828C203.389 14.3451 203.907 14.9896 204.252 15.8164C204.597 16.6432 204.77 17.597 204.77 18.6777ZM196.371 18.6777C196.371 19.6087 196.505 20.4225 196.771 21.1191C197.038 21.8158 197.442 22.3594 197.982 22.75C198.529 23.1406 199.219 23.3359 200.053 23.3359C200.906 23.3359 201.605 23.1406 202.152 22.75C202.699 22.3594 203.103 21.8125 203.363 21.1094C203.624 20.4062 203.754 19.5957 203.754 18.6777C203.754 17.7858 203.63 16.9915 203.383 16.2949C203.135 15.5983 202.745 15.0514 202.211 14.6543C201.677 14.2507 200.98 14.0488 200.121 14.0488C198.891 14.0488 197.956 14.459 197.318 15.2793C196.687 16.0996 196.371 17.2324 196.371 18.6777ZM208.705 24H207.709V8.80469H208.705V24ZM213.217 13.3848V24H212.23V13.3848H213.217ZM212.738 9.45898C212.986 9.45898 213.168 9.53385 213.285 9.68359C213.402 9.82682 213.461 10.0221 213.461 10.2695C213.461 10.5169 213.402 10.7122 213.285 10.8555C213.168 10.9987 212.986 11.0703 212.738 11.0703C212.504 11.0703 212.328 10.9987 212.211 10.8555C212.094 10.7122 212.035 10.5169 212.035 10.2695C212.035 10.0221 212.094 9.82682 212.211 9.68359C212.328 9.53385 212.504 9.45898 212.738 9.45898ZM225.57 18.6777C225.57 19.498 225.469 20.2467 225.268 20.9238C225.066 21.5944 224.766 22.1738 224.369 22.6621C223.972 23.1504 223.477 23.528 222.885 23.7949C222.299 24.0618 221.615 24.1953 220.834 24.1953C220.092 24.1953 219.431 24.0651 218.852 23.8047C218.272 23.5378 217.781 23.1602 217.377 22.6719C216.98 22.1836 216.677 21.6042 216.469 20.9336C216.26 20.2565 216.156 19.5046 216.156 18.6777C216.156 17.5384 216.345 16.5586 216.723 15.7383C217.107 14.9115 217.654 14.2799 218.363 13.8438C219.079 13.401 219.936 13.1797 220.932 13.1797C221.96 13.1797 222.816 13.4141 223.5 13.8828C224.19 14.3451 224.708 14.9896 225.053 15.8164C225.398 16.6432 225.57 17.597 225.57 18.6777ZM217.172 18.6777C217.172 19.6087 217.305 20.4225 217.572 21.1191C217.839 21.8158 218.243 22.3594 218.783 22.75C219.33 23.1406 220.02 23.3359 220.854 23.3359C221.706 23.3359 222.406 23.1406 222.953 22.75C223.5 22.3594 223.904 21.8125 224.164 21.1094C224.424 20.4062 224.555 19.5957 224.555 18.6777C224.555 17.7858 224.431 16.9915 224.184 16.2949C223.936 15.5983 223.546 15.0514 223.012 14.6543C222.478 14.2507 221.781 14.0488 220.922 14.0488C219.691 14.0488 218.757 14.459 218.119 15.2793C217.488 16.0996 217.172 17.2324 217.172 18.6777Z" fill="white" fill-opacity="0.87"/>
</svg>
